<svg xmlns="http://www.w3.org/2000/svg" xmlns:xlink="http://www.w3.org/1999/xlink" width="500" zoomAndPan="magnify" viewBox="0 0 375 120" height="150" preserveAspectRatio="xMidYMid meet" version="1.0"><defs><g/></defs><g fill="#000000" fill-opacity="0.4"><g transform="translate(10.499902, 82.637201)"><g><path d="M 17.398438 -51.738281 C 17.828125 -51.738281 18.691406 -51.683594 19.984375 -51.578125 C 21.277344 -51.46875 22.753906 -51.167969 24.414062 -50.671875 C 26.074219 -50.175781 27.703125 -49.378906 29.296875 -48.277344 C 30.890625 -47.179688 32.21875 -45.660156 33.273438 -43.71875 C 34.332031 -41.777344 34.859375 -39.277344 34.859375 -36.214844 C 34.859375 -33.671875 34.46875 -31.527344 33.695312 -29.78125 C 32.917969 -28.035156 31.894531 -26.601562 30.621094 -25.480469 C 29.351562 -24.359375 28.003906 -23.476562 26.582031 -22.828125 C 25.15625 -22.183594 23.789062 -21.71875 22.472656 -21.4375 C 21.160156 -21.160156 20.039062 -20.984375 19.109375 -20.921875 C 18.183594 -20.855469 17.613281 -20.824219 17.398438 -20.824219 L 9.699219 -20.824219 L 9.699219 -0.582031 C 9.699219 -0.195312 9.484375 0 9.054688 0 L 0.648438 0 C 0.214844 0 0 -0.195312 0 -0.582031 L 0 -30.394531 L 17.398438 -30.394531 C 17.742188 -30.394531 18.3125 -30.4375 19.109375 -30.527344 C 19.910156 -30.613281 20.769531 -30.828125 21.699219 -31.171875 C 22.625 -31.515625 23.410156 -32.089844 24.058594 -32.886719 C 24.703125 -33.683594 25.027344 -34.792969 25.027344 -36.214844 C 25.027344 -37.640625 24.695312 -38.761719 24.027344 -39.578125 C 23.359375 -40.398438 22.558594 -40.992188 21.632812 -41.359375 C 20.707031 -41.726562 19.84375 -41.960938 19.046875 -42.070312 C 18.25 -42.175781 17.699219 -42.230469 17.398438 -42.230469 L 0 -42.230469 L 0 -51.15625 C 0 -51.542969 0.214844 -51.738281 0.648438 -51.738281 Z M 17.398438 -51.738281 "/></g></g></g><g fill="#000000" fill-opacity="0.4"><g transform="translate(47.103663, 82.637201)"><g><path d="M 35.3125 -0.839844 C 35.398438 -0.625 35.386719 -0.429688 35.277344 -0.257812 C 35.171875 -0.0859375 34.988281 0 34.730469 0 L 25.480469 0 C 25.136719 0 24.921875 -0.128906 24.835938 -0.386719 L 15.390625 -20.890625 L 9.832031 -20.890625 L 9.832031 -0.582031 C 9.832031 -0.195312 9.59375 0 9.117188 0 L 0.648438 0 C 0.214844 0 0 -0.195312 0 -0.582031 L 0 -30.394531 L 17.398438 -30.394531 C 17.914062 -30.394531 18.605469 -30.4375 19.464844 -30.527344 C 20.328125 -30.613281 21.179688 -30.847656 22.019531 -31.238281 C 22.863281 -31.625 23.574219 -32.21875 24.15625 -33.015625 C 24.738281 -33.8125 25.027344 -34.921875 25.027344 -36.347656 C 25.027344 -37.769531 24.714844 -38.890625 24.089844 -39.710938 C 23.464844 -40.527344 22.699219 -41.121094 21.792969 -41.488281 C 20.890625 -41.855469 20.027344 -42.089844 19.207031 -42.199219 C 18.386719 -42.308594 17.785156 -42.359375 17.398438 -42.359375 L 0 -42.359375 L 0 -51.15625 C 0 -51.542969 0.214844 -51.738281 0.648438 -51.738281 L 17.398438 -51.738281 C 18 -51.738281 18.96875 -51.683594 20.308594 -51.578125 C 21.644531 -51.46875 23.140625 -51.175781 24.800781 -50.703125 C 26.460938 -50.230469 28.058594 -49.453125 29.585938 -48.375 C 31.117188 -47.296875 32.378906 -45.789062 33.371094 -43.847656 C 34.363281 -41.90625 34.859375 -39.40625 34.859375 -36.347656 C 34.859375 -33.714844 34.425781 -31.484375 33.566406 -29.652344 C 32.703125 -27.820312 31.550781 -26.320312 30.105469 -25.15625 C 28.660156 -23.992188 27.078125 -23.089844 25.351562 -22.441406 C 26.988281 -18.777344 28.660156 -15.15625 30.363281 -11.578125 C 32.066406 -7.996094 33.714844 -4.417969 35.3125 -0.839844 Z M 35.3125 -0.839844 "/></g></g></g><g fill="#000000" fill-opacity="0.4"><g transform="translate(84.289465, 82.637201)"><g><path d="M 29.75 -25.738281 C 29.75 -24.402344 29.285156 -23.261719 28.359375 -22.3125 C 27.433594 -21.363281 26.277344 -20.890625 24.898438 -20.890625 C 23.5625 -20.890625 22.417969 -21.363281 21.472656 -22.3125 C 20.523438 -23.261719 20.046875 -24.402344 20.046875 -25.738281 C 20.046875 -27.121094 20.523438 -28.285156 21.472656 -29.230469 C 22.417969 -30.179688 23.5625 -30.65625 24.898438 -30.65625 C 26.277344 -30.65625 27.433594 -30.179688 28.359375 -29.230469 C 29.285156 -28.285156 29.75 -27.121094 29.75 -25.738281 Z M 49.796875 -25.933594 C 49.796875 -22.699219 49.28125 -19.542969 48.246094 -16.460938 C 47.210938 -13.375 45.660156 -10.59375 43.589844 -8.117188 C 41.519531 -5.636719 38.933594 -3.664062 35.828125 -2.199219 C 32.722656 -0.734375 29.101562 0 24.964844 0 C 20.78125 0 17.128906 -0.734375 14 -2.199219 C 10.875 -3.664062 8.277344 -5.636719 6.207031 -8.117188 C 4.140625 -10.59375 2.585938 -13.375 1.550781 -16.460938 C 0.515625 -19.542969 0 -22.699219 0 -25.933594 C 0 -29.167969 0.515625 -32.316406 1.550781 -35.375 C 2.585938 -38.4375 4.140625 -41.195312 6.207031 -43.652344 C 8.277344 -46.113281 10.875 -48.074219 14 -49.539062 C 17.128906 -51.003906 20.78125 -51.738281 24.964844 -51.738281 C 29.101562 -51.738281 32.722656 -51.003906 35.828125 -49.539062 C 38.933594 -48.074219 41.519531 -46.113281 43.589844 -43.652344 C 45.660156 -41.195312 47.210938 -38.4375 48.246094 -35.375 C 49.28125 -32.316406 49.796875 -29.167969 49.796875 -25.933594 Z M 40.097656 -25.738281 C 40.097656 -27.851562 39.773438 -29.910156 39.128906 -31.914062 C 38.480469 -33.921875 37.53125 -35.730469 36.28125 -37.347656 C 35.03125 -38.964844 33.457031 -40.246094 31.558594 -41.195312 C 29.664062 -42.144531 27.464844 -42.621094 24.964844 -42.621094 C 22.417969 -42.621094 20.199219 -42.144531 18.300781 -41.195312 C 16.40625 -40.246094 14.820312 -38.964844 13.550781 -37.347656 C 12.277344 -35.730469 11.328125 -33.921875 10.703125 -31.914062 C 10.078125 -29.910156 9.765625 -27.851562 9.765625 -25.738281 C 9.765625 -23.671875 10.078125 -21.644531 10.703125 -19.660156 C 11.328125 -17.675781 12.277344 -15.886719 13.550781 -14.292969 C 14.820312 -12.699219 16.40625 -11.425781 18.300781 -10.476562 C 20.199219 -9.527344 22.417969 -9.054688 24.964844 -9.054688 C 27.464844 -9.054688 29.664062 -9.527344 31.558594 -10.476562 C 33.457031 -11.425781 35.03125 -12.699219 36.28125 -14.292969 C 37.53125 -15.886719 38.480469 -17.675781 39.128906 -19.660156 C 39.773438 -21.644531 40.097656 -23.671875 40.097656 -25.738281 Z M 40.097656 -25.738281 "/></g></g></g><g fill="#000000" fill-opacity="0.4"><g transform="translate(136.5436, 82.637201)"><g><path d="M 4.332031 -42.878906 C 3.859375 -42.878906 3.621094 -43.070312 3.621094 -43.460938 L 3.621094 -51.15625 C 3.621094 -51.542969 3.859375 -51.738281 4.332031 -51.738281 L 21.925781 -51.738281 C 22.355469 -51.738281 22.570312 -51.542969 22.570312 -51.15625 L 22.570312 -42.878906 Z M 12.742188 -34.019531 L 22.570312 -34.019531 L 22.570312 -15.261719 C 22.570312 -12.71875 22.195312 -10.574219 21.4375 -8.828125 C 20.683594 -7.082031 19.726562 -5.648438 18.5625 -4.527344 C 17.398438 -3.40625 16.15625 -2.53125 14.84375 -1.90625 C 13.527344 -1.28125 12.289062 -0.839844 11.125 -0.582031 C 9.960938 -0.324219 9 -0.160156 8.246094 -0.0976562 C 7.492188 -0.03125 7.113281 0 7.113281 0 L 0.710938 0 C 0.238281 0 0 -0.195312 0 -0.582031 L 0 -8.988281 C 0 -9.378906 0.238281 -9.570312 0.710938 -9.570312 L 7.113281 -9.570312 C 8.535156 -9.570312 9.625 -9.863281 10.378906 -10.445312 C 11.132812 -11.027344 11.683594 -11.683594 12.027344 -12.417969 C 12.375 -13.148438 12.578125 -13.808594 12.644531 -14.390625 C 12.707031 -14.972656 12.742188 -15.261719 12.742188 -15.261719 Z M 12.742188 -34.019531 "/></g></g></g><g fill="#000000" fill-opacity="0.4"><g transform="translate(160.277842, 82.637201)"><g><path d="M 24.574219 -9.636719 L 24.574219 0 L 0.710938 0 C 0.238281 0 0 -0.195312 0 -0.582031 L 0 -51.15625 C 0 -51.542969 0.238281 -51.738281 0.710938 -51.738281 L 24.574219 -51.738281 L 24.574219 -42.359375 L 9.894531 -42.359375 L 9.894531 -30.65625 L 30.203125 -30.65625 C 30.675781 -30.65625 30.914062 -30.460938 30.914062 -30.074219 L 30.914062 -21.859375 C 30.914062 -21.472656 30.675781 -21.277344 30.203125 -21.277344 L 9.894531 -21.277344 L 9.894531 -9.636719 Z M 24.574219 -9.636719 "/></g></g></g><g fill="#ffffff" fill-opacity="1"><g transform="translate(5.649328, 82.637201)"><g><path d="M 17.398438 -51.738281 C 17.828125 -51.738281 18.691406 -51.683594 19.984375 -51.578125 C 21.277344 -51.46875 22.753906 -51.167969 24.414062 -50.671875 C 26.074219 -50.175781 27.703125 -49.378906 29.296875 -48.277344 C 30.890625 -47.179688 32.21875 -45.660156 33.273438 -43.71875 C 34.332031 -41.777344 34.859375 -39.277344 34.859375 -36.214844 C 34.859375 -33.671875 34.46875 -31.527344 33.695312 -29.78125 C 32.917969 -28.035156 31.894531 -26.601562 30.621094 -25.480469 C 29.351562 -24.359375 28.003906 -23.476562 26.582031 -22.828125 C 25.15625 -22.183594 23.789062 -21.71875 22.472656 -21.4375 C 21.160156 -21.160156 20.039062 -20.984375 19.109375 -20.921875 C 18.183594 -20.855469 17.613281 -20.824219 17.398438 -20.824219 L 9.699219 -20.824219 L 9.699219 -0.582031 C 9.699219 -0.195312 9.484375 0 9.054688 0 L 0.648438 0 C 0.214844 0 0 -0.195312 0 -0.582031 L 0 -30.394531 L 17.398438 -30.394531 C 17.742188 -30.394531 18.3125 -30.4375 19.109375 -30.527344 C 19.910156 -30.613281 20.769531 -30.828125 21.699219 -31.171875 C 22.625 -31.515625 23.410156 -32.089844 24.058594 -32.886719 C 24.703125 -33.683594 25.027344 -34.792969 25.027344 -36.214844 C 25.027344 -37.640625 24.695312 -38.761719 24.027344 -39.578125 C 23.359375 -40.398438 22.558594 -40.992188 21.632812 -41.359375 C 20.707031 -41.726562 19.84375 -41.960938 19.046875 -42.070312 C 18.25 -42.175781 17.699219 -42.230469 17.398438 -42.230469 L 0 -42.230469 L 0 -51.15625 C 0 -51.542969 0.214844 -51.738281 0.648438 -51.738281 Z M 17.398438 -51.738281 "/></g></g></g><g fill="#ffffff" fill-opacity="1"><g transform="translate(42.253089, 82.637201)"><g><path d="M 35.3125 -0.839844 C 35.398438 -0.625 35.386719 -0.429688 35.277344 -0.257812 C 35.171875 -0.0859375 34.988281 0 34.730469 0 L 25.480469 0 C 25.136719 0 24.921875 -0.128906 24.835938 -0.386719 L 15.390625 -20.890625 L 9.832031 -20.890625 L 9.832031 -0.582031 C 9.832031 -0.195312 9.59375 0 9.117188 0 L 0.648438 0 C 0.214844 0 0 -0.195312 0 -0.582031 L 0 -30.394531 L 17.398438 -30.394531 C 17.914062 -30.394531 18.605469 -30.4375 19.464844 -30.527344 C 20.328125 -30.613281 21.179688 -30.847656 22.019531 -31.238281 C 22.863281 -31.625 23.574219 -32.21875 24.15625 -33.015625 C 24.738281 -33.8125 25.027344 -34.921875 25.027344 -36.347656 C 25.027344 -37.769531 24.714844 -38.890625 24.089844 -39.710938 C 23.464844 -40.527344 22.699219 -41.121094 21.792969 -41.488281 C 20.890625 -41.855469 20.027344 -42.089844 19.207031 -42.199219 C 18.386719 -42.308594 17.785156 -42.359375 17.398438 -42.359375 L 0 -42.359375 L 0 -51.15625 C 0 -51.542969 0.214844 -51.738281 0.648438 -51.738281 L 17.398438 -51.738281 C 18 -51.738281 18.96875 -51.683594 20.308594 -51.578125 C 21.644531 -51.46875 23.140625 -51.175781 24.800781 -50.703125 C 26.460938 -50.230469 28.058594 -49.453125 29.585938 -48.375 C 31.117188 -47.296875 32.378906 -45.789062 33.371094 -43.847656 C 34.363281 -41.90625 34.859375 -39.40625 34.859375 -36.347656 C 34.859375 -33.714844 34.425781 -31.484375 33.566406 -29.652344 C 32.703125 -27.820312 31.550781 -26.320312 30.105469 -25.15625 C 28.660156 -23.992188 27.078125 -23.089844 25.351562 -22.441406 C 26.988281 -18.777344 28.660156 -15.15625 30.363281 -11.578125 C 32.066406 -7.996094 33.714844 -4.417969 35.3125 -0.839844 Z M 35.3125 -0.839844 "/></g></g></g><g fill="#ffffff" fill-opacity="1"><g transform="translate(79.438891, 82.637201)"><g><path d="M 29.75 -25.738281 C 29.75 -24.402344 29.285156 -23.261719 28.359375 -22.3125 C 27.433594 -21.363281 26.277344 -20.890625 24.898438 -20.890625 C 23.5625 -20.890625 22.417969 -21.363281 21.472656 -22.3125 C 20.523438 -23.261719 20.046875 -24.402344 20.046875 -25.738281 C 20.046875 -27.121094 20.523438 -28.285156 21.472656 -29.230469 C 22.417969 -30.179688 23.5625 -30.65625 24.898438 -30.65625 C 26.277344 -30.65625 27.433594 -30.179688 28.359375 -29.230469 C 29.285156 -28.285156 29.75 -27.121094 29.75 -25.738281 Z M 49.796875 -25.933594 C 49.796875 -22.699219 49.28125 -19.542969 48.246094 -16.460938 C 47.210938 -13.375 45.660156 -10.59375 43.589844 -8.117188 C 41.519531 -5.636719 38.933594 -3.664062 35.828125 -2.199219 C 32.722656 -0.734375 29.101562 0 24.964844 0 C 20.78125 0 17.128906 -0.734375 14 -2.199219 C 10.875 -3.664062 8.277344 -5.636719 6.207031 -8.117188 C 4.140625 -10.59375 2.585938 -13.375 1.550781 -16.460938 C 0.515625 -19.542969 0 -22.699219 0 -25.933594 C 0 -29.167969 0.515625 -32.316406 1.550781 -35.375 C 2.585938 -38.4375 4.140625 -41.195312 6.207031 -43.652344 C 8.277344 -46.113281 10.875 -48.074219 14 -49.539062 C 17.128906 -51.003906 20.78125 -51.738281 24.964844 -51.738281 C 29.101562 -51.738281 32.722656 -51.003906 35.828125 -49.539062 C 38.933594 -48.074219 41.519531 -46.113281 43.589844 -43.652344 C 45.660156 -41.195312 47.210938 -38.4375 48.246094 -35.375 C 49.28125 -32.316406 49.796875 -29.167969 49.796875 -25.933594 Z M 40.097656 -25.738281 C 40.097656 -27.851562 39.773438 -29.910156 39.128906 -31.914062 C 38.480469 -33.921875 37.53125 -35.730469 36.28125 -37.347656 C 35.03125 -38.964844 33.457031 -40.246094 31.558594 -41.195312 C 29.664062 -42.144531 27.464844 -42.621094 24.964844 -42.621094 C 22.417969 -42.621094 20.199219 -42.144531 18.300781 -41.195312 C 16.40625 -40.246094 14.820312 -38.964844 13.550781 -37.347656 C 12.277344 -35.730469 11.328125 -33.921875 10.703125 -31.914062 C 10.078125 -29.910156 9.765625 -27.851562 9.765625 -25.738281 C 9.765625 -23.671875 10.078125 -21.644531 10.703125 -19.660156 C 11.328125 -17.675781 12.277344 -15.886719 13.550781 -14.292969 C 14.820312 -12.699219 16.40625 -11.425781 18.300781 -10.476562 C 20.199219 -9.527344 22.417969 -9.054688 24.964844 -9.054688 C 27.464844 -9.054688 29.664062 -9.527344 31.558594 -10.476562 C 33.457031 -11.425781 35.03125 -12.699219 36.28125 -14.292969 C 37.53125 -15.886719 38.480469 -17.675781 39.128906 -19.660156 C 39.773438 -21.644531 40.097656 -23.671875 40.097656 -25.738281 Z M 40.097656 -25.738281 "/></g></g></g><g fill="#ffffff" fill-opacity="1"><g transform="translate(131.693027, 82.637201)"><g><path d="M 4.332031 -42.878906 C 3.859375 -42.878906 3.621094 -43.070312 3.621094 -43.460938 L 3.621094 -51.15625 C 3.621094 -51.542969 3.859375 -51.738281 4.332031 -51.738281 L 21.925781 -51.738281 C 22.355469 -51.738281 22.570312 -51.542969 22.570312 -51.15625 L 22.570312 -42.878906 Z M 12.742188 -34.019531 L 22.570312 -34.019531 L 22.570312 -15.261719 C 22.570312 -12.71875 22.195312 -10.574219 21.4375 -8.828125 C 20.683594 -7.082031 19.726562 -5.648438 18.5625 -4.527344 C 17.398438 -3.40625 16.15625 -2.53125 14.84375 -1.90625 C 13.527344 -1.28125 12.289062 -0.839844 11.125 -0.582031 C 9.960938 -0.324219 9 -0.160156 8.246094 -0.0976562 C 7.492188 -0.03125 7.113281 0 7.113281 0 L 0.710938 0 C 0.238281 0 0 -0.195312 0 -0.582031 L 0 -8.988281 C 0 -9.378906 0.238281 -9.570312 0.710938 -9.570312 L 7.113281 -9.570312 C 8.535156 -9.570312 9.625 -9.863281 10.378906 -10.445312 C 11.132812 -11.027344 11.683594 -11.683594 12.027344 -12.417969 C 12.375 -13.148438 12.578125 -13.808594 12.644531 -14.390625 C 12.707031 -14.972656 12.742188 -15.261719 12.742188 -15.261719 Z M 12.742188 -34.019531 "/></g></g></g><g fill="#ffffff" fill-opacity="1"><g transform="translate(155.427268, 82.637201)"><g><path d="M 24.574219 -9.636719 L 24.574219 0 L 0.710938 0 C 0.238281 0 0 -0.195312 0 -0.582031 L 0 -51.15625 C 0 -51.542969 0.238281 -51.738281 0.710938 -51.738281 L 24.574219 -51.738281 L 24.574219 -42.359375 L 9.894531 -42.359375 L 9.894531 -30.65625 L 30.203125 -30.65625 C 30.675781 -30.65625 30.914062 -30.460938 30.914062 -30.074219 L 30.914062 -21.859375 C 30.914062 -21.472656 30.675781 -21.277344 30.203125 -21.277344 L 9.894531 -21.277344 L 9.894531 -9.636719 Z M 24.574219 -9.636719 "/></g></g></g><path stroke-linecap="butt" transform="matrix(0.75, 0.000000000000000048, -0.000000000000000048, 0.75, 0.000000000000021316, 15.030322)" fill="none" stroke-linejoin="miter" d="M -0.000000000000028038 6.001238 L 500.000021 6.001238 " stroke="#ffffff" stroke-width="12" stroke-opacity="1" stroke-miterlimit="4"/><path stroke-linecap="butt" transform="matrix(0.75, 0, 0, 0.75, 0.000000000000021316, 89.356842)" fill="none" stroke-linejoin="miter" d="M -0.000000000000028422 5.998169 L 500.000021 5.998169 " stroke="#ffffff" stroke-width="12" stroke-opacity="1" stroke-miterlimit="4"/><g fill="#000000" fill-opacity="0.3412"><g transform="translate(187.869381, 97.456035)"><g><path d="M 75.414062 -82.757812 C 75.964844 -82.757812 76.34375 -82.585938 76.550781 -82.238281 C 76.757812 -81.894531 76.722656 -81.550781 76.445312 -81.207031 L 47.894531 -41.378906 C 50.929688 -37.171875 53.980469 -32.929688 57.050781 -28.65625 C 60.121094 -24.378906 63.171875 -20.101562 66.207031 -15.828125 L 46.964844 -15.828125 L 38.378906 -27.929688 L 18.621094 -0.308594 C 18.550781 -0.242188 18.414062 -0.171875 18.207031 -0.101562 C 18 -0.0351562 17.828125 0 17.6875 0 L 1.136719 0 C 0.65625 0 0.328125 -0.171875 0.15625 -0.515625 C -0.015625 -0.863281 0.0351562 -1.207031 0.308594 -1.550781 L 28.65625 -41.378906 C 25.621094 -45.585938 22.585938 -49.828125 19.550781 -54.101562 C 16.515625 -58.378906 13.484375 -62.652344 10.449219 -66.929688 L 29.6875 -66.929688 L 38.378906 -54.828125 L 57.929688 -82.445312 C 58 -82.585938 58.15625 -82.671875 58.394531 -82.707031 C 58.636719 -82.738281 58.792969 -82.757812 58.859375 -82.757812 Z M 75.414062 -82.757812 "/></g></g></g><g fill="#ffffff" fill-opacity="1"><g transform="translate(181.14484, 97.456035)"><g><path d="M 75.414062 -82.757812 C 75.964844 -82.757812 76.34375 -82.585938 76.550781 -82.238281 C 76.757812 -81.894531 76.722656 -81.550781 76.445312 -81.207031 L 47.894531 -41.378906 C 50.929688 -37.171875 53.980469 -32.929688 57.050781 -28.65625 C 60.121094 -24.378906 63.171875 -20.101562 66.207031 -15.828125 L 46.964844 -15.828125 L 38.378906 -27.929688 L 18.621094 -0.308594 C 18.550781 -0.242188 18.414062 -0.171875 18.207031 -0.101562 C 18 -0.0351562 17.828125 0 17.6875 0 L 1.136719 0 C 0.65625 0 0.328125 -0.171875 0.15625 -0.515625 C -0.015625 -0.863281 0.0351562 -1.207031 0.308594 -1.550781 L 28.65625 -41.378906 C 25.621094 -45.585938 22.585938 -49.828125 19.550781 -54.101562 C 16.515625 -58.378906 13.484375 -62.652344 10.449219 -66.929688 L 29.6875 -66.929688 L 38.378906 -54.828125 L 57.929688 -82.445312 C 58 -82.585938 58.15625 -82.671875 58.394531 -82.707031 C 58.636719 -82.738281 58.792969 -82.757812 58.859375 -82.757812 Z M 75.414062 -82.757812 "/></g></g></g><g fill="#ffffff" fill-opacity="1"><g transform="translate(262.146543, 82.637201)"><g><path d="M 25.222656 -36.347656 C 25.222656 -37.898438 24.835938 -39.09375 24.058594 -39.933594 C 23.28125 -40.777344 22.398438 -41.378906 21.40625 -41.746094 C 20.414062 -42.113281 19.53125 -42.328125 18.753906 -42.394531 C 17.980469 -42.457031 17.589844 -42.488281 17.589844 -42.488281 L 9.832031 -42.488281 L 9.832031 -30.65625 L 17.589844 -30.65625 C 17.589844 -30.65625 17.980469 -30.6875 18.753906 -30.75 C 19.53125 -30.816406 20.414062 -31.019531 21.40625 -31.367188 C 22.398438 -31.710938 23.28125 -32.273438 24.058594 -33.046875 C 24.835938 -33.824219 25.222656 -34.921875 25.222656 -36.347656 Z M 35.117188 -36.929688 C 35.117188 -33.910156 34.417969 -31.515625 33.015625 -29.75 C 31.613281 -27.980469 29.921875 -26.6875 27.9375 -25.867188 C 30.007812 -25.179688 31.582031 -24.242188 32.660156 -23.054688 C 33.738281 -21.871094 34.503906 -20.664062 34.957031 -19.433594 C 35.410156 -18.207031 35.667969 -17.171875 35.730469 -16.328125 C 35.796875 -15.488281 35.828125 -15.070312 35.828125 -15.070312 C 35.828125 -12.179688 35.320312 -9.808594 34.308594 -7.953125 C 33.296875 -6.101562 32.003906 -4.636719 30.429688 -3.558594 C 28.855469 -2.480469 27.214844 -1.679688 25.511719 -1.164062 C 23.808594 -0.648438 22.238281 -0.324219 20.792969 -0.195312 C 19.347656 -0.0664062 18.28125 0 17.589844 0 L 9.894531 0 L 9.894531 -9.441406 L 17.589844 -9.441406 C 18.667969 -9.441406 19.855469 -9.582031 21.148438 -9.863281 C 22.441406 -10.144531 23.5625 -10.714844 24.511719 -11.578125 C 25.460938 -12.4375 25.933594 -13.6875 25.933594 -15.328125 C 25.933594 -16.535156 25.652344 -17.515625 25.09375 -18.269531 C 24.53125 -19.023438 23.84375 -19.597656 23.023438 -19.984375 C 22.203125 -20.371094 21.375 -20.628906 20.535156 -20.761719 C 19.691406 -20.890625 18.992188 -20.964844 18.433594 -20.984375 C 17.871094 -21.007812 17.589844 -21.019531 17.589844 -21.019531 L 0 -21.019531 L 0 -51.15625 C 0 -51.542969 0.238281 -51.738281 0.710938 -51.738281 L 17.589844 -51.738281 C 17.589844 -51.738281 18.011719 -51.714844 18.851562 -51.671875 C 19.691406 -51.628906 20.78125 -51.492188 22.117188 -51.253906 C 23.453125 -51.015625 24.867188 -50.605469 26.355469 -50.023438 C 27.839844 -49.441406 29.253906 -48.613281 30.589844 -47.535156 C 31.925781 -46.457031 33.015625 -45.054688 33.855469 -43.332031 C 34.695312 -41.605469 35.117188 -39.472656 35.117188 -36.929688 Z M 35.117188 -36.929688 "/></g></g></g><g fill="#ffffff" fill-opacity="1"><g transform="translate(299.785041, 82.637201)"><g><path d="M 21.082031 -8.859375 C 21.558594 -8.859375 21.792969 -8.667969 21.792969 -8.277344 L 21.792969 -0.582031 C 21.792969 -0.195312 21.558594 0 21.082031 0 L 0.710938 0 C 0.238281 0 0 -0.195312 0 -0.582031 L 0 -8.277344 C 0 -8.667969 0.238281 -8.859375 0.710938 -8.859375 L 6.015625 -8.859375 L 6.015625 -51.738281 L 15.910156 -51.738281 L 15.910156 -8.859375 Z M 21.082031 -8.859375 "/></g></g></g><g fill="#ffffff" fill-opacity="1"><g transform="translate(322.678562, 82.637201)"><g><path d="M 29.75 -25.738281 C 29.75 -24.402344 29.285156 -23.261719 28.359375 -22.3125 C 27.433594 -21.363281 26.277344 -20.890625 24.898438 -20.890625 C 23.5625 -20.890625 22.417969 -21.363281 21.472656 -22.3125 C 20.523438 -23.261719 20.046875 -24.402344 20.046875 -25.738281 C 20.046875 -27.121094 20.523438 -28.285156 21.472656 -29.230469 C 22.417969 -30.179688 23.5625 -30.65625 24.898438 -30.65625 C 26.277344 -30.65625 27.433594 -30.179688 28.359375 -29.230469 C 29.285156 -28.285156 29.75 -27.121094 29.75 -25.738281 Z M 49.796875 -25.933594 C 49.796875 -22.699219 49.28125 -19.542969 48.246094 -16.460938 C 47.210938 -13.375 45.660156 -10.59375 43.589844 -8.117188 C 41.519531 -5.636719 38.933594 -3.664062 35.828125 -2.199219 C 32.722656 -0.734375 29.101562 0 24.964844 0 C 20.78125 0 17.128906 -0.734375 14 -2.199219 C 10.875 -3.664062 8.277344 -5.636719 6.207031 -8.117188 C 4.140625 -10.59375 2.585938 -13.375 1.550781 -16.460938 C 0.515625 -19.542969 0 -22.699219 0 -25.933594 C 0 -29.167969 0.515625 -32.316406 1.550781 -35.375 C 2.585938 -38.4375 4.140625 -41.195312 6.207031 -43.652344 C 8.277344 -46.113281 10.875 -48.074219 14 -49.539062 C 17.128906 -51.003906 20.78125 -51.738281 24.964844 -51.738281 C 29.101562 -51.738281 32.722656 -51.003906 35.828125 -49.539062 C 38.933594 -48.074219 41.519531 -46.113281 43.589844 -43.652344 C 45.660156 -41.195312 47.210938 -38.4375 48.246094 -35.375 C 49.28125 -32.316406 49.796875 -29.167969 49.796875 -25.933594 Z M 40.097656 -25.738281 C 40.097656 -27.851562 39.773438 -29.910156 39.128906 -31.914062 C 38.480469 -33.921875 37.53125 -35.730469 36.28125 -37.347656 C 35.03125 -38.964844 33.457031 -40.246094 31.558594 -41.195312 C 29.664062 -42.144531 27.464844 -42.621094 24.964844 -42.621094 C 22.417969 -42.621094 20.199219 -42.144531 18.300781 -41.195312 C 16.40625 -40.246094 14.820312 -38.964844 13.550781 -37.347656 C 12.277344 -35.730469 11.328125 -33.921875 10.703125 -31.914062 C 10.078125 -29.910156 9.765625 -27.851562 9.765625 -25.738281 C 9.765625 -23.671875 10.078125 -21.644531 10.703125 -19.660156 C 11.328125 -17.675781 12.277344 -15.886719 13.550781 -14.292969 C 14.820312 -12.699219 16.40625 -11.425781 18.300781 -10.476562 C 20.199219 -9.527344 22.417969 -9.054688 24.964844 -9.054688 C 27.464844 -9.054688 29.664062 -9.527344 31.558594 -10.476562 C 33.457031 -11.425781 35.03125 -12.699219 36.28125 -14.292969 C 37.53125 -15.886719 38.480469 -17.675781 39.128906 -19.660156 C 39.773438 -21.644531 40.097656 -23.671875 40.097656 -25.738281 Z M 40.097656 -25.738281 "/></g></g></g></svg>