<svg xmlns="http://www.w3.org/2000/svg" xmlns:xlink="http://www.w3.org/1999/xlink" width="500" zoomAndPan="magnify" viewBox="0 0 375 299.999988" height="400" preserveAspectRatio="xMidYMid meet" version="1.2"><defs><clipPath id="dce3ef5867"><path d="M 1 5.390625 L 374 5.390625 L 374 294.890625 L 1 294.890625 Z M 1 5.390625 "/></clipPath></defs><g id="3a1d9555d0"><path style=" stroke:none;fill-rule:nonzero;fill:#000000;fill-opacity:1;" d="M 252.238281 103.84375 C 249.304688 103.894531 247.367188 106.035156 247.367188 109.230469 C 247.351562 113.273438 250.460938 116.707031 254.113281 116.707031 C 257.007812 116.695312 258.800781 114.71875 258.785156 111.507812 C 258.773438 107.265625 255.804688 103.78125 252.238281 103.84375 Z M 254.597656 114.519531 C 253.480469 115.015625 252.574219 114.207031 251.726562 113.5625 C 251.601562 113.460938 251.492188 113.335938 251.378906 113.210938 C 250 111.558594 248.867188 109.855469 250.160156 107.625 C 250.796875 106.542969 251.679688 105.859375 253.03125 106.183594 C 254.820312 106.621094 256.699219 109.28125 256.660156 111.222656 C 256.511719 112.753906 255.890625 113.933594 254.597656 114.519531 Z M 254.597656 114.519531 "/><path style=" stroke:none;fill-rule:nonzero;fill:#000000;fill-opacity:1;" d="M 312.128906 46.0625 C 311.902344 48.625 309.890625 50.078125 307.019531 50.042969 C 303.824219 49.992188 302.046875 48.460938 301.9375 45.328125 C 303.351562 47.117188 304.792969 48.523438 306.996094 48.699219 C 309.144531 48.859375 310.609375 47.566406 312.128906 46.0625 Z M 312.128906 46.0625 "/><path style=" stroke:none;fill-rule:nonzero;fill:#000000;fill-opacity:1;" d="M 315.96875 32.726562 C 313.828125 32.5625 312.375 31.257812 310.585938 31.492188 C 310.175781 31.542969 309.714844 31.234375 309.742188 30.773438 C 309.777344 30.125 310.1875 29.726562 310.871094 29.664062 C 313.058594 29.503906 314.6875 30.335938 315.96875 32.726562 Z M 315.96875 32.726562 "/><path style=" stroke:none;fill-rule:nonzero;fill:#000000;fill-opacity:1;" d="M 310.871094 35.984375 C 311.035156 35.375 310.523438 34.242188 311.679688 34.355469 C 312.613281 34.441406 312.699219 35.460938 312.648438 36.296875 C 312.613281 37.015625 312.625 38.039062 311.730469 37.976562 C 310.597656 37.902344 311.007812 36.742188 310.871094 35.984375 Z M 310.871094 35.984375 "/><path style=" stroke:none;fill-rule:nonzero;fill:#000000;fill-opacity:1;" d="M 111.042969 52.167969 C 112.375 49.085938 113.9375 48.535156 116.796875 50.03125 C 115.046875 51.261719 113.21875 51.796875 111.042969 52.167969 Z M 111.042969 52.167969 "/><path style=" stroke:none;fill-rule:nonzero;fill:#000000;fill-opacity:1;" d="M 114.363281 55.515625 C 114.386719 54.667969 114.164062 53.601562 115.292969 53.539062 C 115.964844 53.5 116.25 54.308594 116.1875 55.042969 C 116.125 55.863281 116.175781 56.957031 115.242188 57.09375 C 114.199219 57.257812 114.425781 56.164062 114.363281 55.515625 Z M 114.363281 55.515625 "/><path style=" stroke:none;fill-rule:nonzero;fill:#000000;fill-opacity:1;" d="M 169.839844 276.972656 C 173.109375 275.28125 175.667969 277.382812 178.191406 278.652344 C 181.175781 280.167969 184.019531 282.011719 187.175781 283.578125 C 185.835938 284.175781 184.867188 283.542969 183.921875 283.03125 C 181.460938 281.6875 179.0625 280.207031 176.5625 278.949219 C 174.464844 277.894531 172.324219 276.8125 169.839844 276.972656 Z M 169.839844 276.972656 "/><path style=" stroke:none;fill-rule:nonzero;fill:#000000;fill-opacity:1;" d="M 142.734375 282.136719 C 137.988281 280.804688 134.816406 276.351562 129.910156 275.34375 C 135.402344 275.207031 138.496094 279.808594 142.734375 282.136719 Z M 142.734375 282.136719 "/><path style=" stroke:none;fill-rule:nonzero;fill:#000000;fill-opacity:1;" d="M 293.769531 118.535156 C 292.378906 116.285156 291.210938 114.371094 289.992188 112.390625 C 292.875 113.472656 293.746094 114.816406 293.769531 118.535156 Z M 293.769531 118.535156 "/><path style=" stroke:none;fill-rule:nonzero;fill:#000000;fill-opacity:1;" d="M 124.230469 287.945312 C 128.890625 287.945312 133.550781 287.945312 138.210938 287.945312 C 133.574219 288.890625 128.925781 288.914062 124.230469 287.945312 Z M 124.230469 287.945312 "/><path style=" stroke:none;fill-rule:nonzero;fill:#000000;fill-opacity:1;" d="M 179.78125 289.8125 C 176.042969 290.507812 172.375 290.195312 168.710938 289.613281 C 172.414062 288.988281 176.117188 289.511719 179.78125 289.8125 Z M 179.78125 289.8125 "/><path style=" stroke:none;fill-rule:nonzero;fill:#000000;fill-opacity:1;" d="M 231.582031 138.902344 C 228.945312 140.230469 226.199219 139.511719 223.503906 139.695312 C 223.492188 139.460938 223.480469 139.210938 223.464844 138.976562 C 226.152344 138.976562 228.835938 138.976562 231.53125 138.964844 C 231.542969 138.949219 231.582031 138.902344 231.582031 138.902344 Z M 231.582031 138.902344 "/><path style=" stroke:none;fill-rule:nonzero;fill:#000000;fill-opacity:1;" d="M 89.394531 273.117188 L 89.605469 273.886719 C 89.542969 273.625 89.492188 273.351562 89.394531 273.117188 Z M 89.394531 273.117188 L 89.605469 273.886719 C 89.542969 273.625 89.492188 273.351562 89.394531 273.117188 Z M 89.394531 273.117188 "/><g clip-rule="nonzero" clip-path="url(#dce3ef5867)"><path style=" stroke:none;fill-rule:nonzero;fill:#000000;fill-opacity:1;" d="M 373.90625 148.480469 C 373.136719 144.0625 373.65625 142.359375 360.882812 142.359375 C 361.128906 138.019531 359.179688 134.347656 361.304688 133.117188 C 363.429688 131.886719 375 130.429688 363.207031 79.113281 C 360.347656 73.019531 354.730469 69.957031 349.335938 66.675781 C 345.96875 64.621094 342.191406 63.054688 340.574219 58.9375 C 340.164062 57.890625 339.058594 57.234375 338.0625 56.585938 C 336.410156 55.503906 334.832031 54.273438 333.292969 53.015625 C 331.425781 51.496094 331.886719 47.863281 334.039062 46.894531 C 335.753906 46.109375 336.734375 44.730469 337.304688 43 C 339.679688 35.847656 341.941406 28.671875 343.570312 21.304688 C 344.316406 17.933594 342.773438 14.453125 339.878906 14.175781 C 336.859375 13.890625 335.058594 12.0625 332.882812 10.59375 C 327.414062 6.925781 321.027344 6.640625 314.835938 5.632812 C 313.964844 5.496094 313.121094 5.753906 312.460938 6.253906 C 309.59375 8.394531 306.632812 8.417969 303.289062 7.371094 C 299.921875 6.316406 297.277344 8.207031 296.332031 11.589844 C 295.636719 14.101562 296.007812 16.554688 297.414062 18.480469 C 299.027344 20.671875 298.929688 22.625 297.972656 24.851562 C 297.847656 25.148438 297.898438 25.511719 297.859375 25.832031 C 297.050781 33.957031 296.640625 42.105469 297.375 50.265625 C 297.824219 55.179688 300.730469 57.890625 305.664062 58.238281 C 306.335938 58.289062 306.996094 58.316406 307.664062 58.316406 C 308.660156 58.328125 309.417969 58.589844 309.628906 59.746094 C 309.804688 60.742188 310.101562 61.636719 309.105469 62.457031 C 306.871094 64.3125 304.871094 66.476562 302.484375 68.117188 C 297.5 71.527344 295.238281 76.390625 294.390625 82.113281 C 293.199219 90.222656 292.082031 98.347656 290.914062 106.46875 C 290.824219 107.078125 291.097656 107.824219 290.242188 108.175781 C 288.402344 108.933594 284.425781 107.167969 283.855469 105.1875 C 282.3125 99.863281 280.882812 94.515625 279.316406 89.214844 C 277.476562 82.984375 275.527344 81.339844 269.0625 81.277344 C 261.160156 81.203125 253.242188 81.203125 245.363281 81.601562 C 237.1875 82.011719 228.984375 81.550781 220.832031 82.660156 C 216.394531 83.257812 214.582031 85.296875 215.734375 89.625 C 216.035156 90.746094 216.382812 91.851562 216.742188 92.949219 C 219.636719 101.679688 222.507812 110.425781 225.515625 119.121094 C 226.136719 120.9375 225.679688 121.460938 223.9375 121.558594 C 220.125 121.757812 216.308594 121.996094 212.492188 122.269531 C 208.691406 122.542969 204.898438 122.867188 201.171875 123.699219 C 199.382812 124.097656 198.820312 125.265625 199.640625 126.574219 C 200.761719 128.351562 200.113281 130.117188 200.300781 131.898438 C 200.414062 132.992188 199.964844 133.289062 198.910156 133.367188 C 196.335938 133.5625 193.800781 133.9375 191.242188 134.234375 C 190.507812 134.324219 189.625 134.273438 189.488281 135.257812 C 189.351562 136.238281 190.097656 136.660156 190.878906 137.074219 C 192.535156 137.941406 193.054688 140.019531 191.949219 141.363281 C 191.128906 142.359375 190.074219 142.882812 188.691406 142.882812 C 180.527344 142.90625 172.375 142.992188 164.222656 143.082031 C 159.140625 143.128906 154.070312 143.179688 148.984375 143.316406 C 146.191406 143.390625 144.824219 144.835938 144.585938 147.660156 C 144.375 150.269531 145.46875 151.628906 147.816406 152.484375 C 149.308594 153.03125 151.507812 151.726562 152.242188 153.605469 C 152.8125 155.0625 152.417969 156.890625 152.441406 158.570312 C 152.453125 159.390625 152.453125 160.210938 152.453125 161.09375 C 147.890625 159.824219 143.46875 159.515625 138.945312 160.222656 C 137.6875 160.421875 136.359375 160.78125 135.03125 160.25 C 129.164062 157.910156 123.285156 155.632812 117.429688 153.28125 C 116.734375 153.007812 115.765625 153.019531 115.46875 151.964844 C 122.230469 147.261719 128.589844 142.074219 134.308594 136.140625 C 136.609375 133.738281 139.082031 131.488281 141.167969 128.925781 C 142.859375 126.859375 144.761719 125.242188 147.371094 124.992188 C 150.578125 124.667969 153.695312 124.011719 156.777344 123.1875 C 163.167969 121.496094 169.679688 119.855469 175.246094 116.1875 C 179.808594 113.175781 180.628906 113.773438 179.445312 107.464844 C 178.875 104.417969 178.128906 103.769531 175.160156 103.796875 C 171.382812 103.832031 167.863281 105.113281 164.261719 105.984375 C 161.6875 106.59375 159.164062 107.292969 156.503906 107.292969 C 155.484375 107.292969 154.316406 107.066406 153.957031 106.148438 C 153.507812 104.953125 154.914062 104.777344 155.585938 104.316406 C 157.4375 103.050781 158.765625 101.433594 159.511719 99.304688 C 159.960938 97.984375 160.195312 96.65625 159.140625 95.546875 C 158.09375 94.429688 156.691406 94.539062 155.4375 95.074219 C 148.773438 97.886719 144.003906 102.8125 140.296875 108.882812 C 139.828125 109.65625 139.640625 110.664062 139.042969 111.296875 C 136.234375 114.207031 132.855469 116.472656 129.425781 118.535156 C 122.949219 122.429688 116.300781 126.039062 109.703125 129.71875 C 108.855469 130.191406 108.085938 131.289062 106.84375 130.316406 C 105.648438 129.382812 105.402344 128.300781 105.664062 126.835938 C 107.378906 116.71875 108.171875 106.558594 106.832031 96.332031 C 106.132812 90.996094 105.625 85.871094 108.160156 80.632812 C 109.328125 78.207031 110.0625 77.90625 112.335938 78.417969 C 116.972656 79.476562 120.5 77.347656 122.042969 72.855469 C 122.777344 70.730469 123.308594 68.527344 123.296875 66.277344 C 123.273438 64.757812 123.507812 63.613281 125.011719 62.816406 C 126.480469 62.035156 126.230469 60.605469 125.707031 59.296875 C 125.210938 58.066406 124.378906 56.859375 124.550781 55.527344 C 124.9375 52.53125 124.8125 49.53125 124.851562 46.535156 C 124.863281 45.988281 124.789062 45.539062 125.507812 45.128906 C 129.5 42.902344 129.5625 40.773438 125.820312 38.011719 C 127.859375 36.558594 128.828125 34.652344 128.355469 32.089844 C 127.945312 29.890625 126.21875 28.671875 124.492188 28.871094 C 120.863281 29.304688 119.953125 27.140625 119.109375 24.503906 C 118.8125 23.558594 118.4375 22.625 117.929688 21.789062 C 116.597656 19.625 117.246094 18.296875 119.359375 17.050781 C 122.640625 15.121094 125.808594 12.972656 128.753906 10.519531 C 129.410156 9.960938 130.15625 9.339844 129.796875 8.441406 C 129.398438 7.460938 128.417969 7.757812 127.597656 7.882812 C 126.691406 8.03125 125.757812 8.042969 124.886719 8.28125 C 110.148438 12.210938 95.535156 16.441406 82.472656 24.75 C 75.113281 29.441406 67.894531 34.316406 61.132812 39.867188 C 60.398438 40.464844 59.070312 40.984375 59.804688 42.402344 C 60.449219 43.671875 61.554688 43.4375 62.613281 43.113281 C 65.222656 42.316406 67.855469 41.59375 70.390625 40.613281 C 71.660156 40.113281 71.894531 40.339844 72.042969 41.582031 C 72.355469 44.457031 72.378906 47.21875 72.019531 50.152344 C 71.1875 56.945312 70.390625 63.863281 73.363281 70.542969 C 73.808594 70.519531 74.207031 69.421875 75.066406 70.019531 C 75.5 70.320312 75.945312 70.230469 75.859375 69.636719 C 75.648438 68.230469 76.628906 67.121094 76.753906 65.914062 C 77.328125 60.46875 76.605469 55.019531 75.226562 49.816406 C 74.53125 47.15625 74.121094 44.542969 73.636719 41.894531 C 73.214844 39.503906 74.816406 39.269531 76.246094 38.773438 C 77.921875 38.1875 77.859375 39.816406 78.246094 40.648438 C 78.78125 41.84375 79.078125 43.148438 79.425781 44.417969 C 80.855469 49.59375 81.539062 54.96875 83.390625 60.042969 C 84.175781 62.195312 85.132812 64.1875 87.03125 65.566406 C 87.828125 66.152344 89.507812 65.765625 89.070312 67.695312 C 88.808594 68.851562 88.574219 69.871094 87.703125 70.792969 C 85.28125 73.355469 82.535156 75.382812 79.425781 77.085938 C 73.25 80.445312 67.558594 84.476562 63.171875 90.113281 C 51.414062 105.175781 46.628906 122.816406 44.46875 141.375 C 43.847656 146.738281 43.808594 152.148438 43.695312 157.546875 C 43.460938 167.738281 44.28125 177.761719 46.628906 187.664062 C 46.839844 188.550781 46.804688 189.71875 47.773438 190.425781 C 51.140625 192.867188 52.136719 197.308594 55.777344 199.570312 C 49.191406 199.882812 42.851562 199.71875 36.289062 200.355469 C 37.320312 196.085938 38.167969 192.132812 39.246094 188.238281 C 41.035156 181.832031 42.617188 175.414062 42.515625 168.695312 C 42.390625 161.132812 42.09375 153.59375 40.863281 146.105469 C 38.910156 134.148438 35.097656 122.929688 28.324219 112.8125 C 27.417969 111.457031 26.210938 110.339844 24.832031 109.457031 C 24.832031 109.457031 24.820312 109.441406 24.792969 109.429688 C 24.273438 109.082031 18.628906 105.4375 12.761719 107.863281 L 12.75 107.863281 C 9.78125 108.386719 7.121094 110.414062 6.164062 113.039062 C 5.355469 115.277344 4.722656 117.503906 2.984375 119.308594 C 2.089844 120.242188 1.953125 121.683594 1.925781 123.050781 C 1.839844 126.113281 3.34375 128.652344 4.609375 131.25 C 6.324219 134.757812 8.476562 138.054688 9.832031 141.738281 C 9.832031 141.738281 9.84375 141.761719 9.855469 141.800781 C 9.878906 141.863281 9.90625 141.925781 9.917969 141.984375 C 9.953125 142.085938 9.992188 142.183594 10.03125 142.285156 C 10.054688 142.347656 10.078125 142.410156 10.089844 142.472656 C 10.140625 142.609375 10.191406 142.757812 10.253906 142.933594 C 10.265625 142.957031 10.265625 142.96875 10.277344 142.992188 C 10.304688 143.070312 10.328125 143.144531 10.351562 143.21875 C 11.035156 145.234375 12.253906 149.003906 13.113281 152.597656 C 15.210938 160.734375 16.355469 168.757812 17.660156 176.742188 C 18.941406 184.492188 20.144531 192.257812 21.761719 199.945312 C 22.011719 201.101562 21.464844 201.625 20.40625 201.871094 C 17.910156 202.457031 15.921875 201.734375 14.800781 199.894531 C 14.800781 199.894531 10.789062 198.910156 7.65625 200.367188 C 7.65625 200.367188 3.976562 200.863281 4.015625 206.375 L 4.015625 206.585938 L 4.027344 206.601562 C 4 208.664062 4.957031 210.332031 7.070312 211.875 C 7.828125 212.421875 8.613281 212.929688 9.371094 213.453125 C 9.371094 213.453125 9.371094 213.453125 9.382812 213.464844 C 9.667969 213.566406 16.515625 216.078125 16.652344 222.921875 C 17.460938 228.234375 16.554688 233.421875 14.578125 238.71875 L 12.550781 247.191406 C 12.566406 247.339844 12.527344 247.527344 12.429688 247.75 C 11.011719 251.183594 10.363281 254.816406 9.457031 258.386719 C 8.277344 263.101562 7.007812 267.816406 5.953125 272.554688 C 5.855469 272.953125 5.480469 273.550781 5.429688 274.085938 L 5.429688 274.097656 L 3.15625 284.027344 C 2.894531 284.910156 2.621094 285.792969 2.386719 286.6875 C 2.050781 287.917969 1.789062 288.742188 1.417969 289.300781 C 1.269531 289.660156 0 293.019531 4.175781 293.292969 C 4.1875 293.304688 4.199219 293.304688 4.214844 293.304688 C 4.472656 293.304688 4.746094 293.320312 5.007812 293.320312 C 6.050781 293.332031 7.109375 293.304688 8.152344 293.292969 L 8.164062 293.28125 C 8.253906 293.28125 11.507812 293.257812 12.429688 289.238281 L 12.429688 289.226562 C 12.441406 289.164062 12.453125 289.089844 12.464844 289.015625 C 13.1875 286.054688 13.808594 283.082031 14.464844 280.09375 C 14.617188 279.398438 14.851562 279.101562 15.785156 279.148438 C 19.4375 279.335938 23.101562 279.386719 26.757812 279.347656 C 26.871094 279.347656 26.96875 279.347656 27.082031 279.359375 L 32.488281 279.359375 C 32.660156 279.335938 32.871094 279.347656 33.058594 279.359375 L 68.800781 279.375 C 69 279.359375 69.210938 279.347656 69.433594 279.359375 C 69.746094 279.375 70.054688 279.375 70.378906 279.375 C 75.796875 279.449219 81.230469 279.398438 86.660156 279.25 C 87.714844 279.222656 88.152344 279.398438 88.351562 280.382812 C 88.921875 283.15625 89.492188 285.917969 90.113281 288.667969 C 90.140625 288.730469 90.152344 288.789062 90.164062 288.867188 C 90.203125 289.027344 90.226562 289.175781 90.226562 289.300781 C 90.226562 289.300781 90.226562 289.300781 90.226562 289.3125 C 90.476562 290.445312 91.308594 292.746094 93.84375 293.246094 C 93.84375 293.246094 93.84375 293.246094 93.855469 293.257812 L 93.867188 293.257812 C 93.867188 293.257812 93.878906 293.246094 93.894531 293.257812 C 94.414062 293.320312 100.890625 294.039062 100.777344 288.679688 C 100.714844 288.503906 100.667969 288.304688 100.628906 288.09375 C 95.992188 266.484375 91.507812 244.851562 86.210938 223.394531 C 85.765625 221.550781 85.21875 219.75 84.785156 217.894531 C 84.460938 216.527344 84.558594 215.753906 86.472656 215.632812 C 89.929688 215.417969 93.433594 215.269531 96.8125 214.25 C 100.082031 213.265625 102.183594 211.175781 102.59375 207.804688 C 102.941406 204.933594 101.1875 203.03125 98.367188 201.289062 C 106.992188 201.089844 114.933594 199.796875 122.9375 199.199219 C 124.578125 199.074219 125 199.472656 124.726562 201.050781 C 121.957031 217.398438 119.28125 233.769531 115.851562 250.003906 C 115.503906 251.695312 114.449219 253.125 114.199219 254.917969 C 113.925781 256.882812 113.617188 258.5 115.257812 260.179688 C 116.550781 261.496094 115.269531 265.066406 113.15625 265.8125 C 110.371094 266.796875 109.839844 268.960938 109.316406 271.351562 C 108.160156 276.648438 107.960938 282.035156 107.863281 287.449219 C 107.847656 287.796875 107.875 288.15625 107.835938 288.515625 C 107.835938 288.554688 107.835938 288.605469 107.824219 288.640625 C 107.835938 288.652344 107.824219 288.652344 107.824219 288.667969 C 107.824219 288.703125 107.8125 288.765625 107.8125 288.867188 C 107.800781 288.914062 107.800781 288.953125 107.789062 289.003906 L 107.789062 289.027344 C 107.773438 290.148438 108.121094 292.808594 111.851562 292.945312 L 111.875 292.945312 C 112.621094 292.933594 113.367188 292.921875 114.113281 292.921875 C 114.484375 292.910156 114.871094 292.910156 115.242188 292.910156 C 133.214844 292.984375 151.171875 292.386719 169.132812 293.953125 C 178.191406 294.738281 187.324219 294.785156 196.421875 293.902344 C 197.605469 293.792969 198.773438 293.605469 199.953125 293.417969 L 199.964844 293.417969 C 201.964844 293.109375 203.96875 292.796875 206.03125 292.820312 C 214.691406 292.921875 223.355469 292.859375 232.015625 292.871094 C 253.652344 292.894531 275.289062 292.933594 296.941406 292.957031 C 306.085938 292.96875 315.222656 292.832031 324.367188 293.070312 C 331.972656 293.269531 339.59375 292.996094 347.199219 292.96875 C 350.316406 292.957031 353.425781 293.03125 356.53125 293.058594 C 356.90625 293.070312 357.265625 293.070312 357.636719 293.070312 L 357.664062 293.070312 C 360.199219 293.007812 366.0625 292.300781 365.839844 287.074219 C 365.554688 280.542969 365.804688 266.660156 365.804688 266.660156 L 365.804688 266.648438 C 365.851562 255.710938 365.828125 244.765625 365.828125 233.832031 C 365.828125 227.660156 365.804688 221.503906 365.828125 215.332031 L 365.804688 153.429688 C 365.789062 153.429688 374.675781 152.894531 373.90625 148.480469 Z M 70.902344 37.652344 C 69.78125 38.273438 68.640625 38.808594 67.210938 39.070312 C 67.730469 37.488281 69.113281 37.09375 70.070312 36.269531 C 70.367188 36.011719 70.890625 35.449219 71.25 36.148438 C 71.535156 36.632812 71.511719 37.304688 70.902344 37.652344 Z M 341.183594 72.871094 C 341.269531 70.382812 341.132812 67.882812 341.917969 65.105469 C 347.074219 68.765625 352.953125 71.117188 357.550781 75.480469 C 361.402344 79.140625 362.472656 84.054688 363.28125 88.96875 C 365.058594 99.890625 365.851562 110.886719 365.269531 121.957031 C 364.984375 127.429688 362.1875 130.890625 357.339844 132.953125 C 350.714844 135.765625 343.605469 136.511719 336.621094 137.769531 C 334.746094 138.105469 332.84375 138.265625 330.992188 138.652344 C 328.121094 139.238281 325.261719 138.628906 322.40625 138.777344 C 321.347656 138.828125 321.25 138.203125 321.1875 137.359375 C 320.863281 132.980469 320.265625 128.636719 318.117188 124.695312 C 317.535156 123.648438 318.082031 123.339844 318.949219 123.203125 C 328.332031 121.722656 337.355469 118.425781 346.824219 117.367188 C 348.417969 117.191406 349.882812 118.125 351.722656 117.515625 C 349.871094 115.5625 347.507812 115.960938 345.085938 115.550781 C 346.777344 113.996094 348.691406 114.15625 350.53125 113.636719 C 349.300781 112.765625 348.042969 112.875 346.914062 113.125 C 345.308594 113.484375 344.738281 113.210938 344.75 111.394531 C 344.8125 103.234375 344.636719 95.074219 344.738281 86.925781 C 344.773438 83.964844 346.140625 81.265625 347.535156 78.652344 C 345.484375 80.855469 344.550781 83.554688 344.078125 86.417969 C 343.285156 91.230469 342.824219 96.070312 342.824219 100.972656 C 342.824219 104.617188 342.648438 108.285156 342.339844 111.917969 C 342.164062 114.144531 340.933594 115.726562 338.609375 116.273438 C 330.917969 118.0625 323.238281 119.90625 315.53125 121.648438 C 314.4375 121.894531 313.59375 122.207031 313.308594 120.03125 C 312.625 114.855469 315.058594 111.285156 318.09375 107.789062 C 320.800781 104.667969 323.136719 101.269531 325.5625 97.574219 C 326.246094 99.292969 325.339844 100.574219 325.363281 101.917969 C 325.425781 105.078125 327.425781 107.550781 330.273438 107.652344 C 333.777344 107.765625 335.988281 105.847656 336.226562 102.578125 C 336.398438 100.089844 336.722656 97.613281 336.722656 95.101562 C 336.722656 93.84375 336.4375 93.308594 335.105469 93.234375 C 333.566406 93.148438 332.023438 92.8125 330.222656 92.550781 C 331.652344 90.308594 333.367188 88.519531 335.167969 86.878906 C 337.058594 85.160156 337.304688 83.417969 336.226562 81.214844 C 335.578125 79.898438 335.207031 78.453125 334.734375 77.0625 C 334.222656 75.542969 334.945312 75.28125 336.226562 75.65625 C 336.621094 75.769531 336.984375 75.992188 337.378906 76.066406 C 340.375 76.539062 341.070312 75.96875 341.183594 72.871094 Z M 359.03125 141.476562 C 358.746094 142.445312 358.371094 142.820312 357.351562 142.808594 C 347.695312 142.78125 338.039062 142.808594 328.382812 142.808594 C 328.234375 142.808594 328.070312 142.695312 327.550781 142.484375 C 329.054688 140.855469 330.90625 140.980469 332.496094 140.71875 C 340.886719 139.375 349.386719 138.539062 357.4375 135.554688 C 357.949219 135.367188 358.707031 134.859375 358.730469 135.851562 C 358.78125 137.730469 359.589844 139.546875 359.03125 141.476562 Z M 291.484375 125.054688 C 290.601562 125.402344 289.992188 125.390625 289.609375 124.246094 C 289.222656 123.101562 289.71875 122.777344 290.601562 122.457031 C 292.828125 121.648438 295.101562 121.375 297.425781 121.871094 C 302.148438 122.902344 306.433594 125.128906 310.882812 126.898438 C 312.660156 127.605469 314.277344 133.425781 313.371094 135.21875 C 312.886719 136.164062 311.929688 135.890625 311.171875 135.976562 C 307.652344 136.363281 304.507812 134.859375 301.363281 133.699219 C 298.765625 132.730469 296.257812 132.394531 293.648438 133.066406 C 292.390625 133.390625 292.28125 132.71875 291.957031 131.933594 C 291.472656 130.753906 292.34375 130.789062 293.0625 130.578125 C 294.304688 130.230469 295.511719 129.78125 297.226562 129.222656 C 295.597656 128.652344 294.492188 128.863281 293.3125 129.0625 C 292.464844 129.199219 291.308594 130.367188 290.726562 128.550781 C 290.117188 126.621094 291.582031 126.585938 292.703125 126.273438 C 293.496094 126.050781 294.34375 126.027344 295.113281 124.882812 C 293.734375 124.832031 292.601562 124.621094 291.484375 125.054688 Z M 317.609375 138.8125 C 316.226562 138.863281 316.289062 137.980469 316.117188 137.058594 C 315.445312 133.425781 315.59375 129.621094 313.769531 126.226562 C 313.433594 125.578125 313.679688 124.832031 314.664062 124.507812 C 315.78125 124.136719 316.003906 125.019531 316.277344 125.578125 C 318.03125 129.125 318.464844 132.980469 318.800781 136.847656 C 318.714844 137.695312 319.125 138.765625 317.609375 138.8125 Z M 307.179688 138.128906 C 304.570312 137.992188 301.710938 139.199219 299.539062 136.75 C 298.792969 135.902344 298.234375 136.574219 297.871094 137.320312 C 296.941406 139.222656 295.347656 137.746094 294.09375 137.980469 C 292.964844 138.191406 293.136719 136.675781 292.8125 135.914062 C 292.539062 135.269531 292.664062 134.757812 293.769531 134.820312 C 298.445312 135.082031 302.769531 136.75 307.179688 138.128906 Z M 321.648438 141.214844 C 322.566406 141.253906 323.460938 141.289062 324.15625 142.023438 C 323.375 143.15625 322.195312 142.78125 321.164062 142.746094 C 301.105469 142.148438 281.03125 142.136719 260.972656 142.433594 C 259.46875 142.457031 257.980469 142.632812 256.488281 142.671875 C 255.902344 142.683594 255.046875 142.96875 255.183594 141.789062 C 255.28125 140.953125 255.679688 140.667969 256.488281 140.667969 C 260.066406 140.628906 263.644531 140.566406 267.226562 140.46875 C 285.382812 139.984375 303.515625 140.429688 321.648438 141.214844 Z M 314.253906 79.1875 C 313.617188 81.578125 312.8125 83.902344 312.050781 86.253906 C 311.804688 87.027344 311.46875 87.761719 311.171875 88.519531 C 310.871094 85.109375 310.386719 81.738281 310.289062 78.34375 C 310.261719 77.597656 309.355469 76.117188 310.996094 76.03125 C 312.871094 75.941406 314.625 77.746094 314.253906 79.1875 Z M 311.53125 65.082031 C 315.632812 69.136719 315.632812 69.136719 312.050781 74.136719 C 311.132812 72.359375 310.921875 69 311.53125 65.082031 Z M 327.226562 99.03125 C 327.191406 97.585938 327.8125 97.054688 329.242188 97.4375 C 329.875 97.613281 330.632812 97.449219 331.203125 97.710938 C 332.410156 98.273438 334.472656 97.101562 334.832031 99.242188 C 335.355469 102.328125 333.976562 105.226562 331.886719 105.972656 C 329.105469 106.96875 327.015625 104.789062 327.226562 101.019531 C 327.226562 100.363281 327.25 99.691406 327.226562 99.03125 Z M 327.339844 95.160156 C 327.476562 94.503906 327.933594 94.253906 328.644531 94.367188 C 330.257812 94.628906 331.886719 94.875 333.515625 95.074219 C 334.238281 95.160156 335.167969 94.976562 335.019531 96.144531 C 334.882812 97.191406 333.976562 96.628906 333.417969 96.765625 C 333.191406 96.816406 332.917969 96.730469 332.671875 96.703125 C 331.140625 96.941406 329.75 96.195312 328.269531 96.082031 C 327.796875 96.058594 327.214844 95.820312 327.339844 95.160156 Z M 336.773438 58.726562 C 337.515625 58.6875 337.953125 59.519531 338.398438 60.117188 C 340.113281 62.40625 339.828125 65.15625 339.78125 67.707031 C 339.742188 69.3125 339.417969 70.980469 339.382812 72.621094 C 339.332031 74.113281 338.671875 74.425781 337.292969 74.113281 C 333.355469 73.230469 332.324219 74.226562 333.007812 78.132812 C 333.03125 78.292969 333.105469 78.457031 333.191406 78.59375 C 335.714844 82.808594 333.8125 85.746094 330.769531 88.828125 C 325.625 94.03125 321.769531 100.3125 317.183594 105.984375 C 316.6875 106.59375 316.316406 107.367188 315.148438 107.652344 C 316.738281 102.914062 319 98.683594 321.0625 94.367188 C 324.878906 86.367188 328.679688 78.367188 332.445312 70.34375 C 333.925781 67.195312 334.957031 63.886719 335.839844 60.515625 C 335.976562 59.917969 335.839844 58.773438 336.773438 58.726562 Z M 320.464844 79.710938 C 320.703125 78.714844 320.949219 78.167969 322.15625 78.132812 C 324.691406 78.058594 325.597656 75.457031 328.132812 73.976562 C 325.414062 80.023438 322.976562 85.398438 320.503906 90.882812 C 319.507812 87.101562 319.597656 83.429688 320.464844 79.710938 Z M 332.929688 56.238281 C 333.800781 56.398438 333.886719 57.246094 333.828125 58.027344 C 333.21875 65.378906 329.453125 70.878906 323.785156 75.296875 C 322.714844 76.140625 322.554688 75.222656 322.292969 74.535156 C 321.597656 72.671875 320.863281 70.84375 319.261719 69.199219 C 322.976562 67.332031 326.121094 65.21875 328.71875 62.359375 C 330.0625 60.863281 331.140625 59.222656 332.109375 57.480469 C 332.335938 57.046875 332.035156 56.050781 332.929688 56.238281 Z M 306.84375 55.753906 C 302.109375 55.304688 299.949219 53.214844 299.75 48.300781 C 299.660156 46.160156 299.738281 44.007812 299.738281 41.707031 C 300.878906 42.21875 301.710938 43.5 303.230469 43.5 C 304.632812 43.511719 305.949219 43.523438 307.441406 42.429688 C 305.566406 41.980469 303.578125 42.328125 302.621094 40.949219 C 301.625 39.53125 303.464844 38.050781 303.230469 36.457031 C 303.054688 35.25 304.71875 33.359375 303.066406 32.960938 C 301.066406 32.488281 302.160156 34.902344 301.648438 35.933594 C 301.027344 37.203125 300.992188 38.757812 299.910156 40.113281 C 299.910156 36.941406 299.824219 33.933594 299.949219 30.933594 C 300.011719 29.429688 302.273438 30.648438 302.410156 29.453125 C 302.570312 28.0625 300.234375 29.417969 300.207031 27.847656 C 300.183594 25.894531 300.59375 24.054688 301.574219 22.363281 C 301.726562 22.101562 302.058594 21.703125 302.257812 21.730469 C 304.695312 22.039062 307.515625 21.742188 309.46875 22.898438 C 315.148438 26.246094 318.21875 26.417969 325.226562 25.273438 C 325.648438 27.761719 325.050781 30.226562 325.039062 32.699219 C 325.027344 34.03125 324.988281 35.375 325.175781 36.679688 C 325.3125 37.703125 324.566406 39.304688 326.320312 39.554688 C 327.933594 39.765625 329.664062 39.792969 330.53125 37.902344 C 331.265625 36.296875 332.507812 35.511719 334.125 36.285156 C 335.726562 37.054688 336.125 38.648438 335.765625 40.351562 C 335.09375 43.449219 333.640625 44.667969 329.378906 44.964844 C 327.785156 45.078125 327.375 45.75 326.890625 46.957031 C 326.160156 48.796875 325.203125 50.550781 324.367188 52.34375 C 324.09375 52.941406 323.039062 53.585938 323.894531 54.171875 C 324.742188 54.757812 325.066406 53.5 325.5 53.039062 C 326.382812 52.105469 327.449219 51.347656 327.835938 49.894531 C 328.160156 48.671875 328.085938 47.21875 329.652344 45.8125 C 329.5625 50.703125 331.042969 55.328125 328.109375 59.382812 C 325.808594 62.570312 322.765625 65.007812 319.160156 66.710938 C 318.09375 67.222656 317.273438 67.109375 316.441406 66.4375 C 314.078125 64.546875 312.75 62.046875 312.089844 59.097656 C 311.828125 57.929688 312.574219 57.644531 313.28125 57.257812 C 314.613281 56.5625 315.90625 55.863281 316.613281 53.539062 C 313.222656 55.664062 310.140625 56.0625 306.84375 55.753906 Z M 312.597656 105.699219 C 310.535156 103.546875 308.773438 99.429688 307.21875 93.941406 C 306.222656 90.460938 305.429688 86.914062 303.875 83.617188 C 303.402344 82.621094 303.378906 81.652344 304.023438 80.605469 C 305.441406 78.292969 306.707031 75.890625 308.25 73.15625 C 307.691406 84.375 308.683594 95 312.597656 105.699219 Z M 305.253906 70.457031 C 306.335938 69.148438 307.40625 67.832031 308.660156 66.289062 C 309.257812 68.402344 308.511719 70.046875 308.375 71.75 C 308.324219 72.519531 307.863281 72.65625 307.230469 72.71875 C 306.285156 72.792969 305.367188 72.597656 304.757812 71.910156 C 304.273438 71.363281 304.882812 70.890625 305.253906 70.457031 Z M 300.070312 76.503906 C 299.960938 74.960938 300.941406 73.542969 302.035156 72.359375 C 302.121094 72.472656 302.199219 72.644531 302.320312 72.71875 C 305.316406 74.699219 304.683594 76.777344 302.683594 79.113281 C 300.941406 81.15625 301.277344 83.292969 302.359375 85.734375 C 304.894531 91.480469 306.3125 97.726562 309.515625 103.148438 C 311.742188 106.90625 314.328125 110.066406 311.503906 114.867188 C 310.460938 116.644531 311.394531 119.582031 311.457031 121.996094 C 311.503906 123.886719 310.933594 124.667969 308.96875 123.6875 C 307.355469 122.878906 305.691406 122.042969 303.960938 121.546875 C 302.011719 120.988281 301.390625 119.644531 301.265625 117.914062 C 300.496094 107.738281 299.699219 97.574219 299.75 87.351562 C 299.773438 83.742188 300.320312 80.148438 300.070312 76.503906 Z M 287.382812 110.300781 C 289.046875 110.738281 291.0625 112.105469 292.265625 110.898438 C 293.273438 109.902344 293.113281 107.664062 293.359375 105.972656 C 294.503906 98.296875 295.609375 90.609375 296.753906 82.933594 C 296.914062 81.8125 297.203125 80.71875 297.425781 79.613281 C 297.882812 84.027344 297.226562 88.40625 297.449219 92.824219 C 297.824219 100.1875 297.933594 107.550781 298.828125 114.878906 C 298.867188 115.128906 298.839844 115.378906 298.855469 115.625 C 298.992188 119.296875 298.992188 119.308594 295.375 119.296875 C 293.710938 119.285156 292.054688 119.269531 290.515625 120.054688 C 289.359375 120.640625 288.714844 120.203125 288.265625 119.007812 C 287.40625 116.683594 286.722656 114.308594 286.027344 111.929688 C 285.59375 110.414062 286.066406 109.953125 287.382812 110.300781 Z M 276.746094 89.316406 C 280.101562 101.257812 283.667969 113.136719 287.421875 124.957031 C 288.675781 128.9375 289.71875 132.980469 290.8125 137.011719 C 290.925781 137.410156 291.472656 138.019531 290.824219 138.316406 C 290.128906 138.640625 289.894531 138.019531 289.621094 137.445312 C 287.742188 133.488281 287.011719 129.199219 285.78125 125.042969 C 282.273438 113.261719 278.769531 101.46875 275.214844 89.699219 C 274.730469 88.082031 273.949219 86.542969 273.140625 84.574219 C 275.066406 85.980469 276.222656 87.449219 276.746094 89.316406 Z M 218.347656 89.363281 C 217.464844 86.601562 218.582031 85.371094 221.515625 85.121094 C 229.480469 84.453125 237.460938 84.550781 245.4375 84.425781 C 251.753906 84.328125 258.066406 84.277344 264.367188 84.128906 C 269.574219 84.003906 272.222656 85.65625 273.835938 90.734375 C 275.972656 97.476562 277.886719 104.292969 279.875 111.074219 C 282.324219 119.40625 284.722656 127.753906 287.195312 136.089844 C 287.667969 137.667969 287.71875 138.390625 285.59375 138.304688 C 280.859375 138.105469 276.109375 138.242188 271.363281 138.242188 L 271.363281 138.316406 C 266.703125 138.316406 262.03125 138.21875 257.371094 138.367188 C 255.804688 138.414062 255.230469 137.867188 254.785156 136.488281 C 254.101562 134.324219 253.34375 132.34375 254.015625 129.882812 C 254.734375 127.195312 253.167969 125.339844 250.285156 124.71875 C 243.574219 123.277344 236.949219 121.273438 230.003906 121.160156 C 228.984375 121.148438 228.734375 120.539062 228.488281 119.832031 C 225.082031 109.691406 221.628906 99.554688 218.347656 89.363281 Z M 244.929688 128.636719 C 246.394531 129.109375 247.9375 129.359375 249.464844 129.644531 C 250.136719 129.769531 250.957031 129.683594 250.644531 130.703125 C 250.433594 131.414062 249.789062 131.238281 249.191406 131.113281 C 246.53125 130.578125 243.859375 130.082031 241.199219 129.582031 C 240.878906 129.519531 240.53125 129.546875 240.21875 129.445312 C 239.175781 129.109375 237.609375 129.992188 237.175781 129.085938 C 236.703125 128.117188 237.1875 126.671875 237.273438 125.441406 C 237.3125 124.929688 237.347656 124.445312 238.105469 124.65625 C 242.371094 125.875 246.878906 126.175781 250.945312 128.117188 C 251.117188 128.203125 251.191406 128.5 251.566406 129.125 C 248.632812 127.867188 241.746094 126.722656 238.902344 126.910156 C 240.777344 128.539062 243.015625 128.039062 244.929688 128.636719 Z M 249.550781 133.105469 C 242.828125 132.371094 236.105469 131.636719 229.394531 130.902344 C 236.378906 129.734375 243.054688 131.027344 249.550781 133.105469 Z M 242.554688 140.320312 C 239.871094 140.554688 238.03125 139.609375 236.066406 140.09375 C 235.160156 140.320312 235.285156 139.261719 235.273438 138.640625 C 235.25 137.558594 236.042969 137.757812 236.664062 137.84375 C 240.730469 138.390625 244.78125 138.976562 248.84375 139.535156 C 249.578125 139.636719 250.335938 139.671875 251.054688 139.835938 C 251.480469 139.933594 252.199219 139.945312 252.050781 140.617188 C 251.9375 141.128906 251.429688 141.191406 250.84375 141.089844 C 247.835938 140.582031 244.753906 141.015625 242.554688 140.320312 Z M 247.863281 142.457031 C 232.425781 142.734375 216.980469 142.597656 201.507812 143.117188 C 216.929688 142.285156 232.378906 140.953125 247.863281 142.457031 Z M 249.566406 138.242188 C 245.328125 137.707031 241.113281 136.921875 236.886719 136.3125 C 235.945312 136.175781 235.136719 136.039062 235.296875 134.957031 C 235.546875 133.351562 236.539062 135.515625 236.902344 134.585938 C 241.351562 135.230469 245.648438 135.816406 249.949219 136.511719 C 250.808594 136.660156 252.410156 136.636719 252.125 137.929688 C 251.851562 139.125 250.359375 138.339844 249.566406 138.242188 Z M 204.6875 125.453125 C 212.394531 125.167969 220.023438 123.972656 227.753906 123.921875 C 229.917969 123.910156 232.128906 123.550781 234.066406 124.992188 C 228.722656 125.390625 223.417969 125.15625 218.109375 125.765625 C 213.671875 126.273438 209.1875 126.535156 204.726562 126.894531 C 204.066406 126.957031 203.234375 127.132812 203.296875 126.113281 C 203.359375 125.316406 204.128906 125.476562 204.6875 125.453125 Z M 205.457031 128.152344 C 209.3125 127.828125 213.164062 127.429688 217.015625 127.21875 C 222.074219 126.957031 227.109375 126.421875 232.179688 126.648438 C 232.972656 126.683594 234.316406 126.164062 234.230469 127.628906 C 234.167969 128.847656 232.925781 128.339844 232.203125 128.390625 C 226.460938 128.789062 220.695312 128.738281 214.953125 129.222656 C 211.871094 129.535156 208.789062 129.894531 205.707031 130.105469 C 204.761719 130.167969 203.222656 131.175781 202.933594 129.71875 C 202.636719 128.152344 204.328125 128.253906 205.457031 128.152344 Z M 228.625 130.742188 C 220.308594 131.050781 212.070312 132.34375 203.753906 132.433594 C 211.996094 130.953125 220.285156 130.390625 228.625 130.742188 Z M 195.851562 135.792969 C 198.910156 135.640625 201.964844 135.566406 205.035156 135.304688 C 212.925781 134.632812 220.84375 134.25 228.75 133.738281 C 230.191406 133.640625 231.519531 133.75 232.378906 135.417969 C 220.894531 134.945312 209.734375 136.75 198.511719 137.234375 C 197.589844 137.269531 196.683594 137.269531 195.777344 137.269531 C 195.253906 137.257812 194.734375 137.160156 194.757812 136.476562 C 194.78125 135.777344 195.34375 135.828125 195.851562 135.792969 Z M 196.164062 138.828125 C 198.972656 138.613281 201.792969 138.402344 204.613281 138.304688 C 213.460938 137.992188 222.273438 136.636719 231.160156 137.269531 C 231.742188 137.308594 232.589844 136.875 232.800781 137.882812 C 233 138.902344 232.242188 138.902344 231.570312 138.9375 C 231.183594 139.421875 231.171875 140.257812 230.3125 140.257812 C 226.226562 140.269531 222.125 140.269531 218.085938 140.269531 C 219.339844 139.324219 221.15625 140.429688 222.535156 139.535156 C 221.949219 139.238281 218.320312 138.863281 218.121094 139.3125 C 217.015625 141.835938 214.914062 140.28125 213.4375 140.417969 C 207.734375 140.917969 201.992188 141.003906 196.261719 141.175781 C 195.703125 141.203125 194.644531 141.8125 194.632812 140.394531 C 194.609375 139.3125 195.253906 138.886719 196.164062 138.828125 Z M 133.613281 164.851562 C 134.269531 163.804688 135.128906 162.921875 136.285156 162.847656 C 140.558594 162.523438 144.835938 161.777344 149.121094 162.886719 C 153.335938 163.96875 154.925781 167.164062 155.734375 170.972656 C 155.933594 171.878906 156.257812 172.875 155.847656 174.042969 C 154.132812 173.011719 153.410156 171.355469 152.566406 169.800781 C 150.503906 165.996094 148.800781 165.0625 144.375 165.597656 C 143.292969 165.734375 142.5625 164.339844 141.28125 165.238281 C 143.804688 166.855469 147.097656 166.628906 149.195312 169.019531 C 144.472656 166.890625 139.402344 167.390625 134.496094 166.816406 C 132.953125 166.628906 132.878906 166.019531 133.613281 164.851562 Z M 133.984375 264.757812 C 133.710938 264.421875 133.464844 263.835938 133.949219 263.4375 C 134.160156 263.277344 134.730469 263.1875 134.832031 263.3125 C 136 264.695312 138.011719 265.277344 138.871094 267.195312 C 136.296875 267.71875 135.140625 266.1875 133.984375 264.757812 Z M 138.84375 270.878906 C 138.746094 271.960938 138.507812 273.117188 137.277344 273.328125 C 136.757812 273.425781 135.613281 273.191406 135.835938 272.171875 C 136.074219 271.039062 136.855469 270.179688 137.738281 269.71875 C 138.769531 269.71875 138.90625 270.253906 138.84375 270.878906 Z M 134.171875 259.496094 C 134.046875 260.378906 133.152344 260.441406 132.144531 260.316406 C 131.1875 259.96875 129.945312 259.867188 128.703125 259.894531 C 127.734375 259.90625 127.660156 259.371094 127.683594 258.625 C 127.722656 257.566406 128.378906 257.703125 129.0625 257.839844 C 130.28125 258.089844 131.511719 258.261719 132.691406 258.609375 C 133.238281 258.75 134.308594 258.523438 134.171875 259.496094 Z M 130.503906 267.109375 C 128.269531 268.351562 126.144531 269.78125 123.957031 271.136719 C 122.851562 271.824219 121.757812 272.308594 120.550781 271.300781 C 118.960938 269.980469 117.320312 268.726562 116.910156 266.695312 C 117.429688 264.882812 117.878906 263.289062 118.363281 261.722656 C 118.648438 260.824219 119.382812 260.6875 120.164062 260.824219 C 122.9375 261.285156 125.683594 261.871094 128.46875 262.207031 C 129.722656 262.355469 130.355469 263.078125 131.015625 263.910156 C 132.023438 265.179688 132.160156 266.1875 130.503906 267.109375 Z M 128.714844 165.1875 C 129.152344 163.804688 129.710938 162.386719 131.289062 161.953125 C 131.5 161.890625 132.730469 161.851562 132.53125 163.058594 C 131.613281 164.105469 131.871094 166.132812 130.019531 166.503906 C 129.324219 166.640625 128.40625 166.167969 128.714844 165.1875 Z M 140.722656 114.257812 C 141.492188 111.222656 142.984375 108.238281 145.429688 105.933594 C 148.390625 103.148438 151.085938 100.0625 154.691406 98.035156 C 155.300781 97.6875 156.007812 96.777344 156.617188 97.390625 C 157.324219 98.097656 156.925781 99.144531 156.332031 99.902344 C 155.449219 101.019531 154.367188 101.941406 153.1875 102.714844 C 151.507812 103.820312 150.925781 105.386719 151.507812 107.253906 C 152.042969 108.96875 153.433594 109.492188 155.164062 109.71875 C 160.269531 110.402344 164.957031 108.484375 169.765625 107.414062 C 171.878906 106.941406 173.941406 106.371094 176.089844 106.394531 C 176.128906 106.632812 176.164062 106.867188 176.214844 107.09375 C 171.480469 108.894531 166.746094 110.6875 162.023438 112.503906 C 161.539062 112.675781 160.417969 112.429688 160.917969 113.511719 C 161.253906 114.269531 161.910156 113.574219 162.347656 113.410156 C 166.746094 111.867188 171.230469 110.636719 175.644531 109.046875 C 171.382812 112.753906 166 114.15625 160.828125 116.136719 C 162.046875 116.632812 162.046875 116.632812 165.066406 115.636719 C 166.523438 115.152344 167.964844 114.65625 169.503906 114.34375 C 166.757812 116.621094 163.414062 117.765625 160.222656 119.109375 C 156.492188 120.675781 152.539062 121.558594 148.550781 122.230469 C 146.710938 122.542969 145.046875 122.332031 144.324219 120.191406 C 144.226562 119.894531 143.902344 119.679688 143.742188 119.394531 C 142.808594 117.605469 140.273438 116.011719 140.722656 114.257812 Z M 138.125 115.265625 C 138.433594 115.078125 138.945312 114.679688 139.207031 115.140625 C 140.609375 117.542969 142.894531 119.433594 143.441406 122.21875 C 143.332031 122.804688 143.503906 123.386719 142.933594 123.636719 C 142.425781 123.847656 142.164062 123.386719 141.964844 123.066406 C 140.585938 120.914062 139.253906 118.734375 137.914062 116.558594 C 137.613281 116.097656 137.601562 115.574219 138.125 115.265625 Z M 134.90625 118.226562 C 136.011719 118.472656 140.335938 124.820312 140.25 126.136719 C 140.1875 126.785156 139.703125 127.070312 139.105469 126.585938 C 136.683594 124.632812 135.441406 121.785156 133.800781 119.257812 C 133.375 118.636719 134.046875 118.027344 134.90625 118.226562 Z M 124.117188 40.277344 C 124.503906 40.414062 124.925781 40.710938 124.851562 41.183594 C 124.726562 41.882812 124.09375 41.730469 123.632812 41.65625 C 122.03125 41.359375 120.316406 41.234375 119.382812 38.785156 C 121.296875 39.382812 122.714844 39.804688 124.117188 40.277344 Z M 118.003906 43.136719 C 121.136719 42.988281 122.117188 43.746094 122.265625 46.859375 C 122.390625 49.394531 122.675781 51.945312 122.179688 54.507812 C 120.972656 54.136719 122.316406 51.945312 120.835938 52.429688 C 119.730469 52.792969 120.4375 54.296875 120.710938 55.304688 C 121.121094 56.859375 121.941406 58.203125 122.824219 59.519531 C 123.484375 60.503906 123.410156 61.214844 122.203125 61.5625 C 120.5625 62.046875 118.910156 62.496094 116.921875 63.054688 C 117.71875 63.453125 118.300781 63.824219 118.933594 64.023438 C 119.519531 64.199219 120.414062 63.714844 120.699219 64.511719 C 121.035156 65.429688 120.253906 66.050781 119.679688 66.636719 C 117.355469 69.050781 113.617188 68.875 111.554688 66.300781 C 111.367188 66.066406 111.09375 65.890625 110.769531 65.617188 C 110.582031 67.46875 111.441406 68.777344 113.117188 69.472656 C 115.515625 70.457031 118.386719 69.609375 120.078125 67.445312 C 121.074219 72.882812 117.40625 76.652344 112.050781 75.742188 C 109.191406 75.257812 106.570312 74.214844 103.945312 72.78125 C 104.269531 73.40625 104.554688 74.039062 104.902344 74.648438 C 106.71875 77.832031 106.296875 81.304688 103.847656 84.117188 C 102.878906 85.222656 101.882812 85.546875 100.628906 84.738281 C 96.429688 82.050781 93.035156 78.578125 90.636719 74.175781 C 90.039062 73.09375 89.929688 72 90.613281 70.867188 C 90.859375 70.445312 90.996094 69.945312 91.160156 69.484375 C 92.054688 66.949219 91.917969 63.6875 95.980469 63.203125 C 92.75 62.769531 91.183594 60.976562 90.402344 58.339844 C 89.902344 56.636719 90.089844 55.066406 91.964844 54.445312 C 93.667969 53.875 94.875 54.78125 95.296875 56.472656 C 95.59375 57.691406 96.140625 57.792969 97.234375 57.492188 C 101.113281 56.460938 101.574219 55.976562 102.15625 52.046875 C 102.320312 50.988281 102.492188 49.90625 102.851562 48.898438 C 103.414062 47.355469 103.613281 45.6875 104.644531 44.308594 C 106.097656 42.339844 107.664062 44.207031 109.140625 44.183594 C 112.148438 44.121094 115.019531 43.289062 118.003906 43.136719 Z M 75.398438 36.097656 C 74.667969 36.382812 73.546875 37.601562 72.902344 36.046875 C 72.40625 34.867188 72.941406 34.09375 74.132812 33.261719 C 84.160156 26.207031 94.773438 20.347656 106.40625 16.367188 C 111.21875 14.710938 116.089844 13.320312 121.085938 12.324219 C 115.554688 16.816406 109.441406 20.261719 103.152344 23.394531 C 94.042969 27.9375 84.871094 32.378906 75.398438 36.097656 Z M 87.753906 45.300781 C 83.15625 47.578125 83.144531 47.578125 81.675781 42.839844 C 81.652344 42.765625 81.664062 42.675781 81.640625 42.601562 C 81.03125 40.738281 79.414062 38.347656 80.046875 37.128906 C 80.792969 35.6875 83.453125 35.175781 85.316406 34.355469 C 94.414062 30.335938 103.5 26.320312 112.074219 21.269531 C 113.652344 20.335938 114.460938 20.632812 115.082031 22.1875 C 116.125 24.800781 117.929688 27.191406 117.679688 30.671875 C 115.367188 28.484375 114.039062 29.042969 112.523438 31.34375 C 111.066406 33.535156 108.707031 34.941406 106.257812 36.121094 C 100.042969 39.105469 93.917969 42.242188 87.753906 45.300781 Z M 87.652344 74.261719 C 89.976562 78.628906 93.222656 82.222656 97.125 85.261719 C 98.578125 86.390625 100.242188 87.101562 101.898438 87.859375 C 102.777344 88.269531 103.5 88.84375 103.289062 89.9375 C 103.027344 91.269531 101.933594 90.859375 101.101562 90.808594 C 95.792969 90.523438 92.390625 87.136719 89.28125 83.382812 C 88.140625 81.988281 87.320312 80.332031 86.410156 78.753906 C 85.21875 76.699219 85.542969 75.359375 87.652344 74.261719 Z M 51.066406 187.988281 C 49.921875 188.164062 49.511719 187.789062 49.25 186.957031 C 48.742188 185.390625 48.332031 183.796875 47.871094 182.21875 C 47.871094 182.21875 47.871094 182.203125 47.859375 182.191406 C 47.847656 182.167969 47.835938 182.128906 47.824219 182.054688 C 47.550781 180.984375 46.046875 174.429688 46.21875 161.925781 L 46.21875 161.890625 C 45.847656 147.085938 47.152344 132.40625 51.800781 118.101562 C 55.28125 107.378906 59.914062 97.164062 67.820312 88.828125 C 72.03125 84.402344 77.25 81.277344 82.371094 78.058594 C 83.476562 77.371094 83.800781 77.921875 84.273438 78.679688 C 85.453125 80.582031 86.597656 82.5 87.878906 84.339844 C 91.433594 89.476562 96.355469 92.386719 102.59375 92.699219 C 104.332031 92.785156 104.007812 93.980469 104.109375 94.6875 C 105.066406 101.144531 105.289062 107.625 104.605469 114.121094 C 104.28125 117.15625 104.144531 120.230469 103.25 123.648438 C 100.292969 118.152344 98.828125 112.589844 96.703125 107.265625 C 95.867188 105.1875 95.074219 103.085938 94.105469 101.070312 C 91.90625 96.519531 87.59375 94.378906 82.160156 95.273438 C 89.121094 95.535156 91.382812 100.5 93.433594 105.921875 C 96.429688 113.847656 99.050781 121.921875 102.804688 129.546875 C 103.476562 130.902344 102.929688 131.550781 101.972656 132.207031 C 99.808594 133.6875 98.578125 135.878906 97.660156 138.292969 C 99.386719 136.339844 101.113281 134.410156 102.828125 132.445312 C 103.339844 131.859375 103.886719 131.523438 104.457031 132.207031 C 105.089844 132.980469 104.144531 133.152344 103.796875 133.453125 C 100.542969 136.226562 98.253906 139.546875 97.597656 143.890625 C 97.460938 144.824219 97.460938 145.59375 98.265625 146.515625 C 99.074219 145.496094 98.480469 144.363281 98.828125 143.453125 C 100.230469 139.671875 102.441406 136.773438 106.296875 134.984375 C 109.738281 133.390625 112.820312 131.0625 116.101562 129.125 C 120.8125 126.324219 125.570312 123.613281 130.28125 120.824219 C 131.585938 120.042969 132.433594 120.015625 133.191406 121.597656 C 133.75 122.765625 134.757812 123.738281 135.550781 124.78125 C 138.023438 128.003906 138.097656 128.078125 135.328125 130.976562 C 128.070312 138.554688 120.4375 145.679688 111.367188 151.09375 C 103.039062 156.054688 95.65625 155.160156 88.898438 148.195312 C 82.234375 141.351562 77.464844 133.117188 72.765625 124.882812 C 70.675781 121.222656 68.367188 117.652344 67 113.609375 C 66.886719 113.300781 66.925781 112.464844 66.140625 112.753906 C 65.332031 113.050781 65.347656 113.734375 65.519531 114.417969 C 66.265625 117.15625 67.359375 119.78125 68.652344 122.28125 C 74.207031 132.917969 80.0625 143.367188 88.773438 151.863281 C 89.46875 152.546875 89.792969 153.09375 89.492188 154.203125 C 89.121094 155.609375 89.171875 157.164062 89.292969 158.632812 C 89.308594 158.730469 89.308594 158.804688 89.308594 158.890625 C 89.308594 158.890625 89.308594 158.917969 89.308594 158.96875 C 89.332031 159.464844 89.457031 162.113281 89.183594 163.285156 C 89.183594 163.296875 89.183594 163.296875 89.183594 163.296875 C 89.171875 163.433594 89.121094 163.558594 89.035156 163.695312 C 89.019531 163.695312 89.019531 163.707031 89.019531 163.707031 C 88.921875 163.84375 88.808594 163.992188 88.722656 164.128906 C 87.378906 166.480469 85.492188 168.320312 83.304688 169.875 C 75.324219 175.535156 67.382812 181.257812 58.511719 185.488281 C 56.148438 186.644531 53.714844 187.566406 51.066406 187.988281 Z M 23.960938 111.832031 C 24.011719 111.894531 24.074219 111.957031 24.121094 112.003906 C 24.246094 112.144531 24.359375 112.28125 24.457031 112.429688 C 25.402344 113.648438 26.222656 114.964844 27.066406 116.273438 C 33.691406 126.375 36.015625 137.90625 38.105469 149.511719 C 38.5 151.726562 38.316406 153.992188 38.664062 156.15625 C 39.035156 158.46875 39.0625 160.746094 39.097656 163.046875 C 39.136719 165.472656 39.273438 167.886719 39.199219 170.300781 C 39.125 172.515625 38.8125 174.726562 38.601562 176.941406 C 38.75 166.28125 36.824219 155.882812 34.425781 145.644531 C 32.761719 138.527344 30.710938 131.449219 28.050781 124.558594 C 26.023438 119.332031 23.921875 114.257812 19.996094 110.164062 C 19.824219 109.992188 19.648438 109.816406 19.460938 109.65625 C 21.152344 110.066406 22.867188 110.722656 23.960938 111.832031 Z M 8.738281 113.871094 C 10.414062 109.914062 15.546875 109.542969 18.628906 113.261719 C 20.480469 115.5 22.035156 117.964844 23.164062 120.652344 C 28.84375 134 32.089844 147.996094 34.25 162.300781 C 35.753906 172.253906 35.371094 182.203125 34.699219 192.167969 C 34.550781 194.332031 34.078125 196.511719 32.910156 199.222656 C 32.746094 193.339844 32.761719 188.199219 32.425781 183.0625 C 31.890625 174.851562 30.847656 166.71875 29.703125 158.59375 C 28.433594 149.5 26.398438 140.554688 23.375 131.847656 C 22.046875 128.003906 20.320312 124.371094 18.082031 121 C 16.09375 118.015625 13.285156 116.1875 9.730469 115.789062 C 8.140625 115.589844 8.253906 115.027344 8.738281 113.871094 Z M 17.882812 162.984375 C 16.503906 154.488281 14.875 146.042969 11.210938 138.167969 C 9.558594 134.632812 7.65625 131.214844 5.855469 127.753906 C 3.878906 123.9375 4 121.050781 6.238281 119.40625 C 8.414062 117.789062 12.003906 118.550781 14.703125 121.386719 C 18.46875 125.367188 20.121094 130.492188 21.785156 135.515625 C 26.1875 148.804688 28.113281 162.574219 29.355469 176.457031 C 29.9375 183 30.410156 189.558594 30.933594 196.085938 C 30.859375 196.101562 30.785156 196.101562 30.695312 196.101562 C 30.695312 197.09375 30.773438 198.101562 30.671875 199.097656 C 30.523438 200.640625 29.765625 201.761719 28.113281 202.007812 C 26.433594 202.269531 25.304688 201.597656 24.582031 200.03125 C 23.425781 197.507812 23.191406 194.78125 22.730469 192.121094 C 21.054688 182.417969 19.472656 172.699219 17.882812 162.984375 Z M 10.601562 285.15625 C 10.191406 286.414062 9.804688 287.671875 9.445312 288.925781 C 8.8125 291.167969 7.046875 290.65625 5.554688 290.40625 C 3.902344 290.148438 4.660156 288.777344 4.660156 287.796875 C 4.648438 286.699219 5.058594 285.667969 5.320312 284.609375 C 5.332031 284.597656 5.332031 284.585938 5.332031 284.574219 L 16.167969 244.925781 C 16.269531 244.863281 16.207031 244.605469 16.242188 244.441406 C 19.078125 235.449219 21.898438 226.441406 24.78125 217.460938 C 25.453125 215.34375 26.855469 214.785156 29.292969 215.605469 C 31.554688 216.378906 29.875 217.921875 29.589844 218.828125 C 25.699219 231.167969 22.269531 243.644531 18.792969 256.097656 C 17.535156 260.601562 15.472656 264.941406 15.832031 269.808594 C 12.515625 274.386719 12.253906 280.019531 10.601562 285.15625 Z M 19.289062 216.164062 C 19.363281 214.734375 20.679688 215.332031 21.449219 215.34375 C 22.804688 215.382812 22.433594 216.5625 22.234375 217.199219 C 21.601562 219.300781 20.792969 221.351562 19.808594 224.054688 C 18.867188 221.03125 19.152344 218.578125 19.289062 216.164062 Z M 75.140625 229.652344 C 77.675781 229.664062 77.015625 231.605469 77.214844 232.796875 C 77.5 234.539062 75.898438 233.867188 75.101562 233.867188 C 68.777344 233.917969 62.460938 233.894531 55.019531 233.894531 C 48.765625 233.605469 41.359375 234.214844 33.976562 233.519531 C 32.710938 233.394531 31.394531 233.992188 30.074219 233.730469 C 29.367188 233.59375 28.175781 234.140625 28.261719 232.734375 C 28.324219 231.554688 28.25 230.148438 29.875 229.789062 C 30.199219 229.714844 30.546875 229.738281 30.871094 229.726562 C 41.808594 229.589844 52.757812 229.316406 63.691406 229.402344 C 67.496094 229.4375 71.324219 229.636719 75.140625 229.652344 Z M 69.683594 221.464844 C 69.78125 220.070312 69.992188 218.679688 70.128906 217.285156 C 70.21875 216.390625 70.390625 215.769531 71.574219 215.78125 C 72.617188 215.792969 73.300781 215.890625 73.460938 217.113281 C 73.871094 220.285156 74.480469 223.417969 75.625 226.664062 C 69.285156 227.386719 69.273438 227.386719 69.683594 221.464844 Z M 82.433594 264.332031 C 83.949219 264.332031 85.46875 266.375 85.441406 267.941406 L 85.441406 267.964844 C 85.429688 268.277344 85.367188 268.574219 85.21875 268.835938 C 84.722656 269.707031 83.851562 269.285156 83.191406 269.261719 C 73.808594 268.847656 64.425781 269.074219 55.054688 269.0625 C 44.765625 269.035156 34.488281 269.171875 24.210938 269.273438 C 22.558594 269.285156 20.929688 268.6875 19.25 269.199219 C 18.953125 269.285156 18.566406 269.398438 18.367188 269.023438 C 17.609375 267.59375 18.867188 266.335938 18.804688 264.941406 C 18.765625 264.058594 19.574219 264.171875 20.292969 264.171875 C 30.683594 264.210938 41.085938 264.195312 51.488281 264.195312 L 51.488281 264.359375 C 61.804688 264.332031 72.121094 264.320312 82.433594 264.332031 Z M 82.085938 261.757812 C 77.933594 261.769531 73.773438 261.722656 69.621094 261.734375 C 69.570312 261.808594 69.535156 261.84375 69.535156 261.84375 L 61.582031 261.820312 C 61.382812 261.84375 61.183594 261.84375 60.957031 261.84375 C 59.394531 261.84375 57.828125 261.820312 56.261719 261.796875 C 49.996094 261.671875 43.734375 261.398438 37.46875 261.734375 C 37.257812 261.734375 37.058594 261.746094 36.859375 261.757812 C 35.828125 261.820312 35.109375 261.832031 34.625 261.722656 L 22.78125 261.683594 L 22.769531 261.671875 C 22.070312 261.671875 21.363281 261.671875 20.65625 261.683594 C 20.207031 261.683594 20.21875 261.3125 20.171875 260.976562 C 20.097656 260.402344 20.28125 259.617188 20.628906 258.824219 L 20.644531 258.808594 L 22.890625 251.246094 L 22.90625 251.222656 C 22.96875 250.972656 23.042969 250.710938 23.128906 250.476562 L 23.140625 250.4375 L 25.066406 243.980469 C 25.152344 243.347656 25.402344 242.464844 25.75 241.257812 C 25.949219 240.574219 26.210938 239.902344 26.507812 239.03125 C 26.519531 239.042969 26.535156 239.054688 26.546875 239.066406 L 26.980469 237.613281 L 27.007812 237.625 C 27.042969 237.511719 27.105469 237.386719 27.179688 237.238281 C 27.640625 236.457031 28.199219 236.207031 28.808594 236.167969 C 28.859375 236.15625 28.90625 236.15625 28.957031 236.15625 L 28.980469 236.15625 L 69.71875 236.28125 L 69.769531 236.28125 C 69.96875 236.28125 70.15625 236.292969 70.355469 236.292969 C 72.554688 236.320312 74.765625 236.332031 76.964844 236.320312 C 77.910156 236.304688 78.132812 236.742188 78.371094 237.625 C 80.347656 245.027344 81.738281 252.566406 83.527344 260.015625 C 83.902344 261.570312 83.191406 261.757812 82.085938 261.757812 Z M 67.296875 219.511719 C 67.074219 221.214844 66.550781 222.910156 66.464844 224.613281 C 66.351562 226.503906 65.53125 226.902344 63.769531 226.816406 C 60.625 226.640625 57.453125 226.765625 53.652344 226.765625 C 50.382812 226.144531 46.394531 226.628906 42.464844 226.527344 C 39.023438 226.441406 35.371094 226.179688 31.851562 226.851562 C 30.449219 227.113281 29.789062 226.640625 30.449219 225.085938 C 30.933594 223.941406 31.304688 222.757812 31.617188 221.566406 C 33.230469 215.46875 33.21875 215.394531 39.320312 215.320312 C 47.476562 215.234375 55.628906 214.996094 63.769531 215.433594 C 67.371094 215.617188 67.757812 216.027344 67.296875 219.511719 Z M 84.433594 276.996094 C 73.910156 276.910156 63.394531 276.835938 52.878906 277.011719 C 41.210938 277.222656 29.554688 276.996094 17.882812 276.933594 C 17.113281 276.921875 15.421875 277.65625 15.832031 275.878906 C 16.132812 274.609375 15.039062 272.28125 17.984375 272.308594 C 27.464844 272.394531 36.949219 272.34375 46.429688 272.34375 C 56.375 272.34375 66.328125 272.496094 76.28125 272.269531 C 79.613281 272.195312 82.980469 272.742188 86.324219 272.070312 L 87.195312 276.125 C 86.757812 276.898438 85.765625 277.011719 84.433594 276.996094 Z M 91.804688 259.769531 C 93.757812 268.898438 95.65625 278.042969 97.535156 287.1875 C 97.78125 288.394531 98.640625 289.871094 96.601562 290.433594 C 94.304688 291.066406 93.195312 290.382812 92.675781 288.007812 C 91.65625 283.417969 90.648438 278.839844 89.667969 274.25 C 89.640625 274.136719 89.617188 274.011719 89.59375 273.898438 L 89.382812 273.128906 L 89.371094 273.117188 L 87.941406 267.953125 C 85.589844 257.605469 83.339844 247.242188 80.941406 236.914062 C 79.574219 231.042969 77.859375 225.257812 76.445312 219.398438 C 76.171875 218.269531 75.066406 216.515625 77.015625 215.855469 C 79.625 214.972656 81.464844 215.878906 82.023438 218.019531 C 85.691406 231.828125 88.835938 245.785156 91.804688 259.769531 Z M 99.734375 207.519531 C 99.671875 209.386719 98.480469 210.703125 96.675781 211.375 C 94.015625 212.359375 91.257812 212.695312 88.449219 212.917969 C 80.394531 213.589844 72.355469 213.515625 64.328125 212.855469 C 53.105469 211.949219 41.894531 212.769531 30.671875 212.894531 C 24.285156 212.96875 17.894531 212.882812 11.746094 210.867188 C 10.960938 210.617188 10.167969 210.367188 9.433594 210.019531 C 9.433594 210.019531 6.113281 206.972656 8.414062 204.324219 C 8.996094 203.652344 9.59375 203.203125 10.179688 202.929688 C 10.476562 202.792969 10.773438 202.695312 11.0625 202.632812 C 12.265625 202.371094 13.324219 202.753906 13.894531 203.242188 C 13.980469 203.304688 14.054688 203.378906 14.117188 203.453125 C 15.359375 204.585938 16.902344 204.722656 18.59375 204.683594 C 26.125 204.507812 33.582031 203.464844 41.074219 202.855469 C 50.285156 202.097656 59.480469 202.082031 68.675781 202.992188 C 74.914062 203.613281 81.128906 202.792969 87.355469 202.46875 C 90.636719 202.296875 93.792969 202.679688 96.851562 203.8125 C 98.503906 204.460938 99.796875 205.679688 99.734375 207.519531 Z M 99.894531 163.695312 C 98.691406 163.582031 97.484375 163.496094 96.304688 163.308594 C 92.226562 162.648438 91.183594 161.15625 91.804688 157.039062 C 92.066406 155.347656 92.328125 154.402344 94.527344 155.382812 C 99.484375 157.609375 104.582031 157.175781 109.441406 154.9375 C 111.128906 154.152344 112.496094 154.289062 114.125 154.949219 C 118.351562 156.652344 122.640625 158.207031 126.914062 159.789062 C 128.394531 160.324219 129.238281 160.945312 127.996094 162.585938 C 127.460938 163.285156 127.113281 164.191406 126.890625 165.0625 C 126.628906 166.09375 126.082031 166.441406 125.097656 166.183594 C 116.699219 165.359375 108.296875 164.527344 99.894531 163.695312 Z M 116.773438 256 C 117.132812 254.902344 117.816406 255.636719 118.375 255.738281 C 120.464844 256.125 122.5625 256.496094 124.664062 256.90625 C 125.546875 257.070312 125.84375 257.652344 125.796875 258.535156 C 125.722656 259.644531 124.9375 259.28125 124.566406 259.308594 C 122.230469 258.773438 120.078125 258.3125 117.953125 257.777344 C 117.082031 257.566406 116.414062 257.082031 116.773438 256 Z M 148.191406 290.148438 C 146.214844 289.984375 144.214844 290.109375 142.210938 290.109375 L 142.210938 290.046875 C 136.917969 290.046875 131.597656 289.824219 126.316406 290.109375 C 121.582031 290.371094 116.871094 290.257812 112.160156 289.949219 C 111.054688 289.871094 110.136719 289.824219 110.199219 288.378906 C 110.234375 287.199219 110.296875 286.214844 111.828125 285.78125 C 113.355469 285.34375 114.757812 285.792969 116.199219 285.804688 C 126.789062 285.816406 137.378906 285.867188 147.964844 285.867188 C 149.246094 285.867188 150.464844 285.605469 150.414062 287.597656 C 150.390625 289.203125 150.277344 290.320312 148.191406 290.148438 Z M 146.785156 284.5625 C 141.554688 284.597656 136.335938 284.574219 131.101562 284.574219 L 131.101562 284.460938 C 125.460938 284.460938 119.816406 284.511719 114.175781 284.4375 C 111.03125 284.398438 110.597656 283.679688 110.644531 280.53125 C 110.695312 277.011719 111.589844 273.675781 112.359375 270.304688 C 112.859375 268.140625 113.753906 267.964844 115.304688 269.570312 C 116.003906 270.28125 116.660156 271.039062 117.382812 271.722656 C 120.339844 274.460938 122.898438 274.632812 126.34375 272.496094 C 128.515625 271.136719 130.667969 269.71875 133.015625 268.664062 C 133.898438 268.253906 134.917969 267.839844 135.574219 268.414062 C 136.457031 269.183594 135.203125 269.808594 134.894531 270.453125 C 134.308594 271.6875 133.9375 272.742188 135.277344 273.738281 C 138.0625 275.816406 140.808594 277.957031 143.566406 280.070312 C 145.007812 281.191406 145.964844 281.089844 146.25 279.074219 C 146.3125 278.589844 146.585938 278.140625 146.75 277.667969 C 146.886719 277.234375 147.160156 276.898438 147.632812 276.972656 C 148.253906 277.058594 148.316406 277.59375 148.351562 278.105469 C 148.453125 279.210938 147.742188 279.957031 147.148438 280.753906 C 146.859375 281.140625 145.964844 281.4375 146.984375 282.011719 C 147.632812 282.371094 148.066406 282.257812 148.328125 281.527344 C 148.488281 281.066406 148.675781 280.59375 148.9375 280.167969 C 149.332031 279.535156 149.195312 278.203125 150.289062 278.441406 C 151.148438 278.628906 150.738281 279.734375 150.761719 280.417969 C 150.824219 284.5 150.8125 284.535156 146.785156 284.5625 Z M 139.253906 275.195312 C 139.453125 273.875 140.074219 272.667969 141.007812 271.785156 C 141.839844 271.015625 141.9375 272.097656 142.261719 272.632812 C 141.800781 273.738281 141.28125 274.832031 141.195312 276.078125 C 141.167969 276.414062 140.683594 276.460938 140.398438 276.25 C 139.964844 275.964844 139.144531 275.988281 139.253906 275.195312 Z M 143.941406 274.148438 C 144.625 273.9375 145.429688 275.132812 145.15625 275.902344 C 144.835938 276.785156 144.984375 278.054688 143.976562 278.527344 C 143.121094 278.378906 142.449219 277.90625 142.820312 277.382812 C 143.542969 276.339844 142.472656 274.585938 143.941406 274.148438 Z M 151.160156 275.09375 C 151.050781 276.113281 150.117188 275.679688 149.59375 275.34375 C 146.574219 273.425781 143.851562 271.125 141.242188 268.6875 C 140.660156 268.152344 140.820312 267.46875 140.785156 266.820312 C 140.648438 264.65625 139.8125 262.964844 137.703125 262.132812 C 136.320312 261.597656 136.210938 260.960938 137.414062 260.089844 C 138.285156 259.46875 138.507812 258.511719 138.757812 257.527344 C 140.359375 251.121094 142.199219 244.789062 144.625 238.085938 C 145.929688 243.246094 147.109375 247.9375 148.328125 252.628906 C 149.285156 256.324219 150.191406 260.003906 150.378906 263.835938 C 150.414062 264.546875 150.578125 265.503906 151.050781 265.914062 C 154.453125 268.972656 151.484375 272.058594 151.160156 275.09375 Z M 154.566406 262.417969 C 157 262.007812 159.488281 261.894531 161.921875 261.484375 C 162.980469 261.3125 163.539062 261.546875 163.738281 262.515625 C 163.988281 263.785156 163.066406 263.351562 162.382812 263.511719 C 160.234375 264.058594 158.046875 264.160156 156.105469 264.410156 C 155.449219 264.332031 155.039062 264.210938 154.628906 264.269531 C 153.722656 264.394531 152.875 264.320312 152.789062 263.214844 C 152.640625 261.597656 153.996094 262.503906 154.566406 262.417969 Z M 156.144531 166.929688 C 158.554688 169.515625 160.828125 172.152344 159.476562 176.757812 C 158.070312 173.148438 157.535156 169.875 156.144531 166.929688 Z M 168.523438 264.371094 C 170.210938 263.859375 172.003906 265.105469 172.089844 266.546875 C 172.140625 267.269531 171.503906 267.492188 171.109375 267.855469 C 169.617188 269.171875 168.074219 270.429688 166.582031 271.746094 C 165.453125 272.730469 164.433594 273.339844 162.855469 272.417969 C 160.792969 271.214844 158.929688 269.894531 158.320312 267.46875 C 158.121094 266.695312 158.929688 266.4375 159.636719 266.3125 C 162.621094 265.777344 165.601562 265.242188 168.523438 264.371094 Z M 166.097656 260.464844 C 167.480469 259.96875 168.957031 259.707031 170.398438 259.457031 C 170.820312 259.382812 171.070312 259.855469 171.144531 260.367188 C 171.109375 261 170.648438 261.199219 170.039062 261.386719 C 169.019531 261.695312 168.050781 262.105469 167.070312 262.515625 C 166.558594 262.730469 165.988281 263.226562 165.761719 262.257812 C 165.601562 261.621094 165.429688 260.714844 166.097656 260.464844 Z M 177.246094 275.058594 C 180.054688 276.625 182.890625 278.242188 185.335938 280.292969 C 186.867188 281.589844 189.027344 280.554688 190.296875 282.234375 C 190.46875 282.472656 191.003906 281.710938 191.128906 281.238281 C 191.425781 280.058594 191.6875 278.875 191.960938 277.667969 C 194.359375 278.800781 194.632812 279.398438 193.082031 282.65625 C 192.472656 283.925781 192.382812 283.890625 193.167969 285.46875 C 193.925781 283.902344 194.558594 282.496094 195.265625 281.128906 C 195.589844 280.492188 195.890625 279.636719 196.871094 279.894531 C 199.792969 280.65625 202.910156 280.953125 205.347656 283.578125 C 200.175781 286.253906 194.757812 286.089844 189.425781 286.402344 C 182.875 286.789062 176.328125 286.191406 169.777344 286.203125 C 165.292969 286.214844 160.71875 286.042969 156.242188 285.160156 C 154.007812 284.722656 153.1875 283.417969 153.234375 281.3125 C 153.324219 278.242188 153.597656 275.179688 154.851562 272.332031 C 155.164062 271.625 155.164062 271.175781 154.839844 270.515625 C 154.589844 269.992188 154.703125 269.320312 155.3125 269 C 156.105469 268.574219 156.257812 269.347656 156.578125 269.78125 C 157.273438 270.691406 157.722656 271.796875 158.742188 272.46875 C 164.308594 276.1875 165.453125 276.363281 170.039062 271.910156 C 171.65625 270.34375 173.480469 269.097656 175.832031 268.773438 C 177.085938 268.601562 177.707031 268.6875 176.925781 270.117188 C 176.613281 270.691406 176.4375 271.351562 176.128906 271.933594 C 175.320312 273.402344 175.742188 274.210938 177.246094 275.058594 Z M 178.09375 271.289062 C 178.328125 270.953125 178.601562 270.628906 178.863281 270.316406 C 179.148438 269.980469 179.199219 269.234375 179.882812 269.472656 C 180.589844 269.71875 180.378906 270.40625 180.367188 271.175781 C 180.28125 271.460938 180.230469 271.996094 179.957031 272.382812 C 179.558594 272.941406 179.621094 273.949219 178.625 273.976562 C 178.105469 274 177.59375 273.835938 177.410156 273.289062 C 177.136719 272.480469 177.667969 271.882812 178.09375 271.289062 Z M 180.8125 274.90625 C 181.347656 273.675781 181.996094 272.480469 182.703125 271.0625 C 183.113281 271.449219 183.375 271.636719 183.558594 271.871094 C 184.304688 272.90625 183.261719 276.039062 182.042969 276.375 C 181.671875 276.476562 181.148438 276.449219 180.863281 276.25 C 180.339844 275.914062 180.640625 275.292969 180.8125 274.90625 Z M 184.269531 276.574219 C 184.839844 275.59375 185.398438 274.609375 186.058594 273.453125 C 187.734375 275.179688 187.5 276.550781 186.09375 277.917969 C 185.546875 278.441406 185.003906 278.6875 184.355469 278.265625 C 183.597656 277.78125 183.933594 277.160156 184.269531 276.574219 Z M 189.226562 276.886719 C 189.5 276.984375 189.625 276.996094 189.636719 277.035156 C 190.160156 278.429688 189.972656 279.621094 188.65625 280.46875 C 188.433594 280.605469 187.949219 280.890625 187.835938 280.417969 C 187.449219 278.863281 188.296875 277.832031 189.226562 276.886719 Z M 189.886719 291.800781 C 186.640625 291.863281 183.398438 291.8125 180.15625 291.8125 C 171.976562 291.902344 163.800781 291.566406 155.695312 290.40625 C 154.703125 290.257812 153.285156 290.46875 153.023438 288.804688 C 152.777344 287.199219 152.976562 286.214844 154.953125 286.300781 C 158.257812 286.441406 161.476562 287.160156 164.78125 287.386719 C 172.945312 287.945312 181.113281 287.769531 189.277344 287.832031 C 190.234375 287.84375 191.265625 287.570312 191.738281 288.890625 C 192.410156 290.757812 191.863281 291.75 189.886719 291.800781 Z M 205.644531 288.804688 C 203.917969 289.933594 201.917969 290.433594 199.929688 290.855469 C 198.261719 291.203125 196.546875 291.265625 194.832031 291.453125 C 193.875 291.414062 192.609375 291.9375 192.632812 290.085938 C 192.65625 288.628906 192.957031 287.917969 194.683594 287.746094 C 197.9375 287.433594 201.21875 287.023438 204.363281 285.941406 C 205.097656 285.691406 205.96875 285.195312 206.390625 286.425781 C 206.738281 287.398438 206.503906 288.242188 205.644531 288.804688 Z M 273.710938 156.28125 C 273.140625 170.921875 273.589844 185.5625 273.550781 200.207031 C 273.488281 220.855469 273.539062 241.519531 273.527344 262.179688 C 273.527344 270.515625 273.476562 278.839844 273.453125 287.171875 C 273.4375 289.847656 272.855469 290.53125 270.171875 290.570312 C 255.816406 290.71875 241.460938 290.878906 227.109375 290.917969 C 221.515625 290.941406 215.921875 290.605469 210.316406 290.53125 C 208.914062 290.519531 208.464844 290.308594 208.839844 288.742188 C 209.820312 284.574219 208.242188 281.414062 204.476562 279.449219 C 202.625 278.476562 200.625 277.820312 198.609375 277.558594 C 196.300781 277.257812 194.296875 276.4375 192.410156 275.195312 C 188.890625 272.878906 185.125 270.902344 182.019531 268.027344 C 181.0625 267.15625 178.949219 268.140625 178.9375 266.0625 C 178.925781 266.074219 178.925781 266.074219 178.914062 266.074219 C 178.898438 266.0625 178.898438 266.0625 178.886719 266.0625 C 178.367188 267.332031 177.136719 267.46875 176.351562 266.835938 C 175.285156 265.964844 173.753906 265.117188 173.742188 263.5 C 173.742188 262.21875 174.738281 262.828125 175.359375 263.101562 C 176.800781 263.75 177.632812 265.167969 178.886719 266.0625 C 178.914062 266.039062 178.914062 266 178.925781 265.976562 L 178.925781 266.074219 C 180.355469 265.839844 180.429688 265.019531 179.882812 263.910156 C 178.988281 262.058594 177.546875 260.761719 175.558594 260.503906 C 174.039062 260.304688 173.691406 259.507812 173.417969 258.277344 C 171.667969 250.488281 171.03125 242.5625 170.25 234.652344 C 169.355469 225.71875 168.585938 216.777344 167.789062 207.832031 C 167.230469 201.636719 166.746094 195.441406 166.1875 189.234375 C 165.886719 185.925781 165.390625 182.640625 164.085938 179.566406 C 163.242188 177.566406 162.445312 175.5625 162.332031 173.398438 C 162.132812 169.355469 159.933594 166.542969 156.863281 164.378906 C 155.300781 163.269531 154.640625 162.015625 154.726562 160.199219 C 154.777344 159.117188 154.753906 158.035156 154.777344 156.953125 C 154.875 152.621094 154.875 152.546875 159.25 152.535156 C 178.726562 152.523438 198.199219 152.574219 217.675781 152.574219 C 235.0625 152.558594 252.4375 152.894531 269.808594 152.4375 C 272.867188 152.359375 273.824219 153.246094 273.710938 156.28125 Z M 286.003906 290.53125 C 284.796875 290.742188 283.121094 290.695312 282.324219 289.101562 C 281.503906 287.433594 281.15625 285.691406 281.195312 283.839844 C 281.34375 274.957031 281.542969 266.074219 281.605469 257.207031 C 281.679688 245.574219 281.667969 233.957031 281.652344 222.324219 C 281.652344 220.445312 281.925781 218.667969 283.195312 217.222656 C 283.867188 216.453125 284.835938 215.992188 285.867188 216.351562 C 286.675781 216.640625 286.351562 217.496094 286.3125 218.105469 C 285.917969 229.464844 286.140625 240.820312 286.277344 252.191406 C 286.277344 262.890625 286.265625 273.589844 286.289062 284.289062 C 286.300781 285.445312 286.476562 286.601562 286.550781 287.769531 C 286.636719 288.777344 287.382812 290.285156 286.003906 290.53125 Z M 288.214844 287.917969 C 287.160156 268.101562 288.003906 248.273438 287.769531 228.457031 C 287.730469 224.960938 287.644531 221.464844 288.140625 217.996094 C 288.214844 217.460938 287.894531 216.789062 288.476562 216.390625 C 288.800781 216.164062 289.074219 216.441406 289.347656 216.652344 C 290.214844 217.296875 289.171875 217.558594 289.097656 218.03125 C 289.046875 218.355469 288.910156 218.730469 289 219.015625 C 290.675781 224.390625 289.832031 229.914062 289.855469 235.347656 C 289.957031 252.09375 289.84375 268.835938 289.792969 285.59375 C 289.78125 287.199219 290.242188 288.679688 290.703125 290.320312 C 288.5 290.570312 288.304688 289.460938 288.214844 287.917969 Z M 346.339844 285.121094 C 346.230469 288.617188 344.042969 290.371094 339.65625 290.433594 C 333.601562 290.53125 327.550781 290.46875 321.484375 290.46875 C 313.035156 290.46875 304.582031 290.457031 296.132812 290.457031 C 293.164062 290.457031 291.980469 289.164062 291.632812 285.78125 C 291.160156 281.113281 291.671875 276.460938 291.621094 271.796875 C 291.546875 264.519531 291.871094 257.230469 291.296875 249.242188 C 294.964844 254.703125 300.257812 254.019531 305.15625 254.445312 C 309.058594 254.78125 309.058594 254.730469 309.457031 258.425781 C 309.839844 262.007812 311.035156 263.113281 316.015625 263.660156 C 318.640625 263.960938 321.335938 263.984375 323.972656 263.402344 C 327.300781 262.652344 328.207031 261.609375 328.421875 258.164062 C 328.65625 254.457031 328.71875 254.582031 332.472656 254.492188 C 336.421875 254.40625 340.402344 254.65625 344.328125 253.820312 C 345.472656 253.574219 346.292969 253.472656 346.304688 255.203125 C 346.390625 265.179688 346.640625 275.144531 346.339844 285.121094 Z M 318.515625 250.015625 C 317.867188 249.667969 316.726562 249.804688 316.851562 251.097656 C 317.097656 253.449219 315.46875 253.347656 313.964844 253.363281 C 313.195312 253.375 312.203125 253.597656 312.164062 252.277344 C 312.113281 250.601562 312.351562 249.007812 314.191406 248.410156 C 316.003906 247.824219 317.917969 247.640625 320.28125 247.851562 C 320.925781 247.851562 322.007812 247.800781 323.089844 247.863281 C 325.175781 247.976562 326.097656 249.28125 326.371094 251.222656 C 326.570312 252.613281 325.910156 253.164062 324.617188 253.3125 C 323.363281 253.472656 322.480469 253.335938 322.453125 251.78125 C 322.394531 248.558594 319.796875 250.699219 318.515625 250.015625 Z M 321.460938 253.027344 C 321.421875 254.429688 321.0625 255.425781 319.832031 255.328125 C 318.664062 255.226562 317.671875 254.644531 317.695312 253.148438 C 317.71875 251.730469 318.726562 251.582031 319.695312 251.558594 C 320.800781 251.519531 321.597656 252.019531 321.460938 253.027344 Z M 312.972656 254.941406 C 314.214844 254.40625 316.179688 253.757812 317.210938 255.972656 C 317.792969 257.21875 320.9375 257.292969 321.933594 256.046875 C 322.964844 254.753906 324.457031 254.082031 325.5 254.867188 C 326.65625 255.738281 326.445312 257.589844 326.058594 259.082031 C 325.613281 260.824219 324.03125 260.578125 322.988281 260.304688 C 320.304688 259.605469 317.730469 260.214844 314.675781 260.601562 C 313.679688 260.863281 312.511719 260.390625 312.3125 258.910156 C 312.128906 257.554688 311.417969 255.613281 312.972656 254.941406 Z M 341.644531 251.945312 C 337.988281 252.066406 334.324219 252.09375 330.683594 252.21875 C 329.402344 252.265625 328.878906 251.90625 328.632812 250.476562 C 327.972656 246.742188 326.007812 245.277344 322.242188 245.300781 C 319.992188 245.3125 317.746094 245.289062 315.507812 245.460938 C 312.152344 245.722656 310.710938 246.980469 309.816406 250.3125 C 309.429688 251.757812 308.894531 252.578125 307.144531 252.339844 C 304.621094 252.019531 302.046875 252.054688 299.511719 251.832031 C 294.914062 251.410156 291.882812 247.886719 291.769531 242.75 C 291.644531 236.578125 291.707031 230.410156 291.570312 224.238281 C 291.523438 222.101562 291.609375 219.933594 290.863281 217.84375 C 290.316406 216.316406 291.210938 216.140625 292.566406 216.152344 C 300.753906 216.226562 308.945312 216.191406 317.136719 216.191406 L 317.136719 216.226562 C 324.753906 216.226562 332.371094 216.179688 340.003906 216.242188 C 345.507812 216.289062 347.398438 217.921875 347.871094 223.292969 C 348.480469 230.386719 349 237.5 348.777344 244.640625 C 348.601562 249.578125 346.527344 251.78125 341.644531 251.945312 Z M 313.371094 213.402344 C 312.460938 213.402344 311.542969 213.355469 310.636719 213.429688 C 310.027344 213.480469 309.703125 213.367188 309.667969 212.707031 C 309.617188 212.085938 309.839844 211.773438 310.472656 211.773438 C 312.4375 211.761719 314.414062 211.738281 316.390625 211.726562 C 316.9375 211.726562 317.320312 211.949219 317.320312 212.609375 C 317.308594 213.328125 316.835938 213.367188 316.328125 213.367188 C 315.347656 213.378906 314.351562 213.367188 313.371094 213.367188 C 313.371094 213.367188 313.371094 213.378906 313.371094 213.402344 Z M 316.140625 209.324219 C 314.265625 209.546875 312.3125 209.460938 310.425781 209.285156 C 308.210938 209.085938 306.933594 209.796875 306.832031 212.148438 C 306.796875 213.019531 306.597656 213.953125 305.417969 213.679688 C 304.273438 213.402344 304.570312 212.421875 304.734375 211.625 C 305.242188 209.148438 306.683594 208.117188 309.976562 208.128906 C 312.449219 207.757812 315.359375 207.804688 318.265625 207.855469 C 320.964844 207.90625 322.753906 209.808594 322.765625 212.457031 C 322.777344 213.265625 322.46875 213.703125 321.660156 213.816406 C 320.789062 213.925781 320.777344 213.316406 320.703125 212.71875 C 320.390625 209.972656 318.886719 208.988281 316.140625 209.324219 Z M 363.230469 185.253906 C 363.429688 192.230469 362.933594 199.210938 363.105469 206.1875 C 363.304688 214.5 363.070312 222.808594 363.09375 231.132812 C 363.144531 249.851562 363.207031 268.574219 363.355469 287.296875 C 363.378906 289.949219 361.828125 290.371094 359.925781 290.433594 C 356.457031 290.53125 352.988281 290.421875 349.523438 290.457031 C 348.265625 290.46875 347.449219 290.507812 348.042969 288.714844 C 349.273438 285.019531 348.714844 281.140625 348.726562 277.320312 C 348.753906 269.734375 348.691406 262.15625 348.617188 254.566406 C 348.601562 253.039062 348.738281 251.632812 349.746094 250.351562 C 350.703125 249.144531 350.976562 247.566406 351.050781 246.121094 C 351.511719 237.289062 351.25 228.457031 349.621094 219.75 C 348.875 215.769531 346.492188 214.164062 342.363281 213.851562 C 337.394531 213.480469 332.433594 213.292969 327.464844 213.628906 C 325.3125 213.765625 325.5625 212.085938 325.3125 210.992188 C 324.714844 208.378906 323.699219 206.101562 320.8125 205.703125 C 316.203125 205.042969 311.519531 205.058594 306.90625 205.652344 C 303.625 206.078125 302.347656 208.738281 301.910156 211.710938 C 301.675781 213.292969 301.164062 213.515625 299.539062 213.601562 C 294.542969 213.839844 289.507812 212.945312 284.5625 213.914062 C 281.121094 214.597656 279.480469 216.589844 279.355469 220.160156 C 278.808594 236.394531 278.980469 252.652344 278.859375 268.886719 C 278.820312 273.960938 278.683594 279.050781 278.472656 284.113281 C 278.386719 286.253906 279.105469 288.179688 279.578125 290.320312 C 276.035156 290.558594 275.714844 290.285156 275.699219 287.011719 C 275.664062 262.851562 275.738281 238.695312 275.5625 214.546875 C 275.476562 202.359375 275.453125 190.179688 275.527344 177.988281 C 275.578125 170.238281 275.476562 162.488281 275.253906 154.75 C 275.203125 152.996094 275.652344 152.636719 277.253906 152.648438 C 289.246094 152.683594 301.242188 152.648438 313.246094 152.660156 C 328.222656 152.671875 343.195312 152.695312 358.171875 152.734375 C 358.832031 152.734375 359.488281 152.871094 360.136719 152.847656 C 362.296875 152.785156 364.683594 152.484375 362.769531 155.917969 C 364.3125 165.660156 362.957031 175.460938 363.230469 185.253906 Z M 367.964844 150.320312 C 363.15625 150.296875 358.335938 150.332031 353.523438 150.332031 C 326.492188 150.332031 299.449219 150.320312 272.421875 150.320312 L 152.316406 150.320312 C 151.484375 150.320312 150.652344 150.308594 149.820312 150.285156 C 148.300781 150.234375 147.207031 149.636719 147.207031 147.945312 C 147.222656 146.203125 148.390625 145.71875 149.867188 145.707031 C 154.925781 145.65625 159.972656 145.617188 165.03125 145.59375 C 182.578125 145.507812 200.140625 145.570312 217.6875 145.308594 C 229.917969 145.132812 242.144531 145.332031 254.386719 145.308594 C 267.671875 145.269531 280.945312 145.320312 294.21875 145.359375 C 317.730469 145.417969 341.246094 145.496094 364.757812 145.570312 C 365.753906 145.582031 366.761719 145.542969 367.753906 145.445312 C 369.320312 145.28125 370.761719 145.457031 370.835938 147.371094 C 370.898438 149.164062 370.003906 150.332031 367.964844 150.320312 Z M 367.964844 150.320312 "/></g><path style=" stroke:none;fill-rule:nonzero;fill:#000000;fill-opacity:1;" d="M 85.441406 267.941406 L 85.441406 267.953125 L 85.429688 267.941406 Z M 85.441406 267.941406 "/></g></svg>