<svg xmlns="http://www.w3.org/2000/svg" xmlns:xlink="http://www.w3.org/1999/xlink" width="500" zoomAndPan="magnify" viewBox="0 0 375 374.999991" height="500" preserveAspectRatio="xMidYMid meet" version="1.2"><defs><filter x="0%" y="0%" width="100%" filterUnits="objectBoundingBox" id="132979f08d" height="100%"><feColorMatrix values="0 0 0 0 1 0 0 0 0 1 0 0 0 0 1 0 0 0 1 0" type="matrix" in="SourceGraphic"/></filter><clipPath id="32bd214e3d"><path d="M 280 13 L 374.878906 13 L 374.878906 108 L 280 108 Z M 280 13 "/></clipPath><clipPath id="c4b78f8933"><path d="M 66 0.246094 L 156 0.246094 L 156 89 L 66 89 Z M 66 0.246094 "/></clipPath><clipPath id="ca935e14b7"><path d="M 269 153 L 374 153 L 374 257.496094 L 269 257.496094 Z M 269 153 "/></clipPath><clipPath id="3b72e4acc7"><rect x="0" width="375" y="0" height="258"/></clipPath></defs><g id="db7b48cb92"><g mask="url(#cac5ad1f0a)" transform="matrix(1,0,0,1,0,0)"><g clip-path="url(#3b72e4acc7)"><path style=" stroke:none;fill-rule:nonzero;fill:#545454;fill-opacity:1;" d="M 281.675781 78.011719 L 298.082031 61.605469 C 298.417969 61.269531 298.5 60.933594 298.5 60.511719 C 298.5 60.09375 298.332031 59.757812 298.082031 59.417969 L 281.675781 43.015625 C 281.339844 42.675781 281.003906 42.59375 280.582031 42.59375 C 280.160156 42.59375 279.824219 42.761719 279.488281 43.015625 L 263.082031 59.417969 C 262.746094 59.757812 262.660156 60.09375 262.660156 60.511719 C 262.660156 60.933594 262.828125 61.269531 263.082031 61.605469 L 279.488281 78.011719 C 279.824219 78.347656 280.160156 78.433594 280.582031 78.433594 C 281.003906 78.433594 281.339844 78.265625 281.675781 78.011719 Z M 297.660156 61.269531 L 281.253906 77.675781 C 281.085938 77.84375 280.832031 78.011719 280.496094 78.011719 C 280.246094 78.011719 279.992188 77.929688 279.742188 77.675781 L 263.335938 61.269531 C 263.167969 61.101562 262.996094 60.851562 262.996094 60.511719 C 262.996094 60.261719 263.082031 60.007812 263.335938 59.757812 L 279.742188 43.351562 C 279.910156 43.183594 280.160156 43.015625 280.496094 43.015625 C 280.75 43.015625 281.003906 43.097656 281.253906 43.351562 L 297.660156 59.757812 C 297.828125 59.925781 297.996094 60.175781 297.996094 60.511719 C 297.996094 60.765625 297.914062 61.019531 297.660156 61.269531 Z M 297.660156 61.269531 "/><path style=" stroke:none;fill-rule:nonzero;fill:#545454;fill-opacity:1;" d="M 248.191406 58.242188 L 271.242188 35.191406 C 271.832031 34.601562 272.085938 33.84375 272.085938 33.085938 C 272.085938 32.328125 271.832031 31.570312 271.242188 30.984375 L 248.191406 7.929688 C 247.601562 7.34375 246.84375 7.089844 246.085938 7.089844 C 245.332031 7.089844 244.574219 7.34375 243.984375 7.929688 L 220.933594 30.984375 C 220.34375 31.570312 220.089844 32.328125 220.089844 33.085938 C 220.089844 33.84375 220.34375 34.601562 220.933594 35.191406 L 243.984375 58.242188 C 244.574219 58.832031 245.332031 59.082031 246.085938 59.082031 C 246.84375 59.082031 247.601562 58.832031 248.191406 58.242188 Z M 269.644531 33.507812 L 246.59375 56.558594 C 246.507812 56.644531 246.339844 56.726562 246.171875 56.726562 C 246.003906 56.726562 245.835938 56.644531 245.75 56.558594 L 222.699219 33.507812 C 222.613281 33.421875 222.53125 33.253906 222.53125 33.085938 C 222.53125 32.917969 222.613281 32.75 222.699219 32.664062 L 245.75 9.613281 C 245.835938 9.527344 246.003906 9.445312 246.171875 9.445312 C 246.339844 9.445312 246.507812 9.527344 246.59375 9.613281 L 269.644531 32.664062 C 269.726562 32.75 269.8125 32.917969 269.8125 33.085938 C 269.8125 33.253906 269.726562 33.421875 269.644531 33.507812 Z M 269.644531 33.507812 "/><path style=" stroke:none;fill-rule:nonzero;fill:#545454;fill-opacity:1;" d="M 213.695312 109.394531 L 233.886719 89.203125 C 234.222656 88.867188 234.394531 88.363281 234.394531 87.855469 C 234.394531 87.351562 234.222656 86.929688 233.886719 86.511719 L 213.695312 66.320312 C 213.359375 65.980469 212.855469 65.8125 212.351562 65.8125 C 211.84375 65.8125 211.425781 65.980469 211.003906 66.320312 L 190.8125 86.511719 C 190.476562 86.847656 190.308594 87.351562 190.308594 87.855469 C 190.308594 88.363281 190.476562 88.78125 190.8125 89.203125 L 211.003906 109.394531 C 211.339844 109.730469 211.84375 109.898438 212.351562 109.898438 C 212.855469 109.898438 213.277344 109.730469 213.695312 109.394531 Z M 233.550781 88.867188 L 213.359375 109.058594 C 213.105469 109.308594 212.769531 109.480469 212.433594 109.480469 C 212.097656 109.480469 211.761719 109.308594 211.507812 109.058594 L 191.316406 88.867188 C 191.066406 88.613281 190.894531 88.277344 190.894531 87.941406 C 190.894531 87.605469 191.066406 87.269531 191.316406 87.015625 L 211.507812 66.824219 C 211.761719 66.570312 212.097656 66.402344 212.433594 66.402344 C 212.769531 66.402344 213.105469 66.570312 213.359375 66.824219 L 233.550781 87.015625 C 233.804688 87.269531 233.972656 87.605469 233.972656 87.941406 C 233.972656 88.277344 233.804688 88.613281 233.550781 88.867188 Z M 233.550781 88.867188 "/><path style=" stroke:none;fill-rule:nonzero;fill:#545454;fill-opacity:1;" d="M 172.722656 123.445312 L 202.253906 93.914062 C 202.84375 93.324219 203.09375 92.566406 203.09375 91.894531 C 203.09375 91.136719 202.84375 90.378906 202.253906 89.875 L 172.722656 60.34375 C 172.136719 59.757812 171.378906 59.503906 170.703125 59.503906 C 169.949219 59.503906 169.191406 59.757812 168.683594 60.34375 L 139.15625 89.875 C 138.566406 90.464844 138.3125 91.222656 138.3125 91.894531 C 138.3125 92.652344 138.566406 93.410156 139.15625 93.914062 L 168.683594 123.445312 C 169.273438 124.035156 170.03125 124.285156 170.703125 124.285156 C 171.460938 124.285156 172.21875 124.035156 172.722656 123.445312 Z M 201.496094 93.074219 L 171.964844 122.601562 C 171.628906 122.941406 171.210938 123.109375 170.703125 123.109375 C 170.285156 123.109375 169.777344 122.941406 169.441406 122.601562 L 139.914062 93.074219 C 139.574219 92.734375 139.40625 92.316406 139.40625 91.8125 C 139.40625 91.390625 139.574219 90.886719 139.914062 90.546875 L 169.441406 61.019531 C 169.777344 60.683594 170.199219 60.511719 170.703125 60.511719 C 171.125 60.511719 171.628906 60.683594 171.964844 61.019531 L 201.496094 90.546875 C 201.832031 90.886719 202 91.304688 202 91.8125 C 202 92.230469 201.832031 92.734375 201.496094 93.074219 Z M 201.496094 93.074219 "/><path style=" stroke:none;fill-rule:nonzero;fill:#545454;fill-opacity:1;" d="M 257.023438 123.78125 L 293.03125 87.773438 C 293.789062 87.015625 294.210938 86.003906 294.210938 84.910156 C 294.210938 83.902344 293.789062 82.894531 293.03125 82.050781 L 257.023438 46.042969 C 256.265625 45.285156 255.257812 44.863281 254.164062 44.863281 C 253.15625 44.863281 252.144531 45.285156 251.304688 46.042969 L 215.292969 82.050781 C 214.539062 82.808594 214.117188 83.816406 214.117188 84.910156 C 214.117188 85.921875 214.539062 86.929688 215.292969 87.6875 L 251.304688 123.695312 C 252.0625 124.453125 253.070312 124.875 254.164062 124.875 C 255.171875 124.875 256.183594 124.453125 257.023438 123.695312 Z M 291.351562 86.175781 L 255.34375 122.183594 C 255.003906 122.519531 254.585938 122.6875 254.164062 122.6875 C 253.742188 122.6875 253.324219 122.519531 252.984375 122.183594 L 216.976562 86.175781 C 216.640625 85.835938 216.472656 85.417969 216.472656 84.996094 C 216.472656 84.574219 216.640625 84.15625 216.976562 83.816406 L 252.984375 47.808594 C 253.324219 47.472656 253.742188 47.304688 254.164062 47.304688 C 254.585938 47.304688 255.003906 47.472656 255.34375 47.808594 L 291.351562 83.816406 C 291.6875 84.15625 291.855469 84.574219 291.855469 84.996094 C 291.855469 85.417969 291.6875 85.835938 291.351562 86.175781 Z M 291.351562 86.175781 "/><path style=" stroke:none;fill-rule:nonzero;fill:#545454;fill-opacity:1;" d="M 321.554688 131.941406 L 344.605469 108.890625 C 345.027344 108.46875 345.195312 107.964844 345.195312 107.460938 C 345.195312 106.953125 345.027344 106.367188 344.605469 106.027344 L 321.554688 82.976562 C 321.132812 82.554688 320.628906 82.386719 320.125 82.386719 C 319.617188 82.386719 319.03125 82.554688 318.695312 82.976562 L 295.640625 106.027344 C 295.21875 106.449219 295.050781 106.953125 295.050781 107.460938 C 295.050781 107.964844 295.21875 108.554688 295.640625 108.890625 L 318.695312 131.941406 C 319.113281 132.363281 319.617188 132.53125 320.125 132.53125 C 320.628906 132.53125 321.21875 132.363281 321.554688 131.941406 Z M 344.269531 108.46875 L 321.21875 131.519531 C 320.882812 131.859375 320.542969 131.941406 320.125 131.941406 C 319.703125 131.941406 319.367188 131.773438 319.03125 131.519531 L 295.976562 108.46875 C 295.640625 108.132812 295.558594 107.796875 295.558594 107.375 C 295.558594 106.953125 295.726562 106.617188 295.976562 106.28125 L 319.03125 83.230469 C 319.367188 82.894531 319.703125 82.808594 320.125 82.808594 C 320.542969 82.808594 320.882812 82.976562 321.21875 83.230469 L 344.269531 106.28125 C 344.605469 106.617188 344.691406 106.953125 344.691406 107.375 C 344.691406 107.796875 344.523438 108.132812 344.269531 108.46875 Z M 344.269531 108.46875 "/><g clip-rule="nonzero" clip-path="url(#32bd214e3d)"><path style=" stroke:none;fill-rule:nonzero;fill:#545454;fill-opacity:1;" d="M 330.554688 105.945312 L 373.464844 63.039062 C 374.222656 62.28125 374.640625 61.269531 374.640625 60.261719 C 374.640625 59.25 374.222656 58.242188 373.464844 57.484375 L 330.554688 14.578125 C 329.800781 13.820312 328.789062 13.398438 327.78125 13.398438 C 326.769531 13.398438 325.761719 13.820312 325.003906 14.578125 L 282.097656 57.484375 C 281.339844 58.242188 280.917969 59.25 280.917969 60.261719 C 280.917969 61.269531 281.339844 62.28125 282.097656 63.039062 L 325.003906 105.945312 C 325.761719 106.703125 326.769531 107.121094 327.78125 107.121094 C 328.789062 107.121094 329.800781 106.703125 330.554688 105.945312 Z M 372.621094 62.195312 L 329.714844 105.105469 C 329.210938 105.609375 328.453125 105.945312 327.78125 105.945312 C 327.023438 105.945312 326.347656 105.691406 325.84375 105.105469 L 282.9375 62.195312 C 282.433594 61.691406 282.097656 60.933594 282.097656 60.261719 C 282.097656 59.589844 282.347656 58.832031 282.9375 58.324219 L 325.84375 15.417969 C 326.347656 14.914062 327.105469 14.578125 327.78125 14.578125 C 328.453125 14.578125 329.210938 14.828125 329.714844 15.417969 L 372.621094 58.324219 C 373.128906 58.832031 373.464844 59.589844 373.464844 60.261719 C 373.464844 60.933594 373.210938 61.691406 372.621094 62.195312 Z M 372.621094 62.195312 "/></g><path style=" stroke:none;fill-rule:nonzero;fill:#545454;fill-opacity:1;" d="M 164.480469 84.828125 L 194.347656 54.960938 C 194.851562 54.457031 195.101562 53.78125 195.101562 53.109375 C 195.101562 52.4375 194.851562 51.765625 194.347656 51.257812 L 164.480469 21.390625 C 163.972656 20.886719 163.300781 20.632812 162.628906 20.632812 C 161.953125 20.632812 161.28125 20.886719 160.777344 21.390625 L 130.910156 51.257812 C 130.40625 51.765625 130.152344 52.4375 130.152344 53.109375 C 130.152344 53.78125 130.40625 54.457031 130.910156 54.960938 L 160.777344 84.828125 C 161.28125 85.332031 161.953125 85.585938 162.628906 85.585938 C 163.300781 85.585938 163.972656 85.332031 164.480469 84.828125 Z M 193.925781 54.625 L 164.058594 84.492188 C 163.636719 84.910156 163.132812 85.082031 162.542969 85.082031 C 162.039062 85.082031 161.449219 84.910156 161.03125 84.492188 L 131.164062 54.625 C 130.742188 54.203125 130.574219 53.699219 130.574219 53.195312 C 130.574219 52.6875 130.742188 52.101562 131.164062 51.765625 L 161.03125 21.898438 C 161.449219 21.476562 161.953125 21.308594 162.542969 21.308594 C 163.046875 21.308594 163.636719 21.476562 164.058594 21.898438 L 193.925781 51.765625 C 194.347656 52.183594 194.515625 52.6875 194.515625 53.195312 C 194.515625 53.699219 194.347656 54.289062 193.925781 54.707031 Z M 193.925781 54.625 "/><path style=" stroke:none;fill-rule:nonzero;fill:#545454;fill-opacity:1;" d="M 175.753906 149.609375 L 195.269531 130.089844 C 195.609375 129.753906 195.777344 129.25 195.777344 128.828125 C 195.777344 128.410156 195.609375 127.902344 195.269531 127.566406 L 175.753906 108.046875 C 175.417969 107.710938 174.910156 107.542969 174.492188 107.542969 C 174.070312 107.542969 173.566406 107.710938 173.230469 108.046875 L 153.710938 127.566406 C 153.375 127.902344 153.207031 128.410156 153.207031 128.828125 C 153.207031 129.25 153.375 129.753906 153.710938 130.089844 L 173.230469 149.609375 C 173.566406 149.945312 174.070312 150.113281 174.492188 150.113281 C 174.910156 150.113281 175.417969 149.945312 175.753906 149.609375 Z M 194.933594 129.671875 L 175.417969 149.1875 C 175.164062 149.441406 174.828125 149.527344 174.492188 149.527344 C 174.152344 149.527344 173.816406 149.441406 173.566406 149.1875 L 154.046875 129.671875 C 153.792969 129.417969 153.710938 129.082031 153.710938 128.746094 C 153.710938 128.410156 153.792969 128.070312 154.046875 127.820312 L 173.566406 108.300781 C 173.816406 108.046875 174.152344 107.964844 174.492188 107.964844 C 174.828125 107.964844 175.164062 108.046875 175.417969 108.300781 L 194.933594 127.820312 C 195.1875 128.070312 195.269531 128.410156 195.269531 128.746094 C 195.269531 129.082031 195.1875 129.417969 194.933594 129.671875 Z M 194.933594 129.671875 "/><path style=" stroke:none;fill-rule:nonzero;fill:#545454;fill-opacity:1;" d="M 268.972656 191.589844 L 282.601562 177.960938 C 282.851562 177.710938 283.019531 177.375 283.019531 177.035156 C 283.019531 176.699219 282.851562 176.363281 282.601562 176.113281 L 268.972656 162.480469 C 268.71875 162.230469 268.382812 162.0625 268.046875 162.0625 C 267.710938 162.0625 267.371094 162.230469 267.121094 162.480469 L 253.492188 176.113281 C 253.238281 176.363281 253.070312 176.699219 253.070312 177.035156 C 253.070312 177.375 253.238281 177.710938 253.492188 177.960938 L 267.121094 191.589844 C 267.371094 191.84375 267.710938 192.011719 268.046875 192.011719 C 268.382812 192.011719 268.71875 191.84375 268.972656 191.589844 Z M 282.265625 177.542969 L 268.632812 191.171875 C 268.464844 191.339844 268.296875 191.421875 268.046875 191.421875 C 267.878906 191.421875 267.625 191.339844 267.457031 191.171875 L 253.828125 177.542969 C 253.660156 177.375 253.574219 177.207031 253.574219 176.953125 C 253.574219 176.785156 253.660156 176.53125 253.828125 176.363281 L 267.457031 162.734375 C 267.625 162.566406 267.792969 162.480469 268.046875 162.480469 C 268.214844 162.480469 268.464844 162.566406 268.632812 162.734375 L 282.265625 176.363281 C 282.433594 176.53125 282.515625 176.699219 282.515625 176.953125 C 282.515625 177.121094 282.433594 177.375 282.265625 177.542969 Z M 282.265625 177.542969 "/><path style=" stroke:none;fill-rule:nonzero;fill:#545454;fill-opacity:1;" d="M 255.089844 159.875 L 278.140625 136.820312 C 278.648438 136.316406 278.816406 135.726562 278.816406 135.140625 C 278.816406 134.550781 278.5625 133.878906 278.140625 133.457031 L 255.089844 110.402344 C 254.585938 109.898438 253.996094 109.730469 253.40625 109.730469 C 252.816406 109.730469 252.144531 109.984375 251.722656 110.402344 L 228.671875 133.457031 C 228.167969 133.960938 228 134.550781 228 135.140625 C 228 135.726562 228.25 136.402344 228.671875 136.820312 L 251.722656 159.875 C 252.230469 160.378906 252.816406 160.546875 253.40625 160.546875 C 253.996094 160.546875 254.667969 160.292969 255.089844 159.875 Z M 277.300781 135.980469 L 254.25 159.03125 C 253.996094 159.285156 253.660156 159.367188 253.40625 159.367188 C 253.070312 159.367188 252.734375 159.285156 252.566406 159.03125 L 229.511719 135.980469 C 229.261719 135.726562 229.175781 135.390625 229.175781 135.140625 C 229.175781 134.800781 229.261719 134.550781 229.511719 134.296875 L 252.566406 111.246094 C 252.816406 110.992188 253.15625 110.910156 253.40625 110.910156 C 253.742188 110.910156 253.996094 110.992188 254.25 111.246094 L 277.300781 134.296875 C 277.554688 134.550781 277.636719 134.886719 277.636719 135.140625 C 277.636719 135.476562 277.554688 135.726562 277.300781 135.980469 Z M 277.300781 135.980469 "/><path style=" stroke:none;fill-rule:nonzero;fill:#545454;fill-opacity:1;" d="M 214.117188 169.128906 L 247.011719 136.234375 C 247.601562 135.644531 247.9375 134.800781 247.9375 133.960938 C 247.9375 133.121094 247.601562 132.363281 247.011719 131.691406 L 214.117188 98.792969 C 213.527344 98.203125 212.6875 97.867188 211.84375 97.867188 C 211.003906 97.867188 210.246094 98.203125 209.574219 98.792969 L 176.679688 131.691406 C 176.089844 132.277344 175.753906 133.121094 175.753906 133.960938 C 175.753906 134.800781 176.089844 135.558594 176.679688 136.234375 L 209.574219 169.128906 C 210.164062 169.71875 211.003906 170.054688 211.84375 170.054688 C 212.6875 170.054688 213.445312 169.71875 214.117188 169.128906 Z M 246.171875 135.390625 L 213.277344 168.289062 C 212.855469 168.707031 212.351562 168.875 211.84375 168.875 C 211.339844 168.875 210.835938 168.707031 210.414062 168.289062 L 177.519531 135.390625 C 177.097656 134.96875 176.929688 134.464844 176.929688 133.960938 C 176.929688 133.457031 177.097656 132.953125 177.519531 132.53125 L 210.414062 99.636719 C 210.835938 99.214844 211.339844 99.046875 211.84375 99.046875 C 212.351562 99.046875 212.855469 99.214844 213.277344 99.636719 L 246.171875 132.53125 C 246.59375 132.953125 246.761719 133.457031 246.761719 133.960938 C 246.761719 134.464844 246.59375 134.96875 246.171875 135.390625 Z M 246.171875 135.390625 "/><path style=" stroke:none;fill-rule:nonzero;fill:#545454;fill-opacity:1;" d="M 63.519531 74.730469 L 96.246094 42.003906 C 96.835938 41.414062 97.171875 40.574219 97.171875 39.734375 C 97.171875 38.890625 96.835938 38.132812 96.246094 37.460938 L 63.519531 4.734375 C 62.929688 4.144531 62.089844 3.808594 61.25 3.808594 C 60.40625 3.808594 59.648438 4.144531 59.0625 4.734375 L 26.332031 37.460938 C 25.746094 38.050781 25.40625 38.890625 25.40625 39.734375 C 25.40625 40.574219 25.746094 41.332031 26.332031 42.003906 L 59.0625 74.730469 C 59.648438 75.320312 60.492188 75.65625 61.25 75.65625 C 62.089844 75.65625 62.847656 75.320312 63.4375 74.730469 Z M 95.40625 41.164062 L 62.679688 73.890625 C 62.257812 74.3125 61.753906 74.480469 61.25 74.480469 C 60.742188 74.480469 60.238281 74.3125 59.816406 73.890625 L 27.089844 41.164062 C 26.671875 40.742188 26.5 40.238281 26.5 39.734375 C 26.5 39.226562 26.671875 38.722656 27.089844 38.300781 L 59.816406 5.574219 C 60.238281 5.15625 60.742188 4.984375 61.25 4.984375 C 61.753906 4.984375 62.257812 5.15625 62.679688 5.574219 L 95.40625 38.300781 C 95.828125 38.722656 95.996094 39.226562 95.996094 39.734375 C 95.996094 40.238281 95.828125 40.742188 95.40625 41.164062 Z M 95.40625 41.164062 "/><g clip-rule="nonzero" clip-path="url(#c4b78f8933)"><path style=" stroke:none;fill-rule:nonzero;fill:#545454;fill-opacity:1;" d="M 113.832031 87.6875 L 154.296875 47.21875 C 155.054688 46.464844 155.390625 45.539062 155.390625 44.527344 C 155.390625 43.601562 155.054688 42.59375 154.296875 41.835938 L 113.832031 1.367188 C 113.074219 0.609375 112.148438 0.273438 111.140625 0.273438 C 110.214844 0.273438 109.203125 0.609375 108.445312 1.367188 L 67.980469 41.835938 C 67.222656 42.59375 66.886719 43.519531 66.886719 44.527344 C 66.886719 45.453125 67.222656 46.464844 67.980469 47.21875 L 108.445312 87.6875 C 109.203125 88.445312 110.128906 88.78125 111.140625 88.78125 C 112.0625 88.78125 113.074219 88.445312 113.832031 87.6875 Z M 153.542969 46.378906 L 113.074219 86.847656 C 112.570312 87.351562 111.894531 87.605469 111.222656 87.605469 C 110.550781 87.605469 109.875 87.351562 109.371094 86.847656 L 68.90625 46.378906 C 68.398438 45.875 68.148438 45.203125 68.148438 44.527344 C 68.148438 43.855469 68.398438 43.183594 68.90625 42.675781 L 109.371094 2.210938 C 109.875 1.703125 110.550781 1.453125 111.222656 1.453125 C 111.894531 1.453125 112.570312 1.703125 113.074219 2.210938 L 153.542969 42.675781 C 154.046875 43.183594 154.296875 43.855469 154.296875 44.527344 C 154.296875 45.203125 154.046875 45.875 153.542969 46.378906 Z M 153.542969 46.378906 "/></g><path style=" stroke:none;fill-rule:nonzero;fill:#545454;fill-opacity:1;" d="M 286.722656 122.855469 L 303.464844 106.113281 C 303.800781 105.777344 303.886719 105.441406 303.886719 105.019531 C 303.886719 104.597656 303.71875 104.179688 303.464844 103.925781 L 286.722656 87.183594 C 286.386719 86.847656 286.050781 86.761719 285.628906 86.761719 C 285.207031 86.761719 284.789062 86.929688 284.535156 87.183594 L 267.792969 103.925781 C 267.457031 104.261719 267.371094 104.597656 267.371094 105.019531 C 267.371094 105.441406 267.542969 105.859375 267.792969 106.113281 L 284.535156 122.855469 C 284.871094 123.191406 285.207031 123.277344 285.628906 123.277344 C 286.050781 123.277344 286.472656 123.109375 286.722656 122.855469 Z M 303.128906 105.691406 L 286.386719 122.433594 C 286.21875 122.601562 285.882812 122.769531 285.628906 122.769531 C 285.378906 122.769531 285.125 122.6875 284.871094 122.433594 L 268.128906 105.691406 C 267.960938 105.523438 267.792969 105.1875 267.792969 104.933594 C 267.792969 104.683594 267.878906 104.429688 268.128906 104.179688 L 284.871094 87.4375 C 285.039062 87.269531 285.378906 87.097656 285.628906 87.097656 C 285.882812 87.097656 286.132812 87.183594 286.386719 87.4375 L 303.128906 104.179688 C 303.296875 104.347656 303.464844 104.683594 303.464844 104.933594 C 303.464844 105.1875 303.382812 105.441406 303.128906 105.691406 Z M 303.128906 105.691406 "/><path style=" stroke:none;fill-rule:nonzero;fill:#545454;fill-opacity:1;" d="M 206.796875 78.347656 L 239.019531 46.125 C 239.609375 45.539062 239.945312 44.695312 239.945312 43.9375 C 239.945312 43.183594 239.609375 42.339844 239.019531 41.753906 L 206.796875 9.527344 C 206.207031 8.941406 205.367188 8.605469 204.609375 8.605469 C 203.851562 8.605469 203.011719 8.941406 202.421875 9.527344 L 170.199219 41.753906 C 169.609375 42.339844 169.273438 43.183594 169.273438 43.9375 C 169.273438 44.695312 169.609375 45.539062 170.199219 46.125 L 202.421875 78.347656 C 203.011719 78.9375 203.851562 79.273438 204.609375 79.273438 C 205.367188 79.273438 206.207031 78.9375 206.796875 78.347656 Z M 238.179688 45.285156 L 205.957031 77.507812 C 205.621094 77.84375 205.113281 78.097656 204.609375 78.097656 C 204.105469 78.097656 203.601562 77.929688 203.265625 77.507812 L 171.042969 45.285156 C 170.703125 44.949219 170.453125 44.445312 170.453125 43.9375 C 170.453125 43.433594 170.621094 42.929688 171.042969 42.59375 L 203.265625 10.371094 C 203.601562 10.035156 204.105469 9.78125 204.609375 9.78125 C 205.113281 9.78125 205.621094 9.949219 205.957031 10.371094 L 238.179688 42.59375 C 238.515625 42.929688 238.769531 43.433594 238.769531 43.9375 C 238.769531 44.445312 238.597656 44.949219 238.179688 45.285156 Z M 238.179688 45.285156 "/><path style=" stroke:none;fill-rule:nonzero;fill:#545454;fill-opacity:1;" d="M 317.769531 183.347656 L 348.8125 152.300781 C 349.484375 151.628906 349.90625 150.703125 349.90625 149.777344 C 349.90625 148.851562 349.570312 147.925781 348.8125 147.253906 L 317.769531 116.210938 C 317.09375 115.535156 316.167969 115.117188 315.242188 115.117188 C 314.320312 115.117188 313.394531 115.453125 312.71875 116.210938 L 281.675781 147.253906 C 281.003906 147.925781 280.582031 148.851562 280.582031 149.777344 C 280.582031 150.703125 280.917969 151.628906 281.675781 152.300781 L 312.71875 183.347656 C 313.394531 184.019531 314.320312 184.441406 315.242188 184.441406 C 316.167969 184.441406 317.09375 184.105469 317.769531 183.347656 Z M 347.128906 150.621094 L 316.085938 181.664062 C 315.832031 181.917969 315.496094 182 315.160156 182 C 314.824219 182 314.488281 181.917969 314.234375 181.664062 L 283.191406 150.621094 C 282.9375 150.367188 282.851562 150.03125 282.851562 149.695312 C 282.851562 149.355469 282.9375 149.019531 283.191406 148.769531 L 314.234375 117.722656 C 314.488281 117.472656 314.824219 117.386719 315.160156 117.386719 C 315.496094 117.386719 315.832031 117.472656 316.085938 117.722656 L 347.128906 148.769531 C 347.382812 149.019531 347.46875 149.355469 347.46875 149.695312 C 347.46875 150.03125 347.382812 150.367188 347.128906 150.621094 Z M 347.128906 150.621094 "/><path style=" stroke:none;fill-rule:nonzero;fill:#545454;fill-opacity:1;" d="M 111.222656 115.453125 L 134.273438 92.398438 C 134.863281 91.8125 135.117188 91.054688 135.117188 90.296875 C 135.117188 89.539062 134.863281 88.78125 134.273438 88.191406 L 111.222656 65.140625 C 110.632812 64.550781 109.875 64.300781 109.121094 64.300781 C 108.363281 64.300781 107.605469 64.550781 107.015625 65.140625 L 83.964844 88.191406 C 83.375 88.78125 83.121094 89.539062 83.121094 90.296875 C 83.121094 91.054688 83.375 91.8125 83.964844 92.398438 L 107.015625 115.453125 C 107.605469 116.039062 108.363281 116.292969 109.121094 116.292969 C 109.875 116.292969 110.632812 116.039062 111.222656 115.453125 Z M 132.675781 90.71875 L 109.625 113.769531 C 109.539062 113.851562 109.371094 113.9375 109.203125 113.9375 C 109.035156 113.9375 108.867188 113.851562 108.78125 113.769531 L 85.730469 90.71875 C 85.648438 90.632812 85.5625 90.464844 85.5625 90.296875 C 85.5625 90.128906 85.648438 89.960938 85.730469 89.875 L 108.78125 66.824219 C 108.867188 66.738281 109.035156 66.65625 109.203125 66.65625 C 109.371094 66.65625 109.539062 66.738281 109.625 66.824219 L 132.675781 89.875 C 132.761719 89.960938 132.84375 90.128906 132.84375 90.296875 C 132.84375 90.464844 132.761719 90.632812 132.675781 90.71875 Z M 132.675781 90.71875 "/><path style=" stroke:none;fill-rule:nonzero;fill:#545454;fill-opacity:1;" d="M 132.171875 140.019531 L 140.5 131.691406 C 140.835938 131.351562 141.007812 130.847656 141.007812 130.425781 C 141.007812 129.921875 140.835938 129.503906 140.5 129.164062 L 132.171875 120.835938 C 131.835938 120.5 131.332031 120.332031 130.910156 120.332031 C 130.488281 120.332031 129.984375 120.5 129.648438 120.835938 L 121.320312 129.164062 C 120.980469 129.503906 120.8125 130.007812 120.8125 130.425781 C 120.8125 130.933594 120.980469 131.351562 121.320312 131.691406 L 129.648438 140.019531 C 129.984375 140.355469 130.488281 140.523438 130.910156 140.523438 C 131.332031 140.523438 131.835938 140.355469 132.171875 140.019531 Z M 138.480469 130.425781 L 130.910156 138 L 123.339844 130.425781 L 130.910156 122.855469 Z M 138.480469 130.425781 "/><path style=" stroke:none;fill-rule:nonzero;fill:#545454;fill-opacity:1;" d="M 8.328125 54.371094 L 15.226562 47.472656 C 15.394531 47.304688 15.480469 47.136719 15.480469 46.882812 C 15.480469 46.714844 15.394531 46.464844 15.226562 46.296875 L 8.328125 39.394531 C 8.160156 39.226562 7.992188 39.144531 7.738281 39.144531 C 7.570312 39.144531 7.320312 39.226562 7.152344 39.394531 L 0.253906 46.296875 C 0.0859375 46.464844 0 46.632812 0 46.882812 C 0 47.050781 0.0859375 47.304688 0.253906 47.472656 L 7.152344 54.371094 C 7.320312 54.539062 7.488281 54.625 7.738281 54.625 C 7.910156 54.625 8.160156 54.539062 8.328125 54.371094 Z M 14.808594 47.136719 L 7.910156 54.035156 C 7.824219 54.121094 7.824219 54.121094 7.738281 54.121094 C 7.65625 54.121094 7.570312 54.121094 7.570312 54.035156 L 0.671875 47.136719 C 0.589844 47.050781 0.589844 47.050781 0.589844 46.96875 C 0.589844 46.882812 0.589844 46.800781 0.671875 46.800781 L 7.570312 39.902344 C 7.65625 39.816406 7.65625 39.816406 7.738281 39.816406 C 7.824219 39.816406 7.910156 39.816406 7.910156 39.902344 L 14.808594 46.800781 C 14.890625 46.882812 14.890625 46.882812 14.890625 46.96875 C 14.890625 47.050781 14.890625 47.136719 14.808594 47.136719 Z M 14.808594 47.136719 "/><path style=" stroke:none;fill-rule:nonzero;fill:#545454;fill-opacity:1;" d="M 53.003906 115.117188 L 63.015625 105.105469 C 63.4375 104.683594 63.605469 104.261719 63.605469 103.757812 C 63.605469 103.253906 63.4375 102.746094 63.015625 102.410156 L 53.003906 92.398438 C 52.582031 91.980469 52.160156 91.8125 51.65625 91.8125 C 51.152344 91.8125 50.648438 91.980469 50.3125 92.398438 L 40.300781 102.410156 C 39.878906 102.832031 39.710938 103.253906 39.710938 103.757812 C 39.710938 104.261719 39.878906 104.765625 40.300781 105.105469 L 50.3125 115.117188 C 50.730469 115.535156 51.152344 115.703125 51.65625 115.703125 C 52.160156 115.703125 52.667969 115.535156 53.003906 115.117188 Z M 61.082031 103.757812 L 51.574219 113.265625 L 42.066406 103.757812 L 51.574219 94.25 Z M 61.082031 103.757812 "/><path style=" stroke:none;fill-rule:nonzero;fill:#545454;fill-opacity:1;" d="M 216.050781 197.230469 L 237.335938 175.941406 C 237.675781 175.605469 237.925781 175.101562 237.925781 174.597656 C 237.925781 174.09375 237.757812 173.585938 237.335938 173.25 L 216.050781 151.964844 C 215.714844 151.628906 215.210938 151.375 214.707031 151.375 C 214.199219 151.375 213.695312 151.542969 213.359375 151.964844 L 192.074219 173.25 C 191.738281 173.585938 191.484375 174.09375 191.484375 174.597656 C 191.484375 175.101562 191.652344 175.605469 192.074219 175.941406 L 213.359375 197.230469 C 213.695312 197.566406 214.199219 197.816406 214.707031 197.816406 C 215.210938 197.816406 215.714844 197.648438 216.050781 197.230469 Z M 236.917969 175.605469 L 215.632812 196.890625 C 215.378906 197.144531 214.957031 197.3125 214.621094 197.3125 C 214.285156 197.3125 213.863281 197.144531 213.613281 196.890625 L 192.328125 175.605469 C 192.074219 175.355469 191.90625 174.933594 191.90625 174.597656 C 191.90625 174.261719 192.074219 173.839844 192.328125 173.585938 L 213.613281 152.300781 C 213.863281 152.050781 214.285156 151.882812 214.621094 151.882812 C 214.957031 151.882812 215.378906 152.050781 215.632812 152.300781 L 236.917969 173.585938 C 237.167969 173.839844 237.335938 174.261719 237.335938 174.597656 C 237.335938 174.933594 237.167969 175.355469 236.917969 175.605469 Z M 236.917969 175.605469 "/><g clip-rule="nonzero" clip-path="url(#ca935e14b7)"><path style=" stroke:none;fill-rule:nonzero;fill:#545454;fill-opacity:1;" d="M 324.246094 256.207031 L 372.035156 208.417969 C 372.875 207.578125 373.296875 206.484375 373.296875 205.390625 C 373.296875 204.296875 372.875 203.203125 372.035156 202.359375 L 324.246094 154.574219 C 323.40625 153.730469 322.3125 153.3125 321.21875 153.3125 C 320.125 153.3125 319.03125 153.730469 318.1875 154.574219 L 270.402344 202.359375 C 269.558594 203.203125 269.140625 204.296875 269.140625 205.390625 C 269.140625 206.484375 269.558594 207.578125 270.402344 208.417969 L 318.1875 256.207031 C 319.03125 257.046875 320.125 257.46875 321.21875 257.46875 C 322.3125 257.46875 323.40625 257.046875 324.246094 256.207031 Z M 371.191406 207.660156 L 323.40625 255.449219 C 322.816406 256.039062 321.976562 256.375 321.132812 256.375 C 320.292969 256.375 319.535156 256.039062 318.863281 255.449219 L 271.074219 207.660156 C 270.484375 207.070312 270.148438 206.230469 270.148438 205.390625 C 270.148438 204.546875 270.484375 203.789062 271.074219 203.117188 L 318.863281 155.332031 C 319.449219 154.742188 320.292969 154.40625 321.132812 154.40625 C 321.976562 154.40625 322.730469 154.742188 323.40625 155.332031 L 371.191406 203.117188 C 371.78125 203.707031 372.117188 204.546875 372.117188 205.390625 C 372.117188 206.230469 371.78125 206.988281 371.191406 207.660156 Z M 371.191406 207.660156 "/></g><path style=" stroke:none;fill-rule:nonzero;fill:#545454;fill-opacity:1;" d="M 245.5 229.367188 L 253.828125 221.039062 C 254.164062 220.703125 254.332031 220.195312 254.332031 219.777344 C 254.332031 219.355469 254.164062 218.851562 253.828125 218.515625 L 245.5 210.183594 C 245.160156 209.847656 244.65625 209.679688 244.238281 209.679688 C 243.730469 209.679688 243.3125 209.847656 242.972656 210.183594 L 234.644531 218.515625 C 234.308594 218.851562 234.140625 219.355469 234.140625 219.777344 C 234.140625 220.195312 234.308594 220.703125 234.644531 221.039062 L 242.972656 229.367188 C 243.3125 229.703125 243.816406 229.871094 244.238281 229.871094 C 244.742188 229.871094 245.160156 229.703125 245.5 229.367188 Z M 251.808594 219.777344 L 244.238281 227.347656 L 236.664062 219.777344 L 244.238281 212.203125 Z M 251.808594 219.777344 "/><path style=" stroke:none;fill-rule:nonzero;fill:#545454;fill-opacity:1;" d="M 168.097656 190.667969 L 173.816406 184.945312 C 173.984375 184.777344 173.984375 184.609375 173.984375 184.441406 C 173.984375 184.273438 173.902344 184.105469 173.816406 183.9375 L 168.097656 178.214844 C 167.929688 178.046875 167.761719 178.046875 167.589844 178.046875 C 167.421875 178.046875 167.253906 178.128906 167.085938 178.214844 L 161.367188 183.9375 C 161.199219 184.105469 161.199219 184.273438 161.199219 184.441406 C 161.199219 184.609375 161.28125 184.777344 161.367188 184.945312 L 167.085938 190.667969 C 167.253906 190.835938 167.421875 190.835938 167.589844 190.835938 C 167.761719 190.835938 167.929688 190.75 168.097656 190.667969 Z M 173.480469 184.609375 L 167.761719 190.328125 C 167.761719 190.328125 167.675781 190.414062 167.589844 190.414062 C 167.507812 190.414062 167.507812 190.414062 167.421875 190.328125 L 161.703125 184.609375 C 161.703125 184.609375 161.617188 184.523438 161.617188 184.441406 C 161.617188 184.355469 161.617188 184.355469 161.703125 184.273438 L 167.421875 178.550781 C 167.421875 178.550781 167.507812 178.46875 167.589844 178.46875 C 167.675781 178.46875 167.675781 178.46875 167.761719 178.550781 L 173.480469 184.273438 C 173.480469 184.273438 173.566406 184.355469 173.566406 184.441406 C 173.566406 184.523438 173.566406 184.523438 173.480469 184.609375 Z M 173.480469 184.609375 "/><path style=" stroke:none;fill-rule:nonzero;fill:#545454;fill-opacity:1;" d="M 295.390625 248.886719 L 308.683594 235.59375 C 308.933594 235.339844 309.101562 235.003906 309.101562 234.667969 C 309.101562 234.332031 308.933594 233.996094 308.683594 233.742188 L 295.390625 220.449219 C 295.136719 220.195312 294.800781 220.027344 294.464844 220.027344 C 294.125 220.027344 293.789062 220.195312 293.539062 220.449219 L 280.246094 233.742188 C 279.992188 233.996094 279.824219 234.332031 279.824219 234.667969 C 279.824219 235.003906 279.992188 235.339844 280.246094 235.59375 L 293.539062 248.886719 C 293.789062 249.136719 294.125 249.304688 294.464844 249.304688 C 294.800781 249.304688 295.136719 249.136719 295.390625 248.886719 Z M 308.34375 235.171875 L 295.050781 248.464844 C 294.882812 248.632812 294.714844 248.71875 294.464844 248.71875 C 294.296875 248.71875 294.042969 248.632812 293.875 248.464844 L 280.582031 235.171875 C 280.414062 235.003906 280.328125 234.835938 280.328125 234.582031 C 280.328125 234.414062 280.414062 234.164062 280.582031 233.996094 L 293.875 220.703125 C 294.042969 220.535156 294.210938 220.449219 294.464844 220.449219 C 294.632812 220.449219 294.882812 220.535156 295.050781 220.703125 L 308.34375 233.996094 C 308.511719 234.164062 308.597656 234.332031 308.597656 234.582031 C 308.597656 234.75 308.511719 235.003906 308.34375 235.171875 Z M 308.34375 235.171875 "/></g><mask id="cac5ad1f0a"><g filter="url(#132979f08d)"><rect x="0" width="375" y="0" height="374.999991" style="fill:#000000;fill-opacity:0.51;stroke:none;"/></g></mask></g></g></svg>