<svg xmlns="http://www.w3.org/2000/svg" xmlns:xlink="http://www.w3.org/1999/xlink" width="500" zoomAndPan="magnify" viewBox="0 0 375 374.999991" height="500" preserveAspectRatio="xMidYMid meet" version="1.2"><defs><filter x="0%" y="0%" width="100%" filterUnits="objectBoundingBox" id="f9e8398808" height="100%"><feColorMatrix values="0 0 0 0 1 0 0 0 0 1 0 0 0 0 1 0 0 0 1 0" type="matrix" in="SourceGraphic"/></filter><clipPath id="12468e0829"><rect x="0" width="375" y="0" height="280"/></clipPath></defs><g id="53baf44fcc"><g mask="url(#0dc08568e5)" transform="matrix(1,0,0,1,0,0)"><g clip-path="url(#12468e0829)"><path style=" stroke:none;fill-rule:nonzero;fill:#545454;fill-opacity:1;" d="M 374.324219 154.421875 L 347.40625 169.945312 L 347.40625 201.8125 C 356.628906 196.5625 365.777344 191.238281 375 185.914062 C 375 175.265625 375 164.695312 375 154.046875 Z M 348.304688 170.46875 L 374.101562 155.546875 L 374.101562 185.390625 L 348.230469 200.3125 L 348.230469 170.46875 Z M 348.304688 170.46875 "/><path style=" stroke:none;fill-rule:nonzero;fill:#545454;fill-opacity:1;" d="M 374.324219 246.953125 L 346.957031 262.773438 L 375 278.96875 C 375 268.171875 375 257.375 375 246.578125 Z M 348.753906 262.773438 L 374.101562 248.078125 L 374.101562 277.472656 Z M 348.753906 262.773438 "/><path style=" stroke:none;fill-rule:nonzero;fill:#545454;fill-opacity:1;" d="M 27 138.976562 L 0.078125 154.496094 L 0.078125 186.363281 C 9.300781 181.042969 18.449219 175.71875 27.671875 170.394531 C 27.671875 159.746094 27.671875 149.171875 27.671875 138.523438 Z M 0.980469 155.023438 L 26.847656 140.101562 L 26.847656 169.945312 L 0.980469 184.867188 Z M 0.980469 155.023438 "/><path style=" stroke:none;fill-rule:nonzero;fill:#545454;fill-opacity:1;" d="M 0.753906 92.710938 L 28.121094 108.53125 L 0.078125 124.726562 C 0.078125 113.929688 0.078125 103.132812 0.078125 92.335938 Z M 26.324219 108.53125 L 0.902344 93.835938 L 0.902344 123.152344 Z M 26.324219 108.53125 "/><path style=" stroke:none;fill-rule:nonzero;fill:#545454;fill-opacity:1;" d="M 320.9375 123.601562 L 294.015625 139.125 L 294.015625 170.46875 C 303.089844 175.71875 312.089844 180.964844 321.160156 186.140625 L 348.304688 170.46875 L 348.304688 139.125 C 339.234375 133.875 330.160156 128.703125 321.160156 123.453125 Z M 294.84375 139.648438 L 321.085938 124.503906 L 347.332031 139.648438 L 347.332031 170.019531 L 321.085938 185.164062 L 294.84375 170.019531 Z M 294.84375 139.648438 "/><path style=" stroke:none;fill-rule:nonzero;fill:#545454;fill-opacity:1;" d="M 348.082031 169.867188 L 321.3125 154.421875 L 320.9375 155.171875 L 347.628906 170.617188 Z M 348.082031 169.867188 "/><path style=" stroke:none;fill-rule:nonzero;fill:#545454;fill-opacity:1;" d="M 294.617188 170.617188 L 321.3125 155.171875 L 320.9375 154.421875 L 294.167969 169.867188 Z M 294.617188 170.617188 "/><path style=" stroke:none;fill-rule:nonzero;fill:#545454;fill-opacity:1;" d="M 347.628906 138.976562 L 320.9375 154.421875 L 321.3125 155.171875 L 348.082031 139.726562 Z M 347.628906 138.976562 "/><path style=" stroke:none;fill-rule:nonzero;fill:#545454;fill-opacity:1;" d="M 294.167969 139.726562 L 320.9375 155.171875 L 321.3125 154.421875 L 294.617188 138.976562 Z M 294.167969 139.726562 "/><path style=" stroke:none;fill-rule:nonzero;fill:#545454;fill-opacity:1;" d="M 320.9375 185.242188 L 294.015625 200.761719 L 294.015625 232.105469 C 303.089844 237.355469 312.089844 242.601562 321.160156 247.777344 C 330.234375 242.527344 339.234375 237.355469 348.304688 232.105469 L 348.304688 200.761719 C 339.234375 195.511719 330.160156 190.339844 321.160156 185.089844 Z M 294.84375 201.285156 L 321.085938 186.140625 L 347.332031 201.285156 L 347.332031 231.65625 L 321.085938 246.800781 L 294.84375 231.65625 Z M 294.84375 201.285156 "/><path style=" stroke:none;fill-rule:nonzero;fill:#545454;fill-opacity:1;" d="M 348.082031 231.503906 L 321.535156 216.207031 L 321.535156 185.617188 L 320.710938 185.617188 L 320.710938 216.734375 L 347.628906 232.332031 Z M 348.082031 231.503906 "/><path style=" stroke:none;fill-rule:nonzero;fill:#545454;fill-opacity:1;" d="M 294.167969 77.261719 L 240.101562 108.53125 C 258.324219 119.105469 276.621094 129.601562 294.84375 140.175781 C 294.84375 119.105469 294.84375 98.035156 294.84375 76.964844 Z M 241.828125 108.53125 L 293.941406 78.460938 L 293.941406 138.675781 Z M 241.828125 108.53125 "/><path style=" stroke:none;fill-rule:nonzero;fill:#545454;fill-opacity:1;" d="M 268.148438 93.085938 L 267.246094 93.085938 L 267.246094 123.976562 L 268.148438 123.976562 Z M 268.148438 93.085938 "/><path style=" stroke:none;fill-rule:nonzero;fill:#545454;fill-opacity:1;" d="M 347.628906 77.261719 L 320.261719 93.085938 L 348.304688 109.28125 C 348.304688 98.484375 348.304688 87.6875 348.304688 76.886719 Z M 321.984375 93.085938 L 347.40625 78.386719 L 347.40625 107.707031 Z M 321.984375 93.085938 "/><path style=" stroke:none;fill-rule:nonzero;fill:#545454;fill-opacity:1;" d="M 268.148438 155.546875 L 293.492188 170.242188 L 268.074219 184.941406 Z M 294.617188 169.867188 L 267.246094 154.046875 C 267.246094 164.84375 267.246094 175.640625 267.246094 186.441406 L 295.292969 170.242188 Z M 294.617188 169.867188 "/><path style=" stroke:none;fill-rule:nonzero;fill:#545454;fill-opacity:1;" d="M 240.777344 138.976562 L 213.410156 154.796875 C 222.632812 160.121094 231.78125 165.445312 241.003906 170.695312 C 250.226562 165.371094 259.375 160.046875 268.597656 154.796875 C 259.375 149.472656 250.226562 144.222656 241.003906 138.898438 Z M 215.132812 154.796875 L 241.003906 139.875 L 266.871094 154.796875 L 241.003906 169.71875 Z M 215.132812 154.796875 "/><path style=" stroke:none;fill-rule:nonzero;fill:#545454;fill-opacity:1;" d="M 187.3125 108.15625 L 160.394531 123.679688 L 160.394531 155.023438 C 169.46875 160.269531 178.464844 165.519531 187.539062 170.695312 L 214.683594 155.023438 L 214.683594 123.679688 C 205.609375 118.429688 196.539062 113.253906 187.539062 108.007812 Z M 161.292969 124.203125 L 187.539062 109.054688 L 213.785156 124.203125 L 213.785156 154.570312 L 187.539062 169.71875 L 161.292969 154.570312 Z M 161.292969 124.203125 "/><path style=" stroke:none;fill-rule:nonzero;fill:#545454;fill-opacity:1;" d="M 214.457031 154.421875 L 187.988281 139.125 L 187.988281 108.53125 L 187.089844 108.53125 L 187.089844 139.648438 L 214.007812 155.171875 Z M 214.457031 154.421875 "/><path style=" stroke:none;fill-rule:nonzero;fill:#545454;fill-opacity:1;" d="M 161.070312 155.171875 L 187.765625 139.726562 L 187.3125 138.976562 L 160.621094 154.421875 Z M 161.070312 155.171875 "/><path style=" stroke:none;fill-rule:nonzero;fill:#545454;fill-opacity:1;" d="M 134.527344 140.101562 L 159.945312 154.796875 L 134.527344 169.492188 Z M 161.070312 154.421875 L 133.699219 138.601562 C 133.699219 149.398438 133.699219 160.195312 133.699219 170.992188 L 161.746094 154.796875 Z M 161.070312 154.421875 "/><path style=" stroke:none;fill-rule:nonzero;fill:#545454;fill-opacity:1;" d="M 107.832031 93.835938 L 133.699219 108.757812 L 133.699219 138.601562 L 107.832031 123.679688 Z M 134.300781 108.15625 L 106.929688 92.335938 C 106.929688 102.984375 106.929688 113.554688 106.929688 124.203125 C 116.15625 129.527344 125.300781 134.851562 134.527344 140.175781 L 134.527344 108.304688 Z M 134.300781 108.15625 "/><path style=" stroke:none;fill-rule:nonzero;fill:#545454;fill-opacity:1;" d="M 214.683594 186.441406 L 266.796875 216.507812 L 214.683594 246.578125 Z M 267.921875 216.132812 L 213.859375 184.941406 C 213.859375 206.011719 213.859375 227.082031 213.859375 248.152344 L 268.597656 216.507812 Z M 267.921875 216.132812 "/><path style=" stroke:none;fill-rule:nonzero;fill:#545454;fill-opacity:1;" d="M 241.453125 201.0625 L 240.554688 201.0625 L 240.554688 231.957031 L 241.453125 231.957031 Z M 241.453125 201.0625 "/><path style=" stroke:none;fill-rule:nonzero;fill:#545454;fill-opacity:1;" d="M 187.988281 170.992188 L 213.410156 185.691406 L 187.988281 200.386719 Z M 214.457031 185.242188 L 187.089844 169.417969 C 187.089844 180.214844 187.089844 191.015625 187.089844 201.8125 L 215.132812 185.617188 Z M 214.457031 185.242188 "/><path style=" stroke:none;fill-rule:nonzero;fill:#545454;fill-opacity:1;" d="M 107.832031 217.257812 L 133.25 231.957031 L 107.832031 246.652344 Z M 134.300781 231.503906 L 106.929688 215.683594 C 106.929688 226.480469 106.929688 237.28125 106.929688 248.078125 L 134.976562 231.878906 Z M 134.300781 231.503906 "/><path style=" stroke:none;fill-rule:nonzero;fill:#545454;fill-opacity:1;" d="M 241.378906 108.53125 L 240.554688 108.53125 L 240.554688 139.351562 L 241.378906 139.351562 Z M 241.378906 108.53125 "/><path style=" stroke:none;fill-rule:nonzero;fill:#545454;fill-opacity:1;" d="M 160.621094 61.890625 L 133.25 77.714844 C 142.472656 83.035156 151.621094 88.359375 160.84375 93.609375 C 170.066406 88.285156 179.214844 82.960938 188.4375 77.714844 L 160.84375 61.816406 Z M 134.976562 77.636719 L 160.84375 62.714844 L 186.714844 77.636719 L 160.84375 92.558594 Z M 134.976562 77.636719 "/><path style=" stroke:none;fill-rule:nonzero;fill:#545454;fill-opacity:1;" d="M 160.621094 185.242188 L 133.699219 200.761719 L 133.699219 232.628906 C 142.921875 227.304688 152.070312 221.984375 161.292969 216.660156 C 161.292969 206.011719 161.292969 195.4375 161.292969 184.789062 Z M 134.527344 201.285156 L 160.394531 186.363281 L 160.394531 216.207031 L 134.527344 231.128906 Z M 134.527344 201.285156 "/><path style=" stroke:none;fill-rule:nonzero;fill:#545454;fill-opacity:1;" d="M 80.460938 138.976562 L 53.542969 154.496094 L 53.542969 185.839844 C 62.617188 191.089844 71.613281 196.339844 80.6875 201.511719 L 107.832031 185.839844 L 107.832031 154.496094 C 98.757812 149.246094 89.683594 144.074219 80.6875 138.824219 Z M 54.367188 155.023438 L 80.613281 139.875 L 106.855469 155.023438 L 106.855469 185.390625 L 80.613281 200.539062 L 54.367188 185.390625 Z M 54.367188 155.023438 "/><path style=" stroke:none;fill-rule:nonzero;fill:#545454;fill-opacity:1;" d="M 107.605469 185.242188 L 80.910156 169.867188 L 80.460938 170.617188 L 107.15625 186.066406 Z M 107.605469 185.242188 "/><path style=" stroke:none;fill-rule:nonzero;fill:#545454;fill-opacity:1;" d="M 54.140625 186.066406 L 80.910156 170.617188 L 80.460938 169.867188 L 53.765625 185.242188 Z M 54.140625 186.066406 "/><path style=" stroke:none;fill-rule:nonzero;fill:#545454;fill-opacity:1;" d="M 107.15625 154.421875 L 80.460938 169.867188 L 80.910156 170.617188 L 107.605469 155.171875 Z M 107.15625 154.421875 "/><path style=" stroke:none;fill-rule:nonzero;fill:#545454;fill-opacity:1;" d="M 53.765625 155.171875 L 80.460938 170.617188 L 80.910156 169.867188 L 54.140625 154.421875 Z M 53.765625 155.171875 "/><path style=" stroke:none;fill-rule:nonzero;fill:#545454;fill-opacity:1;" d="M 53.765625 61.890625 L 26.847656 77.414062 L 26.847656 109.28125 C 36.070312 103.957031 45.21875 98.632812 54.441406 93.308594 L 54.441406 61.515625 Z M 27.671875 77.9375 L 53.542969 63.015625 L 53.542969 92.859375 L 27.671875 107.78125 Z M 27.671875 77.9375 "/><path style=" stroke:none;fill-rule:nonzero;fill:#545454;fill-opacity:1;" d="M 53.765625 62.640625 L 107.832031 93.835938 L 107.832031 61.964844 L 80.910156 46.445312 L 80.460938 47.195312 L 106.929688 62.492188 L 106.929688 92.335938 L 54.140625 61.890625 Z M 53.765625 62.640625 "/><path style=" stroke:none;fill-rule:nonzero;fill:#545454;fill-opacity:1;" d="M 53.765625 0.179688 L 26.847656 15.699219 L 26.847656 47.042969 C 35.921875 52.292969 44.917969 57.46875 53.992188 62.714844 C 63.066406 57.46875 72.0625 52.21875 81.136719 47.042969 L 81.136719 15.699219 L 53.917969 0.0273438 Z M 27.671875 16.226562 L 53.917969 1.078125 L 80.160156 16.226562 L 80.160156 46.59375 L 53.917969 61.742188 L 27.671875 46.59375 Z M 27.671875 16.226562 "/><path style=" stroke:none;fill-rule:nonzero;fill:#545454;fill-opacity:1;" d="M 80.910156 46.445312 L 54.140625 30.996094 L 53.765625 31.746094 L 80.460938 47.195312 Z M 80.910156 46.445312 "/><path style=" stroke:none;fill-rule:nonzero;fill:#545454;fill-opacity:1;" d="M 27.449219 47.195312 L 54.140625 31.746094 L 53.765625 30.996094 L 27 46.445312 Z M 27.449219 47.195312 "/><path style=" stroke:none;fill-rule:nonzero;fill:#545454;fill-opacity:1;" d="M 27 16.375 L 53.765625 31.746094 L 54.140625 30.996094 L 27.449219 15.625 Z M 27 16.375 "/><path style=" stroke:none;fill-rule:nonzero;fill:#545454;fill-opacity:1;" d="M 107.15625 61.890625 L 80.460938 77.261719 L 80.910156 78.089844 L 107.605469 62.640625 Z M 107.15625 61.890625 "/><path style=" stroke:none;fill-rule:nonzero;fill:#545454;fill-opacity:1;" d="M 80.460938 77.261719 L 53.765625 92.710938 L 54.140625 93.460938 L 80.910156 78.089844 Z M 80.460938 77.261719 "/></g><mask id="0dc08568e5"><g filter="url(#f9e8398808)"><rect x="0" width="375" y="0" height="374.999991" style="fill:#000000;fill-opacity:0.5;stroke:none;"/></g></mask></g></g></svg>