<svg xmlns="http://www.w3.org/2000/svg" xmlns:xlink="http://www.w3.org/1999/xlink" width="500" zoomAndPan="magnify" viewBox="0 0 375 374.999991" height="500" preserveAspectRatio="xMidYMid meet" version="1.2"><defs><filter x="0%" y="0%" width="100%" filterUnits="objectBoundingBox" id="8f9933400e" height="100%"><feColorMatrix values="0 0 0 0 1 0 0 0 0 1 0 0 0 0 1 0 0 0 1 0" type="matrix" in="SourceGraphic"/></filter><clipPath id="7ee2733898"><path d="M 340 1.3125 L 374.882812 1.3125 L 374.882812 90.535156 L 340 90.535156 Z M 340 1.3125 "/></clipPath><clipPath id="0365b4cbaf"><rect x="0" width="375" y="0" height="149"/></clipPath></defs><g id="561a788289"><g mask="url(#a3fd1c819d)" transform="matrix(1,0,0,1,0,226)"><g clip-path="url(#0365b4cbaf)"><path style=" stroke:none;fill-rule:nonzero;fill:#545454;fill-opacity:1;" d="M 0.808594 70.136719 L 17.992188 80.0625 L 17.992188 99.941406 L 17.113281 99.941406 L 17.113281 80.570312 L 0.808594 71.15625 L 0.808594 70.136719 "/><path style=" stroke:none;fill-rule:nonzero;fill:#545454;fill-opacity:1;" d="M 34.769531 70.886719 L 17.777344 80.695312 L 17.335938 79.933594 L 34.328125 70.125 L 34.769531 70.886719 "/><path style=" stroke:none;fill-rule:nonzero;fill:#545454;fill-opacity:1;" d="M 17.777344 80.695312 L 0.792969 90.503906 L 0.792969 89.484375 L 17.335938 79.933594 L 17.777344 80.695312 "/><path style=" stroke:none;fill-rule:nonzero;fill:#545454;fill-opacity:1;" d="M 17.773438 100.320312 L 1.003906 110.003906 L 0.566406 148.992188 L 0.117188 109.496094 L 17.335938 99.558594 L 17.773438 100.320312 "/><path style=" stroke:none;fill-rule:nonzero;fill:#545454;fill-opacity:1;" d="M 17.554688 148.996094 L 17.113281 99.941406 L 17.992188 99.941406 L 17.554688 148.996094 "/><path style=" stroke:none;fill-rule:nonzero;fill:#545454;fill-opacity:1;" d="M 34.988281 90.382812 L 34.550781 148.996094 L 34.109375 90.128906 L 34.988281 90.382812 "/><path style=" stroke:none;fill-rule:nonzero;fill:#545454;fill-opacity:1;" d="M 68.097656 51.132812 L 51.542969 41.578125 L 34.992188 51.132812 L 34.992188 70.253906 L 68.097656 89.367188 Z M 51.761719 40.6875 L 68.980469 50.628906 C 68.992188 64.050781 68.984375 77.46875 68.980469 90.890625 C 57.359375 84.179688 45.738281 77.460938 34.109375 70.757812 L 34.109375 50.628906 L 51.542969 40.5625 L 51.761719 40.6875 "/><path style=" stroke:none;fill-rule:nonzero;fill:#545454;fill-opacity:1;" d="M 34.328125 70.125 L 51.324219 60.3125 L 51.761719 61.074219 L 34.769531 70.886719 L 34.328125 70.125 "/><path style=" stroke:none;fill-rule:nonzero;fill:#545454;fill-opacity:1;" d="M 68.320312 70.886719 L 51.324219 61.074219 L 51.761719 60.3125 L 68.757812 70.125 L 68.320312 70.886719 "/><path style=" stroke:none;fill-rule:nonzero;fill:#545454;fill-opacity:1;" d="M 34.769531 50.5 L 51.761719 60.3125 L 51.324219 61.074219 L 34.328125 51.261719 L 34.769531 50.5 "/><path style=" stroke:none;fill-rule:nonzero;fill:#545454;fill-opacity:1;" d="M 68.757812 51.261719 L 51.761719 61.074219 L 51.324219 60.3125 L 68.316406 50.5 L 68.757812 51.261719 "/><path style=" stroke:none;fill-rule:nonzero;fill:#545454;fill-opacity:1;" d="M 51.984375 60.695312 L 51.984375 80.316406 L 51.105469 80.316406 L 51.105469 60.695312 L 51.984375 60.695312 "/><path style=" stroke:none;fill-rule:nonzero;fill:#545454;fill-opacity:1;" d="M 51.984375 80.316406 L 51.542969 148.996094 L 51.105469 80.316406 L 51.984375 80.316406 "/><path style=" stroke:none;fill-rule:nonzero;fill:#545454;fill-opacity:1;" d="M 101.648438 90.128906 L 85.53125 80.824219 L 69.417969 90.128906 L 85.53125 99.433594 Z M 85.753906 79.933594 L 103.40625 90.128906 L 85.53125 100.449219 L 67.65625 90.128906 L 85.53125 79.808594 L 85.753906 79.933594 "/><path style=" stroke:none;fill-rule:nonzero;fill:#545454;fill-opacity:1;" d="M 68.980469 90.128906 L 68.980469 109.753906 L 68.097656 109.753906 L 68.097656 90.128906 L 68.980469 90.128906 "/><path style=" stroke:none;fill-rule:nonzero;fill:#545454;fill-opacity:1;" d="M 85.753906 100.320312 L 68.757812 110.132812 L 68.316406 109.371094 L 85.3125 99.558594 L 85.753906 100.320312 "/><path style=" stroke:none;fill-rule:nonzero;fill:#545454;fill-opacity:1;" d="M 102.308594 70.125 L 119.523438 60.183594 C 125.335938 63.535156 131.144531 66.894531 136.957031 70.25 L 136.957031 90.382812 C 131.144531 93.730469 125.335938 97.09375 119.523438 100.449219 C 113.710938 97.085938 107.902344 93.730469 102.085938 90.382812 C 102.085938 83.671875 102.09375 76.960938 102.085938 70.25 Z M 119.523438 61.199219 L 102.96875 70.757812 L 102.96875 89.875 L 119.523438 99.433594 L 136.074219 89.875 L 136.074219 70.757812 L 119.523438 61.199219 "/><path style=" stroke:none;fill-rule:nonzero;fill:#545454;fill-opacity:1;" d="M 136.734375 70.886719 L 119.742188 80.695312 L 119.300781 79.933594 L 136.296875 70.125 L 136.734375 70.886719 "/><path style=" stroke:none;fill-rule:nonzero;fill:#545454;fill-opacity:1;" d="M 102.75 70.125 L 119.742188 79.933594 L 119.300781 80.695312 L 102.304688 70.886719 L 102.75 70.125 "/><path style=" stroke:none;fill-rule:nonzero;fill:#545454;fill-opacity:1;" d="M 119.746094 79.933594 L 136.738281 89.746094 L 136.296875 90.511719 L 119.300781 80.695312 L 119.746094 79.933594 "/><path style=" stroke:none;fill-rule:nonzero;fill:#545454;fill-opacity:1;" d="M 119.746094 80.695312 L 102.75 90.511719 L 102.304688 89.746094 L 119.300781 79.933594 L 119.746094 80.695312 "/><path style=" stroke:none;fill-rule:nonzero;fill:#545454;fill-opacity:1;" d="M 119.960938 80.316406 L 119.960938 99.9375 L 119.082031 99.9375 L 119.082031 80.316406 L 119.960938 80.316406 "/><path style=" stroke:none;fill-rule:nonzero;fill:#545454;fill-opacity:1;" d="M 85.972656 99.9375 L 85.53125 148.996094 L 85.09375 99.9375 L 85.972656 99.9375 "/><path style=" stroke:none;fill-rule:nonzero;fill:#545454;fill-opacity:1;" d="M 119.746094 100.320312 L 102.75 110.132812 L 102.304688 109.367188 L 119.300781 99.558594 L 119.746094 100.320312 "/><path style=" stroke:none;fill-rule:nonzero;fill:#545454;fill-opacity:1;" d="M 170.722656 110.132812 L 153.511719 120.070312 C 147.703125 116.710938 141.886719 113.355469 136.074219 110.003906 L 136.074219 89.875 C 141.882812 86.515625 147.699219 83.164062 153.511719 79.804688 C 159.324219 83.160156 165.132812 86.519531 170.945312 89.875 L 170.945312 110.003906 Z M 153.511719 119.058594 L 170.066406 109.496094 L 170.066406 90.378906 L 153.511719 80.824219 L 136.957031 90.382812 L 136.957031 109.496094 L 153.511719 119.058594 "/><path style=" stroke:none;fill-rule:nonzero;fill:#545454;fill-opacity:1;" d="M 136.734375 89.746094 L 153.949219 99.6875 L 153.949219 119.5625 L 153.070312 119.5625 L 153.070312 100.191406 L 136.296875 90.511719 L 136.734375 89.746094 "/><path style=" stroke:none;fill-rule:nonzero;fill:#545454;fill-opacity:1;" d="M 136.738281 110.132812 L 119.523438 120.074219 C 113.710938 116.714844 107.902344 113.359375 102.089844 110.007812 L 102.089844 90.128906 L 102.96875 90.128906 L 102.96875 109.496094 L 119.523438 119.054688 L 136.296875 109.371094 L 136.738281 110.132812 "/><path style=" stroke:none;fill-rule:nonzero;fill:#545454;fill-opacity:1;" d="M 136.957031 109.753906 L 136.519531 149 L 136.074219 109.753906 L 136.957031 109.753906 "/><path style=" stroke:none;fill-rule:nonzero;fill:#545454;fill-opacity:1;" d="M 170.945312 109.753906 L 170.503906 148.996094 L 170.066406 109.753906 L 170.945312 109.753906 "/><path style=" stroke:none;fill-rule:nonzero;fill:#545454;fill-opacity:1;" d="M 170.066406 90.128906 L 170.066406 51.132812 L 153.511719 41.578125 L 136.957031 51.132812 L 136.957031 70.503906 L 136.074219 70.503906 L 136.074219 50.628906 L 153.511719 40.558594 C 159.324219 43.914062 165.136719 47.265625 170.941406 50.625 L 170.945312 90.128906 L 170.066406 90.128906 "/><path style=" stroke:none;fill-rule:nonzero;fill:#545454;fill-opacity:1;" d="M 136.734375 50.5 L 153.730469 60.308594 L 153.292969 61.074219 L 136.296875 51.261719 L 136.734375 50.5 "/><path style=" stroke:none;fill-rule:nonzero;fill:#545454;fill-opacity:1;" d="M 170.722656 51.261719 L 153.730469 61.074219 L 153.292969 60.308594 L 170.285156 50.5 L 170.722656 51.261719 "/><path style=" stroke:none;fill-rule:nonzero;fill:#545454;fill-opacity:1;" d="M 153.730469 61.074219 L 136.738281 70.886719 L 136.296875 70.121094 L 153.292969 60.308594 L 153.730469 61.074219 "/><path style=" stroke:none;fill-rule:nonzero;fill:#545454;fill-opacity:1;" d="M 153.949219 60.691406 L 153.949219 80.316406 L 153.070312 80.316406 L 153.070312 60.691406 L 153.949219 60.691406 "/><path style=" stroke:none;fill-rule:nonzero;fill:#545454;fill-opacity:1;" d="M 204.054688 50.878906 L 204.054688 31.507812 L 187.5 21.953125 L 170.945312 31.507812 L 170.945312 50.878906 L 170.066406 50.878906 L 170.066406 31.003906 C 175.875 27.648438 181.683594 24.289062 187.5 20.9375 C 193.316406 24.289062 199.125 27.648438 204.933594 31.003906 L 204.933594 50.878906 L 204.054688 50.878906 "/><path style=" stroke:none;fill-rule:nonzero;fill:#545454;fill-opacity:1;" d="M 204.714844 31.636719 L 187.71875 41.449219 L 187.277344 40.683594 L 204.273438 30.875 L 204.714844 31.636719 "/><path style=" stroke:none;fill-rule:nonzero;fill:#545454;fill-opacity:1;" d="M 170.726562 30.875 L 187.71875 40.683594 L 187.277344 41.449219 L 170.285156 31.636719 L 170.726562 30.875 "/><path style=" stroke:none;fill-rule:nonzero;fill:#545454;fill-opacity:1;" d="M 187.71875 40.683594 L 204.710938 50.5 L 204.277344 51.261719 L 187.28125 41.449219 L 187.71875 40.683594 "/><path style=" stroke:none;fill-rule:nonzero;fill:#545454;fill-opacity:1;" d="M 187.71875 41.449219 L 170.722656 51.261719 L 170.285156 50.5 L 187.28125 40.683594 L 187.71875 41.449219 "/><path style=" stroke:none;fill-rule:nonzero;fill:#545454;fill-opacity:1;" d="M 187.9375 41.070312 L 187.9375 60.691406 L 187.0625 60.691406 L 187.058594 41.070312 L 187.9375 41.070312 "/><path style=" stroke:none;fill-rule:nonzero;fill:#545454;fill-opacity:1;" d="M 221.050781 60.691406 L 221.050781 21.699219 L 204.496094 12.140625 L 187.71875 21.828125 L 187.28125 21.0625 L 204.496094 11.125 C 210.308594 14.476562 216.121094 17.832031 221.929688 21.191406 L 221.929688 60.691406 L 221.050781 60.691406 "/><path style=" stroke:none;fill-rule:nonzero;fill:#545454;fill-opacity:1;" d="M 221.710938 21.828125 L 204.714844 31.636719 L 204.273438 30.875 L 221.269531 21.0625 L 221.710938 21.828125 "/><path style=" stroke:none;fill-rule:nonzero;fill:#545454;fill-opacity:1;" d="M 187.28125 60.308594 L 204.933594 50.117188 C 204.9375 57 204.941406 63.875 204.933594 70.757812 L 187.058594 81.082031 L 187.058594 60.4375 Z M 204.054688 51.640625 L 187.941406 60.941406 L 187.941406 79.550781 L 204.054688 70.25 L 204.054688 51.640625 "/><path style=" stroke:none;fill-rule:nonzero;fill:#545454;fill-opacity:1;" d="M 187.71875 61.074219 L 170.722656 70.886719 L 170.285156 70.121094 L 187.28125 60.308594 L 187.71875 61.074219 "/><path style=" stroke:none;fill-rule:nonzero;fill:#545454;fill-opacity:1;" d="M 170.726562 70.121094 L 187.71875 79.933594 L 187.277344 80.695312 L 170.285156 70.886719 L 170.726562 70.121094 "/><path style=" stroke:none;fill-rule:nonzero;fill:#545454;fill-opacity:1;" d="M 187.71875 80.695312 L 170.722656 90.507812 L 170.285156 89.746094 L 187.28125 79.933594 L 187.71875 80.695312 "/><path style=" stroke:none;fill-rule:nonzero;fill:#545454;fill-opacity:1;" d="M 170.726562 89.746094 L 187.71875 99.558594 L 187.277344 100.320312 L 170.285156 90.511719 L 170.726562 89.746094 "/><path style=" stroke:none;fill-rule:nonzero;fill:#545454;fill-opacity:1;" d="M 187.71875 100.320312 L 170.722656 110.132812 L 170.289062 109.371094 L 187.28125 99.558594 L 187.71875 100.320312 "/><path style=" stroke:none;fill-rule:nonzero;fill:#545454;fill-opacity:1;" d="M 187.9375 80.316406 L 187.9375 99.9375 L 187.0625 99.9375 L 187.0625 80.316406 L 187.9375 80.316406 "/><path style=" stroke:none;fill-rule:nonzero;fill:#545454;fill-opacity:1;" d="M 204.933594 90.128906 L 204.496094 148.996094 L 204.054688 90.128906 L 204.511719 89.765625 L 204.933594 90.128906 "/><path style=" stroke:none;fill-rule:nonzero;fill:#545454;fill-opacity:1;" d="M 187.9375 99.9375 L 187.5 149 L 187.0625 99.941406 L 187.539062 99.550781 L 187.9375 99.9375 "/><path style=" stroke:none;fill-rule:nonzero;fill:#545454;fill-opacity:1;" d="M 204.714844 50.5 L 221.710938 60.308594 L 221.265625 61.074219 L 204.273438 51.261719 L 204.714844 50.5 "/><path style=" stroke:none;fill-rule:nonzero;fill:#545454;fill-opacity:1;" d="M 221.710938 61.074219 L 204.714844 70.886719 L 204.273438 70.121094 L 221.265625 60.308594 L 221.710938 61.074219 "/><path style=" stroke:none;fill-rule:nonzero;fill:#545454;fill-opacity:1;" d="M 254.597656 60.691406 L 238.480469 51.390625 L 222.367188 60.691406 L 238.480469 69.996094 Z M 238.703125 50.5 L 256.355469 60.695312 L 238.480469 71.011719 C 232.527344 67.566406 226.566406 64.132812 220.609375 60.695312 L 238.480469 50.375 L 238.703125 50.5 "/><path style=" stroke:none;fill-rule:nonzero;fill:#545454;fill-opacity:1;" d="M 221.929688 60.691406 L 221.929688 119.5625 L 221.050781 119.5625 L 221.050781 60.691406 L 221.929688 60.691406 "/><path style=" stroke:none;fill-rule:nonzero;fill:#545454;fill-opacity:1;" d="M 255.917969 60.691406 L 255.917969 119.5625 L 255.039062 119.5625 L 255.035156 60.691406 L 255.917969 60.691406 "/><path style=" stroke:none;fill-rule:nonzero;fill:#545454;fill-opacity:1;" d="M 204.714844 70.121094 L 221.710938 79.933594 L 221.265625 80.695312 L 204.273438 70.886719 L 204.714844 70.121094 "/><path style=" stroke:none;fill-rule:nonzero;fill:#545454;fill-opacity:1;" d="M 238.703125 70.886719 L 221.707031 80.695312 L 221.269531 79.933594 L 238.265625 70.121094 L 238.703125 70.886719 "/><path style=" stroke:none;fill-rule:nonzero;fill:#545454;fill-opacity:1;" d="M 221.707031 80.695312 L 204.710938 90.507812 L 204.277344 89.746094 L 221.269531 79.933594 L 221.707031 80.695312 "/><path style=" stroke:none;fill-rule:nonzero;fill:#545454;fill-opacity:1;" d="M 221.707031 79.933594 L 255.699219 99.558594 L 255.257812 100.320312 L 221.269531 80.695312 L 221.707031 79.933594 "/><path style=" stroke:none;fill-rule:nonzero;fill:#545454;fill-opacity:1;" d="M 255.699219 100.320312 L 221.707031 119.945312 L 221.269531 119.183594 L 255.257812 99.558594 L 255.699219 100.320312 "/><path style=" stroke:none;fill-rule:nonzero;fill:#545454;fill-opacity:1;" d="M 255.257812 40.683594 L 272.472656 30.746094 C 278.285156 34.101562 284.097656 37.457031 289.90625 40.8125 C 289.917969 54.234375 289.90625 67.65625 289.90625 81.078125 C 278.28125 74.367188 266.664062 67.648438 255.035156 60.945312 L 255.035156 40.8125 Z M 272.472656 31.765625 L 255.917969 41.320312 L 255.917969 60.4375 L 289.027344 79.554688 L 289.027344 41.324219 L 272.472656 31.765625 "/><path style=" stroke:none;fill-rule:nonzero;fill:#545454;fill-opacity:1;" d="M 289.6875 41.449219 L 272.691406 51.261719 L 272.25 50.5 L 289.246094 40.683594 L 289.6875 41.449219 "/><path style=" stroke:none;fill-rule:nonzero;fill:#545454;fill-opacity:1;" d="M 255.699219 40.683594 L 272.691406 50.5 L 272.25 51.261719 L 255.253906 41.449219 L 255.699219 40.683594 "/><path style=" stroke:none;fill-rule:nonzero;fill:#545454;fill-opacity:1;" d="M 272.910156 50.878906 L 272.910156 70.503906 L 272.03125 70.503906 L 272.03125 50.878906 L 272.910156 50.878906 "/><path style=" stroke:none;fill-rule:nonzero;fill:#545454;fill-opacity:1;" d="M 289.6875 80.695312 L 255.699219 100.320312 L 255.253906 99.558594 L 289.246094 79.933594 L 289.6875 80.695312 "/><path style=" stroke:none;fill-rule:nonzero;fill:#545454;fill-opacity:1;" d="M 272.910156 70.503906 L 272.910156 90.128906 L 272.03125 90.128906 L 272.03125 70.503906 L 272.910156 70.503906 "/><path style=" stroke:none;fill-rule:nonzero;fill:#545454;fill-opacity:1;" d="M 272.910156 90.128906 L 272.910156 109.75 L 272.03125 109.75 L 272.03125 90.128906 L 272.910156 90.128906 "/><path style=" stroke:none;fill-rule:nonzero;fill:#545454;fill-opacity:1;" d="M 272.695312 110.132812 L 255.699219 119.945312 L 255.253906 119.183594 L 272.25 109.367188 L 272.695312 110.132812 "/><path style=" stroke:none;fill-rule:nonzero;fill:#545454;fill-opacity:1;" d="M 289.6875 100.320312 L 272.691406 110.132812 L 272.25 109.367188 L 289.246094 99.558594 L 289.6875 100.320312 "/><path style=" stroke:none;fill-rule:nonzero;fill:#545454;fill-opacity:1;" d="M 289.90625 80.316406 L 289.90625 119.5625 L 289.027344 119.5625 L 289.027344 80.316406 L 289.90625 80.316406 "/><path style=" stroke:none;fill-rule:nonzero;fill:#545454;fill-opacity:1;" d="M 272.910156 109.75 L 272.472656 148.996094 L 272.03125 109.75 L 272.910156 109.75 "/><path style=" stroke:none;fill-rule:nonzero;fill:#545454;fill-opacity:1;" d="M 323.015625 60.691406 L 323.015625 41.320312 L 306.464844 31.765625 L 289.6875 41.449219 L 289.246094 40.683594 L 306.464844 30.746094 C 312.273438 34.101562 318.085938 37.457031 323.894531 40.8125 L 323.894531 60.691406 L 323.015625 60.691406 "/><path style=" stroke:none;fill-rule:nonzero;fill:#545454;fill-opacity:1;" d="M 340.011719 70.503906 L 340.011719 31.507812 L 323.457031 21.953125 L 306.679688 31.636719 L 306.242188 30.875 L 323.457031 20.9375 L 340.890625 31.003906 L 340.890625 70.503906 L 340.011719 70.503906 "/><g clip-rule="nonzero" clip-path="url(#7ee2733898)"><path style=" stroke:none;fill-rule:nonzero;fill:#545454;fill-opacity:1;" d="M 374 11.886719 L 357.441406 2.328125 L 340.890625 11.882812 L 340.890625 31.257812 L 340.007812 31.257812 L 340.007812 11.378906 C 345.824219 8.023438 351.632812 4.667969 357.441406 1.3125 C 362.816406 4.410156 369.511719 8.273438 374.882812 11.378906 L 374.882812 70.753906 L 340.667969 90.511719 L 340.230469 89.746094 L 374 70.246094 L 374 11.886719 "/></g><path style=" stroke:none;fill-rule:nonzero;fill:#545454;fill-opacity:1;" d="M 374.238281 12.257812 L 357.664062 21.824219 L 357.226562 21.0625 L 374.238281 11.238281 L 374.238281 12.257812 "/><path style=" stroke:none;fill-rule:nonzero;fill:#545454;fill-opacity:1;" d="M 340.667969 11.25 L 357.664062 21.0625 L 357.226562 21.824219 L 340.234375 12.015625 L 340.667969 11.25 "/><path style=" stroke:none;fill-rule:nonzero;fill:#545454;fill-opacity:1;" d="M 357.886719 21.441406 L 357.886719 41.070312 L 357.007812 41.070312 L 357.007812 21.441406 L 357.886719 21.441406 "/><path style=" stroke:none;fill-rule:nonzero;fill:#545454;fill-opacity:1;" d="M 289.6875 40.683594 L 323.675781 60.308594 L 323.234375 61.074219 L 289.246094 41.449219 L 289.6875 40.683594 "/><path style=" stroke:none;fill-rule:nonzero;fill:#545454;fill-opacity:1;" d="M 340.667969 31.636719 L 306.683594 51.261719 L 306.242188 50.5 L 340.230469 30.875 L 340.667969 31.636719 "/><path style=" stroke:none;fill-rule:nonzero;fill:#545454;fill-opacity:1;" d="M 306.902344 50.882812 L 306.902344 70.503906 L 306.023438 70.503906 L 306.019531 50.882812 L 306.902344 50.882812 "/><path style=" stroke:none;fill-rule:nonzero;fill:#545454;fill-opacity:1;" d="M 323.675781 61.074219 L 289.6875 80.695312 L 289.246094 79.933594 L 323.234375 60.308594 L 323.675781 61.074219 "/><path style=" stroke:none;fill-rule:nonzero;fill:#545454;fill-opacity:1;" d="M 289.6875 79.933594 L 323.675781 99.558594 L 323.234375 100.320312 L 289.246094 80.695312 L 289.6875 79.933594 "/><path style=" stroke:none;fill-rule:nonzero;fill:#545454;fill-opacity:1;" d="M 323.894531 60.691406 L 323.894531 99.9375 L 323.015625 99.9375 L 323.015625 60.691406 L 323.894531 60.691406 "/><path style=" stroke:none;fill-rule:nonzero;fill:#545454;fill-opacity:1;" d="M 306.683594 90.507812 L 289.6875 100.320312 L 289.246094 99.558594 L 306.242188 89.746094 L 306.683594 90.507812 "/><path style=" stroke:none;fill-rule:nonzero;fill:#545454;fill-opacity:1;" d="M 306.902344 70.503906 L 306.902344 90.128906 L 306.023438 90.128906 L 306.023438 70.503906 L 306.902344 70.503906 "/><path style=" stroke:none;fill-rule:nonzero;fill:#545454;fill-opacity:1;" d="M 323.675781 100.320312 L 289.46875 120.070312 L 255.253906 100.320312 L 255.699219 99.558594 L 289.46875 119.054688 L 323.234375 99.558594 L 323.675781 100.320312 "/><path style=" stroke:none;fill-rule:nonzero;fill:#545454;fill-opacity:1;" d="M 306.902344 90.128906 L 306.902344 109.753906 L 306.023438 109.753906 L 306.023438 90.128906 L 306.902344 90.128906 "/><path style=" stroke:none;fill-rule:nonzero;fill:#545454;fill-opacity:1;" d="M 323.675781 40.683594 L 340.667969 50.5 L 340.230469 51.261719 L 323.234375 41.449219 L 323.675781 40.683594 "/><path style=" stroke:none;fill-rule:nonzero;fill:#545454;fill-opacity:1;" d="M 357.664062 21.824219 L 340.667969 31.636719 L 340.234375 30.875 L 357.226562 21.0625 L 357.664062 21.824219 "/><path style=" stroke:none;fill-rule:nonzero;fill:#545454;fill-opacity:1;" d="M 357.664062 41.449219 L 340.667969 51.261719 L 340.230469 50.5 L 357.222656 40.683594 L 357.664062 41.449219 "/><path style=" stroke:none;fill-rule:nonzero;fill:#545454;fill-opacity:1;" d="M 357.664062 40.683594 L 374.449219 50.375 L 374.449219 51.390625 L 357.226562 41.449219 L 357.664062 40.683594 "/><path style=" stroke:none;fill-rule:nonzero;fill:#545454;fill-opacity:1;" d="M 340.667969 50.5 L 374.238281 69.878906 L 374.238281 70.894531 L 340.230469 51.261719 L 340.667969 50.5 "/><path style=" stroke:none;fill-rule:nonzero;fill:#545454;fill-opacity:1;" d="M 340.667969 70.886719 L 323.675781 80.695312 L 323.234375 79.933594 L 340.230469 70.121094 L 340.667969 70.886719 "/><path style=" stroke:none;fill-rule:nonzero;fill:#545454;fill-opacity:1;" d="M 340.890625 70.503906 L 340.890625 109.753906 L 340.011719 109.753906 L 340.011719 70.503906 L 340.890625 70.503906 "/><path style=" stroke:none;fill-rule:nonzero;fill:#545454;fill-opacity:1;" d="M 323.675781 79.933594 L 340.667969 89.746094 L 340.230469 90.507812 L 323.234375 80.695312 L 323.675781 79.933594 "/><path style=" stroke:none;fill-rule:nonzero;fill:#545454;fill-opacity:1;" d="M 340.667969 90.507812 L 323.675781 100.320312 L 323.234375 99.558594 L 340.230469 89.746094 L 340.667969 90.507812 "/><path style=" stroke:none;fill-rule:nonzero;fill:#545454;fill-opacity:1;" d="M 357.886719 60.691406 L 357.886719 80.316406 L 357.003906 80.316406 L 357.003906 60.691406 L 357.886719 60.691406 "/><path style=" stroke:none;fill-rule:nonzero;fill:#545454;fill-opacity:1;" d="M 357.886719 80.316406 L 357.886719 99.9375 L 357.007812 99.9375 L 357.003906 80.316406 L 357.886719 80.316406 "/><path style=" stroke:none;fill-rule:nonzero;fill:#545454;fill-opacity:1;" d="M 340.667969 89.746094 L 374.882812 109.496094 L 374.441406 149 L 374.003906 110.011719 L 340.230469 90.511719 L 340.667969 89.746094 "/><path style=" stroke:none;fill-rule:nonzero;fill:#545454;fill-opacity:1;" d="M 357.664062 100.320312 L 340.667969 110.132812 L 340.230469 109.367188 L 357.222656 99.558594 L 357.664062 100.320312 "/><path style=" stroke:none;fill-rule:nonzero;fill:#545454;fill-opacity:1;" d="M 68.980469 109.753906 L 68.539062 148.996094 L 68.097656 109.753906 L 68.597656 109.425781 L 68.980469 109.753906 "/><path style=" stroke:none;fill-rule:nonzero;fill:#545454;fill-opacity:1;" d="M 204.933594 70.503906 L 204.933594 90.128906 L 204.054688 90.128906 L 204.054688 70.503906 L 204.933594 70.503906 "/><path style=" stroke:none;fill-rule:nonzero;fill:#545454;fill-opacity:1;" d="M 221.929688 119.5625 L 221.488281 148.996094 L 221.050781 119.5625 L 221.496094 119.230469 L 221.929688 119.5625 "/><path style=" stroke:none;fill-rule:nonzero;fill:#545454;fill-opacity:1;" d="M 255.917969 119.5625 L 255.476562 148.996094 L 255.039062 119.5625 L 255.507812 119.269531 L 255.917969 119.5625 "/><path style=" stroke:none;fill-rule:nonzero;fill:#545454;fill-opacity:1;" d="M 323.894531 99.9375 L 323.457031 148.996094 L 323.015625 99.9375 L 323.894531 99.9375 "/><path style=" stroke:none;fill-rule:nonzero;fill:#545454;fill-opacity:1;" d="M 340.890625 109.753906 L 340.449219 148.996094 L 340.011719 109.753906 L 340.484375 109.386719 L 340.890625 109.753906 "/><path style=" stroke:none;fill-rule:nonzero;fill:#545454;fill-opacity:1;" d="M 357.886719 99.9375 L 357.441406 148.996094 L 357.007812 99.9375 L 357.886719 99.9375 "/><path style=" stroke:none;fill-rule:evenodd;fill:#545454;fill-opacity:1;" d="M 0.117188 70.253906 C 5.492188 67.152344 12.179688 63.285156 17.554688 60.183594 C 23.367188 63.535156 29.179688 66.890625 34.988281 70.253906 C 34.996094 76.960938 34.996094 83.671875 34.988281 90.382812 L 34.769531 90.511719 L 17.554688 100.449219 C 12.183594 97.34375 5.492188 93.480469 0.117188 90.382812 C 0.117188 83.671875 0.117188 76.960938 0.117188 70.253906 Z M 1.003906 70.757812 L 1.003906 89.875 L 17.554688 99.433594 L 34.109375 89.871094 L 34.109375 70.757812 L 17.554688 61.199219 L 1.003906 70.757812 "/></g><mask id="a3fd1c819d"><g filter="url(#8f9933400e)"><rect x="0" width="375" y="0" height="374.999991" style="fill:#000000;fill-opacity:0.5;stroke:none;"/></g></mask></g></g></svg>