<svg xmlns="http://www.w3.org/2000/svg" xmlns:xlink="http://www.w3.org/1999/xlink" width="400" zoomAndPan="magnify" viewBox="0 0 300 374.999991" height="500" preserveAspectRatio="xMidYMid meet" version="1.2"><defs><clipPath id="16eaf77e1f"><path d="M 8.953125 0 L 290.953125 0 L 290.953125 296 L 8.953125 296 Z M 8.953125 0 "/></clipPath></defs><g id="6ed5305260"><path style=" stroke:none;fill-rule:nonzero;fill:#000000;fill-opacity:1;" d="M 228.011719 308.980469 C 227.621094 308.980469 227.238281 309.054688 226.871094 309.203125 L 215.453125 313.738281 C 214.609375 314.074219 213.960938 314.753906 213.667969 315.609375 L 212.03125 320.410156 L 166.542969 320.410156 C 165.59375 320.410156 164.679688 320.855469 164.101562 321.609375 C 163.519531 322.359375 163.316406 323.355469 163.554688 324.273438 L 170.355469 350.480469 C 170.707031 351.84375 171.9375 352.796875 173.34375 352.796875 L 203.328125 352.796875 L 205.011719 356.699219 L 171.074219 356.699219 C 169.371094 356.699219 167.988281 358.085938 167.988281 359.789062 C 167.988281 361.488281 169.371094 362.875 171.074219 362.875 L 172.773438 362.875 C 172.171875 364.042969 171.847656 365.34375 171.847656 366.675781 C 171.847656 371.25 175.570312 374.972656 180.144531 374.972656 C 184.714844 374.972656 188.4375 371.25 188.4375 366.675781 C 188.4375 365.34375 188.117188 364.042969 187.511719 362.875 L 194.777344 362.875 C 194.171875 364.042969 193.851562 365.34375 193.851562 366.675781 C 193.851562 371.25 197.570312 374.972656 202.144531 374.972656 C 206.71875 374.972656 210.4375 371.25 210.4375 366.675781 C 210.4375 365.34375 210.117188 364.042969 209.511719 362.875 L 209.703125 362.875 C 210.742188 362.875 211.707031 362.355469 212.28125 361.484375 C 212.855469 360.613281 212.949219 359.523438 212.539062 358.5625 L 208.742188 349.753906 L 212.292969 339.097656 L 212.433594 343.402344 C 214.636719 343.332031 216.855469 343.160156 219.035156 342.894531 L 218.269531 336.59375 C 216.527344 336.804688 214.75 336.949219 212.980469 337.027344 L 217.160156 324.496094 L 219.050781 318.953125 L 229.148438 314.941406 C 229.914062 314.636719 230.515625 314.054688 230.84375 313.296875 C 231.171875 312.539062 231.183594 311.699219 230.878906 310.933594 C 230.410156 309.746094 229.285156 308.980469 228.011719 308.980469 Z M 180.144531 368.792969 C 178.976562 368.792969 178.027344 367.84375 178.027344 366.671875 C 178.027344 365.503906 178.976562 364.550781 180.144531 364.550781 C 181.3125 364.550781 182.265625 365.503906 182.265625 366.671875 C 182.265625 367.84375 181.3125 368.792969 180.144531 368.792969 Z M 202.148438 368.792969 C 200.980469 368.792969 200.027344 367.84375 200.027344 366.671875 C 200.027344 365.503906 200.980469 364.550781 202.148438 364.550781 C 203.316406 364.550781 204.265625 365.503906 204.265625 366.671875 C 204.265625 367.84375 203.316406 368.792969 202.148438 368.792969 Z M 172.4375 333.933594 L 170.53125 326.585938 L 178.355469 326.585938 L 179.269531 333.933594 Z M 175.730469 346.617188 L 174.042969 340.109375 L 180.039062 340.109375 L 180.847656 346.617188 Z M 192.078125 346.617188 L 187.070312 346.617188 L 186.261719 340.109375 L 192.902344 340.109375 Z M 193.683594 333.933594 L 185.492188 333.933594 L 184.578125 326.585938 L 194.613281 326.585938 Z M 203.28125 346.617188 L 198.300781 346.617188 L 199.125 340.109375 L 205.449219 340.109375 Z M 207.507812 333.933594 L 199.90625 333.933594 L 200.835938 326.585938 L 209.957031 326.585938 Z M 207.507812 333.933594 "/><path style=" stroke:none;fill-rule:nonzero;fill:#000000;fill-opacity:1;" d="M 148.042969 324.808594 C 149.996094 321.804688 151.132812 318.226562 151.132812 314.386719 C 151.132812 311.429688 150.460938 308.628906 149.261719 306.125 L 164.78125 306.125 C 165.019531 306.125 165.257812 306.105469 165.484375 306.0625 C 165.609375 306.074219 165.738281 306.082031 165.863281 306.082031 L 218.476562 306.082031 C 220.722656 306.082031 222.546875 304.257812 222.546875 302.007812 L 222.546875 295.007812 C 222.546875 288.917969 220.753906 283.042969 217.359375 278.015625 C 214.949219 274.449219 211.847656 271.464844 208.246094 269.21875 C 210.199219 266.214844 211.332031 262.636719 211.332031 258.796875 C 211.332031 248.226562 202.738281 239.628906 192.171875 239.628906 C 181.605469 239.628906 173.007812 248.226562 173.007812 258.796875 C 173.007812 262.636719 174.144531 266.21875 176.097656 269.21875 C 172.226562 271.636719 168.9375 274.898438 166.484375 278.78125 C 166.460938 278.816406 166.4375 278.855469 166.414062 278.894531 C 165.324219 275.941406 163.878906 273.117188 162.089844 270.472656 C 158.675781 265.414062 154.1875 261.253906 148.953125 258.253906 C 152.046875 254.078125 153.71875 249.039062 153.71875 243.746094 C 153.71875 237.214844 151.175781 231.078125 146.5625 226.460938 C 141.945312 221.84375 135.8125 219.300781 129.285156 219.300781 C 122.757812 219.300781 116.621094 221.84375 112.007812 226.460938 C 107.390625 231.078125 104.847656 237.214844 104.847656 243.746094 C 104.847656 249.039062 106.523438 254.078125 109.617188 258.257812 C 104.027344 261.464844 99.289062 265.992188 95.824219 271.46875 C 94.363281 273.78125 93.152344 276.226562 92.207031 278.765625 C 92.054688 278.527344 91.902344 278.292969 91.746094 278.058594 C 89.335938 274.492188 86.234375 271.507812 82.632812 269.261719 C 84.582031 266.257812 85.71875 262.679688 85.71875 258.839844 C 85.71875 248.269531 77.125 239.667969 66.558594 239.667969 C 55.992188 239.667969 47.394531 248.269531 47.394531 258.839844 C 47.394531 262.679688 48.53125 266.257812 50.484375 269.261719 C 46.613281 271.679688 43.324219 274.941406 40.871094 278.820312 C 37.800781 283.671875 36.179688 289.285156 36.179688 295.050781 L 36.179688 302.050781 C 36.179688 304.300781 38.003906 306.125 40.253906 306.125 L 92.863281 306.125 C 93.019531 306.125 93.175781 306.113281 93.328125 306.097656 C 93.480469 306.113281 93.632812 306.125 93.789062 306.125 L 114.679688 306.125 C 113.480469 308.625 112.804688 311.425781 112.804688 314.382812 C 112.804688 318.226562 113.941406 321.804688 115.894531 324.808594 C 112.027344 327.222656 108.738281 330.484375 106.28125 334.367188 C 103.214844 339.21875 101.589844 344.828125 101.589844 350.59375 L 101.589844 357.59375 C 101.589844 359.84375 103.414062 361.667969 105.664062 361.667969 L 158.273438 361.667969 C 160.523438 361.667969 162.34375 359.84375 162.34375 357.59375 L 162.34375 350.59375 C 162.34375 344.503906 160.550781 338.628906 157.15625 333.601562 C 154.75 330.039062 151.644531 327.054688 148.042969 324.808594 Z M 120.949219 314.386719 C 120.949219 308.308594 125.894531 303.363281 131.96875 303.363281 C 138.042969 303.363281 142.988281 308.308594 142.988281 314.386719 C 142.988281 320.464844 138.042969 325.410156 131.96875 325.410156 C 125.894531 325.410156 120.949219 320.464844 120.949219 314.386719 Z M 192.167969 247.777344 C 198.246094 247.777344 203.1875 252.722656 203.1875 258.796875 C 203.1875 264.875 198.246094 269.820312 192.167969 269.820312 C 186.09375 269.820312 181.152344 264.875 181.152344 258.796875 C 181.152344 252.71875 186.09375 247.777344 192.167969 247.777344 Z M 169.9375 295.007812 C 169.9375 290.789062 171.121094 286.683594 173.367188 283.136719 C 175.527344 279.71875 178.570312 276.960938 182.167969 275.140625 C 185.082031 276.933594 188.507812 277.96875 192.171875 277.96875 C 195.835938 277.96875 199.261719 276.933594 202.175781 275.140625 C 209.648438 278.90625 214.402344 286.550781 214.402344 295.007812 L 214.402344 297.9375 L 169.9375 297.9375 Z M 129.285156 227.449219 C 138.265625 227.449219 145.574219 234.761719 145.574219 243.746094 C 145.574219 252.730469 138.265625 260.042969 129.285156 260.042969 C 120.304688 260.042969 112.992188 252.730469 112.992188 243.746094 C 112.992188 234.761719 120.300781 227.449219 129.285156 227.449219 Z M 66.558594 247.820312 C 72.632812 247.820312 77.578125 252.765625 77.578125 258.839844 C 77.578125 264.921875 72.632812 269.863281 66.558594 269.863281 C 60.484375 269.863281 55.539062 264.917969 55.539062 258.839844 C 55.539062 252.761719 60.484375 247.820312 66.558594 247.820312 Z M 88.792969 297.980469 L 44.324219 297.980469 L 44.324219 295.054688 C 44.324219 290.832031 45.511719 286.726562 47.753906 283.183594 C 49.914062 279.765625 52.957031 277.003906 56.558594 275.1875 C 59.472656 276.976562 62.894531 278.011719 66.558594 278.011719 C 70.222656 278.011719 73.648438 276.976562 76.5625 275.1875 C 84.039062 278.949219 88.792969 286.59375 88.792969 295.054688 Z M 97.863281 292.609375 C 97.863281 286.644531 99.539062 280.839844 102.707031 275.828125 C 105.796875 270.945312 110.160156 267.003906 115.324219 264.441406 C 115.496094 264.351562 115.660156 264.253906 115.816406 264.148438 C 119.777344 266.777344 124.421875 268.1875 129.285156 268.1875 C 134.128906 268.1875 138.757812 266.789062 142.707031 264.179688 C 147.8125 266.589844 152.160156 270.324219 155.34375 275.039062 C 158.855469 280.234375 160.710938 286.308594 160.710938 292.609375 L 160.710938 297.980469 L 141.871094 297.980469 C 138.980469 296.230469 135.59375 295.21875 131.972656 295.21875 C 128.324219 295.21875 124.914062 296.242188 122.007812 298.019531 C 121.828125 297.996094 121.644531 297.980469 121.460938 297.980469 L 97.863281 297.980469 Z M 154.203125 353.527344 L 109.734375 353.527344 L 109.734375 350.597656 C 109.734375 346.378906 110.921875 342.273438 113.164062 338.726562 C 115.324219 335.308594 118.367188 332.550781 121.96875 330.730469 C 124.882812 332.523438 128.304688 333.554688 131.96875 333.554688 C 135.632812 333.554688 139.058594 332.523438 141.972656 330.730469 C 149.449219 334.496094 154.203125 342.140625 154.203125 350.597656 Z M 154.203125 353.527344 "/><g clip-rule="nonzero" clip-path="url(#16eaf77e1f)"><path style=" stroke:none;fill-rule:nonzero;fill:#000000;fill-opacity:1;" d="M 285.273438 228.878906 L 249.777344 193.371094 L 249.777344 7.820312 C 249.777344 3.527344 246.28125 0.0351562 241.992188 0.0351562 L 16.738281 0.0351562 C 12.445312 0.0351562 8.953125 3.527344 8.953125 7.820312 L 8.953125 287.125 C 8.953125 291.515625 12.527344 295.089844 16.914062 295.089844 L 26.777344 295.089844 C 29.023438 295.089844 30.847656 293.265625 30.847656 291.015625 C 30.847656 288.765625 29.023438 286.941406 26.777344 286.941406 L 17.097656 286.941406 L 17.097656 8.179688 L 241.632812 8.179688 L 241.632812 186.078125 C 240.300781 185.761719 238.847656 186.125 237.808594 187.160156 L 236.585938 188.382812 L 227.992188 179.785156 C 230.800781 175.644531 233.167969 171.214844 235.066406 166.535156 C 238.554688 157.929688 240.320312 148.835938 240.320312 139.507812 C 240.320312 130.179688 238.554688 121.089844 235.066406 112.480469 C 231.453125 103.570312 226.144531 95.574219 219.292969 88.71875 C 212.441406 81.863281 204.445312 76.554688 195.539062 72.941406 C 186.933594 69.449219 177.84375 67.683594 168.519531 67.683594 C 159.195312 67.683594 150.105469 69.453125 141.503906 72.941406 C 141.019531 73.136719 140.542969 73.335938 140.070312 73.542969 L 100.785156 73.542969 L 100.785156 81.6875 L 125.894531 81.6875 C 123.027344 83.8125 120.308594 86.15625 117.746094 88.71875 C 111.441406 95.023438 106.449219 102.296875 102.875 110.359375 L 85.398438 110.359375 L 85.398438 118.503906 L 99.835938 118.503906 C 97.765625 125.289062 96.714844 132.332031 96.714844 139.507812 C 96.714844 145.167969 97.367188 150.738281 98.65625 156.167969 L 85.496094 156.167969 L 85.496094 164.316406 L 101.117188 164.316406 C 101.390625 165.058594 101.675781 165.800781 101.972656 166.535156 C 105.585938 175.449219 110.894531 183.445312 117.746094 190.300781 C 122.398438 194.953125 127.578125 198.894531 133.210938 202.074219 L 85.496094 202.074219 L 85.496094 210.222656 L 153.796875 210.222656 L 153.796875 209.824219 C 158.613281 210.828125 163.53125 211.335938 168.519531 211.335938 C 177.84375 211.335938 186.933594 209.566406 195.535156 206.078125 C 200.214844 204.179688 204.640625 201.8125 208.78125 199 L 217.378906 207.601562 L 216.15625 208.824219 C 214.5625 210.414062 214.5625 212.992188 216.15625 214.582031 L 241.640625 240.078125 C 241.636719 240.175781 241.628906 240.273438 241.628906 240.371094 L 241.628906 286.945312 L 231.226562 286.945312 C 228.976562 286.945312 227.15625 288.769531 227.15625 291.019531 C 227.15625 293.265625 228.976562 295.089844 231.226562 295.089844 L 241.8125 295.089844 C 246.203125 295.089844 249.773438 291.519531 249.773438 287.125 L 249.773438 248.214844 L 257.859375 256.300781 C 261.519531 259.964844 266.386719 261.980469 271.5625 261.980469 C 273.804688 261.980469 275.988281 261.601562 278.042969 260.875 C 278.109375 261.503906 278.171875 262.132812 278.226562 262.761719 L 284.550781 262.230469 C 284.417969 260.640625 284.230469 259.046875 283.996094 257.464844 C 284.4375 257.097656 284.859375 256.710938 285.269531 256.300781 C 288.929688 252.640625 290.949219 247.769531 290.949219 242.589844 C 290.949219 237.410156 288.933594 232.542969 285.273438 228.878906 Z M 192.476562 198.523438 C 184.847656 201.617188 176.789062 203.1875 168.519531 203.1875 C 160.25 203.1875 152.1875 201.617188 144.5625 198.523438 C 136.667969 195.324219 129.582031 190.617188 123.503906 184.535156 C 117.425781 178.457031 112.722656 171.371094 109.519531 163.472656 C 106.429688 155.84375 104.859375 147.78125 104.859375 139.507812 C 104.859375 131.234375 106.429688 123.171875 109.519531 115.542969 C 112.722656 107.648438 117.425781 100.558594 123.503906 94.480469 C 129.582031 88.398438 136.667969 83.695312 144.5625 80.492188 C 152.1875 77.398438 160.25 75.828125 168.519531 75.828125 C 176.789062 75.828125 184.847656 77.398438 192.476562 80.492188 C 200.371094 83.695312 207.453125 88.398438 213.53125 94.480469 C 219.609375 100.558594 224.316406 107.648438 227.515625 115.542969 C 230.609375 123.171875 232.175781 131.234375 232.175781 139.507812 C 232.175781 147.78125 230.609375 155.84375 227.515625 163.472656 C 224.316406 171.367188 219.613281 178.457031 213.535156 184.535156 L 213.53125 184.539062 C 207.453125 190.617188 200.367188 195.324219 192.476562 198.523438 Z M 223.136719 201.835938 L 215.445312 194.144531 L 219.285156 190.300781 C 219.289062 190.300781 219.289062 190.296875 219.289062 190.296875 C 219.292969 190.296875 219.292969 190.292969 219.296875 190.292969 L 223.136719 186.449219 L 230.828125 194.144531 Z M 263.617188 250.539062 L 224.792969 211.699219 L 240.6875 195.800781 L 279.511719 234.640625 C 283.894531 239.023438 283.894531 246.15625 279.511719 250.539062 C 275.128906 254.921875 268 254.921875 263.617188 250.539062 Z M 263.617188 250.539062 "/></g><path style=" stroke:none;fill-rule:nonzero;fill:#000000;fill-opacity:1;" d="M 222.367188 161.375 C 225.1875 154.410156 226.621094 147.054688 226.621094 139.507812 C 226.621094 131.960938 225.1875 124.601562 222.367188 117.636719 C 219.441406 110.425781 215.148438 103.957031 209.601562 98.410156 C 204.058594 92.863281 197.589844 88.566406 190.378906 85.640625 C 183.417969 82.820312 176.0625 81.386719 168.519531 81.386719 C 160.972656 81.386719 153.617188 82.816406 146.65625 85.640625 C 139.445312 88.566406 132.980469 92.863281 127.433594 98.410156 C 121.890625 103.957031 117.59375 110.425781 114.671875 117.636719 C 111.847656 124.601562 110.417969 131.960938 110.417969 139.507812 C 110.417969 147.054688 111.847656 154.414062 114.671875 161.375 C 117.59375 168.589844 121.890625 175.058594 127.433594 180.605469 C 132.980469 186.152344 139.445312 190.449219 146.65625 193.371094 C 153.621094 196.195312 160.972656 197.628906 168.519531 197.628906 C 176.0625 197.628906 183.417969 196.195312 190.378906 193.371094 C 197.589844 190.449219 204.058594 186.152344 209.601562 180.605469 C 215.148438 175.058594 219.441406 168.589844 222.367188 161.375 Z M 187.320312 185.824219 C 181.335938 188.25 175.007812 189.480469 168.519531 189.480469 C 162.027344 189.480469 155.703125 188.25 149.71875 185.824219 C 143.523438 183.308594 137.964844 179.617188 133.195312 174.84375 C 128.421875 170.074219 124.730469 164.511719 122.21875 158.316406 C 119.792969 152.328125 118.5625 146 118.5625 139.507812 C 118.5625 133.015625 119.792969 126.6875 122.21875 120.703125 C 124.730469 114.503906 128.421875 108.945312 133.195312 104.171875 C 137.964844 99.398438 143.523438 95.707031 149.71875 93.191406 C 155.703125 90.765625 162.027344 89.535156 168.519531 89.535156 C 175.007812 89.535156 181.335938 90.765625 187.320312 93.191406 C 193.515625 95.707031 199.074219 99.398438 203.84375 104.171875 C 208.613281 108.941406 212.304688 114.503906 214.816406 120.703125 C 217.246094 126.6875 218.476562 133.015625 218.476562 139.507812 C 218.476562 146 217.246094 152.328125 214.816406 158.316406 C 212.304688 164.511719 208.613281 170.074219 203.84375 174.84375 C 199.074219 179.617188 193.515625 183.308594 187.320312 185.824219 Z M 187.320312 185.824219 "/><path style=" stroke:none;fill-rule:nonzero;fill:#000000;fill-opacity:1;" d="M 184.964844 135.484375 C 186.914062 132.480469 188.050781 128.902344 188.050781 125.0625 C 188.050781 114.492188 179.453125 105.890625 168.890625 105.890625 C 158.324219 105.890625 149.726562 114.492188 149.726562 125.0625 C 149.726562 128.902344 150.863281 132.480469 152.816406 135.484375 C 148.945312 137.898438 145.65625 141.164062 143.203125 145.042969 C 140.132812 149.894531 138.511719 155.507812 138.511719 161.273438 L 138.511719 168.273438 C 138.511719 170.523438 140.335938 172.347656 142.585938 172.347656 L 195.195312 172.347656 C 197.441406 172.347656 199.265625 170.523438 199.265625 168.273438 L 199.265625 161.273438 C 199.265625 155.183594 197.472656 149.308594 194.074219 144.28125 C 191.667969 140.714844 188.566406 137.730469 184.964844 135.484375 Z M 168.890625 114.039062 C 174.964844 114.039062 179.90625 118.984375 179.90625 125.0625 C 179.90625 131.140625 174.964844 136.085938 168.890625 136.085938 C 162.8125 136.085938 157.871094 131.140625 157.871094 125.0625 C 157.871094 118.984375 162.8125 114.039062 168.890625 114.039062 Z M 191.121094 164.199219 L 146.65625 164.199219 L 146.65625 161.273438 C 146.65625 157.054688 147.839844 152.949219 150.082031 149.402344 C 152.246094 145.984375 155.289062 143.222656 158.886719 141.40625 C 161.800781 143.195312 165.226562 144.230469 168.890625 144.230469 C 172.550781 144.230469 175.976562 143.195312 178.890625 141.40625 C 186.367188 145.167969 191.121094 152.8125 191.121094 161.273438 Z M 191.121094 164.199219 "/><path style=" stroke:none;fill-rule:nonzero;fill:#000000;fill-opacity:1;" d="M 73.648438 101.652344 C 73.648438 99.40625 71.824219 97.582031 69.574219 97.582031 L 44.226562 97.582031 C 41.980469 97.582031 40.15625 99.40625 40.15625 101.652344 L 40.15625 127.011719 C 40.15625 129.257812 41.980469 131.082031 44.226562 131.082031 L 69.574219 131.082031 C 71.824219 131.082031 73.648438 129.257812 73.648438 127.011719 Z M 65.503906 122.9375 L 48.300781 122.9375 L 48.300781 105.726562 L 65.503906 105.726562 Z M 65.503906 122.9375 "/><path style=" stroke:none;fill-rule:nonzero;fill:#000000;fill-opacity:1;" d="M 73.648438 147.5625 C 73.648438 145.3125 71.824219 143.488281 69.574219 143.488281 L 44.226562 143.488281 C 41.980469 143.488281 40.15625 145.3125 40.15625 147.5625 L 40.15625 172.917969 C 40.15625 175.167969 41.980469 176.992188 44.226562 176.992188 L 69.574219 176.992188 C 71.824219 176.992188 73.648438 175.167969 73.648438 172.917969 Z M 65.503906 168.84375 L 48.300781 168.84375 L 48.300781 151.636719 L 65.503906 151.636719 Z M 65.503906 168.84375 "/><path style=" stroke:none;fill-rule:nonzero;fill:#000000;fill-opacity:1;" d="M 69.574219 189.394531 L 44.226562 189.394531 C 41.980469 189.394531 40.15625 191.21875 40.15625 193.46875 L 40.15625 218.824219 C 40.15625 221.074219 41.980469 222.898438 44.226562 222.898438 L 69.574219 222.898438 C 71.824219 222.898438 73.648438 221.074219 73.648438 218.824219 L 73.648438 193.46875 C 73.648438 191.21875 71.824219 189.394531 69.574219 189.394531 Z M 65.503906 214.75 L 48.300781 214.75 L 48.300781 197.542969 L 65.503906 197.542969 Z M 65.503906 214.75 "/><path style=" stroke:none;fill-rule:nonzero;fill:#000000;fill-opacity:1;" d="M 32.089844 33.808594 L 87.914062 33.808594 L 87.914062 41.957031 L 32.089844 41.957031 Z M 32.089844 33.808594 "/><path style=" stroke:none;fill-rule:nonzero;fill:#000000;fill-opacity:1;" d="M 32.089844 53.675781 L 87.914062 53.675781 L 87.914062 61.820312 L 32.089844 61.820312 Z M 32.089844 53.675781 "/><path style=" stroke:none;fill-rule:nonzero;fill:#000000;fill-opacity:1;" d="M 100.785156 53.675781 L 223.136719 53.675781 L 223.136719 61.820312 L 100.785156 61.820312 Z M 100.785156 53.675781 "/><path style=" stroke:none;fill-rule:nonzero;fill:#000000;fill-opacity:1;" d="M 32.089844 73.542969 L 87.914062 73.542969 L 87.914062 81.6875 L 32.089844 81.6875 Z M 32.089844 73.542969 "/><path style=" stroke:none;fill-rule:nonzero;fill:#000000;fill-opacity:1;" d="M 100.785156 33.808594 L 110.992188 33.808594 L 110.992188 41.957031 L 100.785156 41.957031 Z M 100.785156 33.808594 "/><path style=" stroke:none;fill-rule:nonzero;fill:#000000;fill-opacity:1;" d="M 115.75 33.808594 L 125.957031 33.808594 L 125.957031 41.957031 L 115.75 41.957031 Z M 115.75 33.808594 "/><path style=" stroke:none;fill-rule:nonzero;fill:#000000;fill-opacity:1;" d="M 130.714844 33.808594 L 140.921875 33.808594 L 140.921875 41.957031 L 130.714844 41.957031 Z M 130.714844 33.808594 "/><path style=" stroke:none;fill-rule:nonzero;fill:#000000;fill-opacity:1;" d="M 145.679688 33.808594 L 155.886719 33.808594 L 155.886719 41.957031 L 145.679688 41.957031 Z M 145.679688 33.808594 "/><path style=" stroke:none;fill-rule:nonzero;fill:#000000;fill-opacity:1;" d="M 160.644531 33.808594 L 170.847656 33.808594 L 170.847656 41.957031 L 160.644531 41.957031 Z M 160.644531 33.808594 "/><path style=" stroke:none;fill-rule:nonzero;fill:#000000;fill-opacity:1;" d="M 175.609375 33.808594 L 185.8125 33.808594 L 185.8125 41.957031 L 175.609375 41.957031 Z M 175.609375 33.808594 "/><path style=" stroke:none;fill-rule:nonzero;fill:#000000;fill-opacity:1;" d="M 190.570312 33.808594 L 200.777344 33.808594 L 200.777344 41.957031 L 190.570312 41.957031 Z M 190.570312 33.808594 "/><path style=" stroke:none;fill-rule:nonzero;fill:#000000;fill-opacity:1;" d="M 243.984375 328.054688 L 247.140625 333.5625 C 249.046875 332.46875 250.929688 331.277344 252.734375 330.015625 L 249.105469 324.8125 C 247.453125 325.964844 245.730469 327.054688 243.984375 328.054688 Z M 243.984375 328.054688 "/><path style=" stroke:none;fill-rule:nonzero;fill:#000000;fill-opacity:1;" d="M 223.261719 335.800781 L 224.488281 342.03125 C 226.648438 341.605469 228.8125 341.078125 230.925781 340.460938 L 229.148438 334.367188 C 227.21875 334.929688 225.238281 335.414062 223.261719 335.800781 Z M 223.261719 335.800781 "/><path style=" stroke:none;fill-rule:nonzero;fill:#000000;fill-opacity:1;" d="M 267.855469 305.21875 L 273.214844 308.617188 C 274.394531 306.757812 275.503906 304.824219 276.511719 302.871094 L 270.875 299.957031 C 269.949219 301.746094 268.933594 303.515625 267.855469 305.21875 Z M 267.855469 305.21875 "/><path style=" stroke:none;fill-rule:nonzero;fill:#000000;fill-opacity:1;" d="M 253.136719 321.769531 L 257.140625 326.695312 C 258.847656 325.308594 260.511719 323.828125 262.089844 322.296875 L 257.667969 317.742188 C 256.226562 319.144531 254.699219 320.5 253.136719 321.769531 Z M 253.136719 321.769531 "/><path style=" stroke:none;fill-rule:nonzero;fill:#000000;fill-opacity:1;" d="M 273.023438 295.378906 L 278.863281 297.867188 C 279.726562 295.839844 280.507812 293.75 281.183594 291.65625 L 275.148438 289.703125 C 274.527344 291.617188 273.8125 293.527344 273.023438 295.378906 Z M 273.023438 295.378906 "/><path style=" stroke:none;fill-rule:nonzero;fill:#000000;fill-opacity:1;" d="M 261.164062 314.089844 L 265.90625 318.308594 C 267.371094 316.664062 268.773438 314.933594 270.085938 313.167969 L 264.992188 309.382812 C 263.792969 311 262.503906 312.582031 261.164062 314.089844 Z M 261.164062 314.089844 "/><path style=" stroke:none;fill-rule:nonzero;fill:#000000;fill-opacity:1;" d="M 278.464844 267.808594 C 278.46875 268.058594 278.46875 268.308594 278.46875 268.558594 C 278.46875 270.328125 278.402344 272.117188 278.265625 273.875 L 284.59375 274.359375 C 284.738281 272.441406 284.8125 270.492188 284.8125 268.558594 C 284.8125 268.285156 284.8125 268.011719 284.808594 267.742188 Z M 278.464844 267.808594 "/><path style=" stroke:none;fill-rule:nonzero;fill:#000000;fill-opacity:1;" d="M 233.941406 332.777344 L 236.164062 338.722656 C 238.222656 337.953125 240.273438 337.082031 242.257812 336.128906 L 239.515625 330.40625 C 237.699219 331.273438 235.824219 332.070312 233.941406 332.777344 Z M 233.941406 332.777344 "/><path style=" stroke:none;fill-rule:nonzero;fill:#000000;fill-opacity:1;" d="M 276.523438 284.839844 L 282.6875 286.34375 C 283.210938 284.207031 283.640625 282.019531 283.96875 279.84375 L 277.695312 278.894531 C 277.394531 280.886719 277 282.886719 276.523438 284.839844 Z M 276.523438 284.839844 "/></g></svg>